<?xml version="1.0" encoding="UTF-8"?>
<!DOCTYPE svg PUBLIC "-//W3C//DTD SVG 1.1//EN" "http://www.w3.org/Graphics/SVG/1.1/DTD/svg11.dtd">
<!-- Creator: CorelDRAW 2020 (64-Bit) -->
<svg xmlns="http://www.w3.org/2000/svg" xml:space="preserve" width="112.862mm" height="87.3499mm" version="1.1" style="shape-rendering:geometricPrecision; text-rendering:geometricPrecision; image-rendering:optimizeQuality; fill-rule:evenodd; clip-rule:evenodd"
viewBox="0 0 8614.45 6667.18"
 xmlns:xlink="http://www.w3.org/1999/xlink"
 xmlns:xodm="http://www.corel.com/coreldraw/odm/2003">
 <defs>
  <style type="text/css">
   <![CDATA[
    .fil0 {fill:#761028}
   ]]>
  </style>
 </defs>
 <g id="Layer_x0020_1">
  <metadata id="CorelCorpID_0Corel-Layer"/>
  <path class="fil0" d="M7775.59 5670.48l2.43 197.33 152.67 -1.63c177.84,-1.63 228.2,-9.74 276.11,-45.48 52.78,-39.79 72.27,-85.27 69.02,-160.79 -1.63,-51.16 -6.5,-67.4 -25.17,-95.01 -30.04,-45.48 -74.72,-73.9 -132.37,-82.83 -25.99,-4.87 -114.51,-8.12 -196.52,-8.12l-147.8 0 1.63 196.52 0 0.01zm-2331.46 -216.01c-131.56,35.73 -223.32,136.43 -266.36,295.59 -10.56,39.79 -14.62,83.64 -14.62,182.71 0,142.93 9.75,194.09 52.79,286.67 45.48,96.63 141.3,173.77 244.43,196.51 25.99,5.69 74.71,8.94 110.45,6.5 159.97,-8.93 284.22,-123.43 332.95,-306.96 20.3,-74.71 20.3,-291.53 0,-365.43 -43.85,-161.6 -133.99,-260.68 -269.6,-296.4 -59.28,-15.43 -132.37,-14.62 -190.03,0.81l0 0zm2925.08 -1741.9c-28.42,8.12 -35.74,28.42 -13.81,37.35 19.49,7.31 51.97,-11.37 51.97,-30.04 0,-17.87 -0.81,-17.87 -38.16,-7.31zm-562.77 -58.47c-18.68,36.55 -4.06,98.26 23.55,98.26 21.11,0 41.42,-25.98 41.42,-53.59 0,-48.73 -45.48,-80.4 -64.96,-44.67l-0.01 0zm-891.66 -5.69c-17.05,17.05 -10.56,22.74 26.8,22.74 20.3,0 36.55,-3.24 36.55,-6.5 0,-12.18 -19.49,-25.99 -36.55,-25.99 -9.75,0 -21.11,4.07 -26.8,9.75zm-622.04 3.25c-14.62,14.62 -17.05,61.72 -4.87,85.27 18.68,34.11 64.96,4.87 64.96,-41.42 0,-24.36 -20.3,-56.85 -36.55,-56.85 -5.68,0 -17.05,5.69 -23.55,13l0 0zm-669.15 -3.25c-17.05,17.05 -10.56,22.74 26.8,22.74 20.3,0 36.55,-3.24 36.55,-6.5 0,-12.18 -19.49,-25.99 -36.55,-25.99 -9.74,0 -21.11,4.07 -26.8,9.75zm-738.18 64.15c-28.42,8.12 -35.73,28.42 -13.8,37.35 19.49,7.31 51.97,-11.37 51.97,-30.04 0,-17.87 -0.81,-17.87 -38.17,-7.31zm-520.54 -64.15c-17.05,17.05 -10.56,22.74 26.81,22.74 20.3,0 36.54,-3.24 36.54,-6.5 0,-12.18 -19.49,-25.99 -36.54,-25.99 -9.75,0 -21.12,4.07 -26.81,9.75zm-1120.66 0c-17.05,17.05 -10.55,22.74 26.81,22.74 20.3,0 36.54,-3.24 36.54,-6.5 0,-12.18 -19.49,-25.99 -36.54,-25.99 -9.75,0 -21.11,4.07 -26.81,9.75zm-608.24 64.15c-28.42,8.12 -35.73,28.42 -13.81,37.35 19.49,7.31 51.98,-11.37 51.98,-30.04 0,-17.87 -0.82,-17.87 -38.17,-7.31zm-894.09 -64.15c-17.05,17.05 -10.56,22.74 26.8,22.74 20.3,0 36.55,-3.24 36.55,-6.5 0,-12.18 -19.49,-25.99 -36.55,-25.99 -9.74,0 -21.11,4.07 -26.8,9.75zm-430.4 0c-17.05,17.05 -10.55,22.74 26.81,22.74 20.3,0 36.54,-3.24 36.54,-6.5 0,-12.18 -19.49,-25.99 -36.54,-25.99 -9.75,0 -21.11,4.07 -26.81,9.75zm2800.84 1.63c-15.43,17.87 -8.12,86.89 9.75,97.45 12.18,7.31 17.86,5.69 30.85,-10.56 18.68,-22.74 20.3,-56.03 2.44,-80.4 -13.81,-20.3 -29.24,-22.74 -43.04,-6.5zm-1120.66 0c-15.43,17.87 -8.12,86.89 9.75,97.45 12.18,7.31 17.87,5.69 30.86,-10.56 18.68,-22.74 20.3,-56.03 2.43,-80.4 -13.8,-20.3 -29.23,-22.74 -43.04,-6.5zm-2363.94 4.06c-19.49,37.35 -4.06,98.26 24.36,98.26 19.49,0 32.48,-22.73 32.48,-56.84 0,-34.11 -12.99,-56.84 -32.48,-56.84 -8.93,0 -19.49,7.3 -24.36,15.43l0 0zm3026.59 -86.89c-46.28,35.73 -35.73,160.79 15.43,173.78 45.48,11.37 69.84,-25.98 65.77,-99.88 -3.24,-71.47 -39.79,-104.76 -81.2,-73.9l0 0zm-1712.66 -3550.38c9.74,0 10.56,2.43 3.24,9.75 -13.81,13.81 -12.18,37.35 6.5,95.82 8.94,27.61 16.24,69.84 16.24,93.39 0,67.4 40.61,168.91 52.79,131.56 13.8,-43.85 12.99,-43.04 22.74,-24.36 11.37,25.17 21.93,23.55 21.93,-4.07 0,-12.17 3.24,-26.8 7.3,-32.48 7.31,-12.18 17.05,43.03 17.05,99.07 0,30.04 4.88,38.16 44.67,77.96 58.47,56.84 87.7,103.94 122.63,192.46 25.98,64.96 53.59,108 69.83,108 13.81,0 38.98,-53.6 38.98,-83.65 0,-16.24 4.06,-30.04 8.12,-30.04 4.88,0 8.12,14.62 8.12,32.48 0,24.36 5.68,38.98 25.17,60.91 13.81,15.43 28.42,28.42 32.48,28.42 4.06,0 7.3,-14.62 7.3,-32.48 0,-17.05 7.31,-50.35 16.24,-73.08 8.94,-22.74 16.24,-58.47 17.05,-79.59 0,-28.42 2.44,-34.11 7.31,-21.92 4.06,8.93 7.3,28.42 7.3,43.03 0.82,14.62 6.5,38.17 13.81,51.98 7.31,13.8 13.81,51.15 15.43,84.45 2.43,54.41 12.99,92.58 52.78,187.59 4.07,10.56 12.99,18.68 19.49,18.68 10.56,0 10.56,3.24 0,28.42 -7.3,17.87 -11.37,56.03 -11.37,104.76 0,88.51 4.07,94.2 69.03,94.2 34.91,0 37.35,0.82 31.67,17.87 -15.43,51.16 -27.61,71.46 -43.04,71.46 -35.73,0 -43.85,51.98 -25.99,169.73 8.94,61.72 8.12,69.02 -4.87,83.64 -13.8,15.43 -14.62,43.04 -17.05,371.12 -3.25,306.15 -1.63,366.24 10.56,445.83 13.81,86.07 13.81,91.76 0.82,101.51 -11.37,8.12 -13,20.3 -11.37,62.53 2.43,49.54 4.06,53.6 26.8,64.15 12.99,6.5 29.23,17.87 36.55,25.99 6.5,8.12 27.61,17.05 47.09,20.3 30.87,4.87 34.11,4.05 34.11,-11.37 0,-8.94 -3.24,-25.99 -8.12,-38.17 -4.87,-13.8 -4.87,-40.6 0,-79.58 6.5,-42.23 5.69,-80.4 -0.81,-135.62 -8.94,-74.71 -10.56,-77.96 -42.23,-107.19 -21.92,-21.11 -28.42,-31.67 -21.11,-34.1 6.5,-1.63 24.36,-7.31 40.61,-13l29.23 -8.93 5.69 -73.9c2.43,-40.61 4.87,-116.94 4.87,-169.72 0,-94.2 0.81,-96.64 20.3,-109.64 27.61,-17.86 33.29,-45.47 15.43,-75.52 -13,-22.74 -13,-25.99 -1.63,-38.98 7.3,-8.12 15.43,-33.29 18.68,-56.03 4.06,-34.1 10.56,-47.1 33.29,-66.59 20.3,-17.87 27.61,-31.67 27.61,-49.54 0,-18.68 4.06,-25.18 14.62,-25.18 8.12,0 21.92,-8.11 31.67,-18.67 8.94,-9.75 27.61,-27.62 41.42,-39.8 16.23,-14.62 23.55,-26.79 20.3,-37.35 -4.87,-20.3 17.87,-29.23 33.29,-12.99 6.5,6.5 10.56,17.05 8.12,22.74 -5.68,14.62 82.02,89.33 98.26,83.65 8.12,-4.07 12.99,3.24 17.05,22.74 2.43,15.43 9.75,28.42 14.62,28.42 21.93,0 44.67,47.1 48.73,98.26 2.43,41.42 6.5,53.6 20.3,63.34 12.19,7.31 17.06,19.49 17.06,40.61 0,21.93 5.68,35.74 20.3,49.54 11.37,10.56 18.68,24.36 17.05,30.05 -3.24,7.3 3.25,10.56 19.49,10.56l24.36 0 0 -56.85c0,-54.41 0.81,-56.84 24.36,-69.02 13.8,-7.3 24.36,-17.86 24.36,-24.36 0,-6.5 5.69,-12.19 13,-12.19 21.1,0 8.11,-72.27 -17.87,-93.39 -22.74,-19.49 -25.18,-28.42 -7.31,-28.42 27.61,0 43.85,-30.05 43.04,-78.77 -1.63,-56.04 15.43,-94.2 50.35,-112.06 24.36,-13 30.05,-25.99 34.11,-77.15 2.43,-23.55 5.68,-28.42 21.11,-28.42 11.37,0 33.29,-15.43 57.66,-40.61 21.11,-22.74 48.72,-47.1 60.9,-55.22 17.87,-12.18 21.12,-19.49 17.05,-37.35 -3.24,-16.24 0,-25.99 12.19,-37.35 23.55,-21.93 43.03,-7.31 49.53,35.73 4.88,34.92 13.81,49.54 33.29,51.97 5.69,1.63 29.24,21.11 51.98,44.67 44.67,46.28 57.66,51.16 61.71,23.55 2.44,-12.18 7.31,-4.06 17.87,30.87 19.49,62.53 20.3,64.96 33.29,47.91 8.94,-12.19 10.56,-10.56 15.43,15.43 3.25,17.87 12.99,34.92 24.36,42.23 21.92,14.62 40.6,50.35 29.23,56.84 -7.31,4.06 -4.88,51.97 4.87,98.26 1.63,9.75 13.81,21.93 27.61,27.62 13,5.68 24.36,11.37 24.36,12.99 0,1.63 -8.94,16.24 -20.3,32.48 -23.55,34.91 -24.36,48.72 -7.31,210.32 6.5,62.53 13.81,129.93 15.43,150.24 1.63,20.3 3.25,38.98 3.25,42.23 0.81,2.43 18.68,11.37 41.42,18.67 21.93,7.31 42.22,16.24 43.85,18.68 4.88,8.12 -21.11,38.17 -42.22,49.54 -13.81,7.3 -17.86,16.24 -17.05,35.72 0.81,14.62 -1.63,32.48 -4.88,39.8 -8.12,20.3 17.87,29.23 103.95,34.92 55.22,4.05 73.08,8.93 81.2,20.3 11.37,16.24 73.9,35.74 91.77,29.24 7.3,-3.25 11.37,-17.87 11.37,-45.48 0,-37.35 4.06,-45.48 53.6,-109.63 60.9,-78.77 86.08,-100.7 151.86,-129.12l45.48 -20.3 -4.88 -53.6c-4.87,-52.79 -4.06,-54.41 21.93,-81.2l26.8 -27.61 34.92 24.36c33.29,22.74 35.73,26.8 35.73,60.91 0,40.6 11.37,68.21 27.61,68.21 5.69,0 32.48,11.37 60.09,25.18 35.74,17.86 67.4,43.85 111.25,90.95l61.73 66.59 -4.88 57.66c-8.12,79.58 0,84.46 123.44,84.46 103.94,0 121,-4.88 169.72,-47.1 18.68,-17.05 48.73,-35.73 66.59,-40.6 22.75,-7.31 151.05,-9.75 441.77,-9.75 485.62,0 507.55,-2.43 700.82,-73.09 73.08,-26.8 99.88,-19.49 200.58,54.41 132.37,96.64 114.5,91.77 328.89,91.77 101.51,0 247.68,4.06 323.21,8.12 135.61,8.12 140.49,8.93 272.04,51.97 146.99,48.73 258.25,73.9 387.36,88.52 79.59,8.94 96.64,7.31 317.52,-21.11 128.31,-17.05 241.19,-30.05 250.93,-30.05 21.12,0 25.99,19.49 54.41,220.89 29.23,202.21 38.97,317.51 39.79,486.43l1.63 149.43 -4307.23 2.43 -4307.23 1.63 4.87 -155.91c4.88,-149.42 23.55,-349.19 50.35,-534.34 17.05,-116.93 69.83,-367.06 80.4,-380.86 9.74,-13 43.03,-8.94 208.7,24.36 110.44,21.93 128.31,23.55 235.5,18.68 89.33,-3.25 132.37,-1.63 181.09,8.12 65.78,12.98 77.96,12.18 77.96,-7.31 0,-12.18 34.11,-80.4 50.35,-99.89 8.12,-9.74 23.55,-10.56 81.21,-6.5 81.2,6.5 82.02,5.69 91.77,-66.59 5.68,-40.61 21.1,-70.65 76.33,-144.55 10.56,-14.62 21.12,-37.35 24.36,-51.15 7.3,-35.74 19.49,-34.93 26.8,1.62 3.25,17.05 21.11,52.79 39.79,79.59 45.48,66.59 56.04,96.64 56.04,151.85 0,51.97 12.99,77.96 37.35,73.09 15.43,-2.43 15.43,-12.18 12.18,-384.12 -1.63,-225.75 -5.69,-385.73 -10.56,-391.41 -4.06,-4.88 -15.43,-10.56 -25.17,-12.18 -11.37,-1.63 -19.49,-10.56 -22.75,-26.8 -3.24,-13.81 -8.12,-31.67 -11.37,-40.61 -3.25,-12.99 1.63,-19.49 25.99,-32.48l30.86 -16.25 0 -93.39c0,-84.45 1.63,-95.82 17.86,-116.93 22.74,-28.42 33.29,-63.34 43.85,-146.98 4.07,-35.74 13,-88.52 19.49,-117.76 6.5,-29.23 12.99,-61.72 14.62,-73.08 3.25,-17.05 4.06,-15.43 4.88,5.69 0,13.8 4.05,27.61 7.3,30.04 10.56,6.5 40.61,-66.59 47.1,-112.87l5.69 -40.61 9.74 46.28c4.87,25.99 16.24,54.41 24.36,63.34 8.12,8.93 17.05,32.48 19.49,51.16 3.25,21.92 9.75,34.92 17.87,36.55 18.68,3.24 86.07,-143.74 103.94,-227.38 11.37,-51.98 15.43,-63.34 20.3,-49.54 8.12,25.18 21.12,23.55 59.28,-9.74 36.55,-30.86 47.1,-55.22 55.22,-125.87 2.43,-24.36 9.74,-53.6 16.24,-64.97l10.56 -20.3 17.87 39.79 17.05 40.61 17.05 -17.87c14.62,-14.62 18.68,-30.86 23.55,-96.64 2.43,-43.85 8.94,-90.14 14.62,-102.32 10.55,-27.61 12.17,-84.45 1.63,-90.13 -4.07,-3.25 -3.25,-13.81 1.62,-25.17 6.5,-13.81 10.56,-16.24 12.18,-8.12 1.63,6.5 8.94,12.18 16.24,12.18l0 0.01zm6015.01 909.52c178.65,284.22 189.21,308.58 131.55,308.58 -14.62,0 -94.2,4.06 -177.03,8.94 -118.56,6.5 -164.84,12.18 -224.13,29.23l-74.71 21.11 -83.65 -19.49c-104.75,-24.36 -190.02,-24.36 -276.92,-0.82 -78.77,21.93 -103.13,21.93 -145.36,0.82 -57.66,-29.24 -82.02,-25.18 -146.17,25.98l-21.11 17.87 -39.79 -19.49c-74.72,-37.35 -139.68,-22.74 -263.92,58.47 -89.33,59.28 -138.86,72.27 -267.18,72.27l-104.75 0 8.93 -21.92c12.99,-35.73 30.86,-49.54 75.53,-62.53 51.15,-15.43 91.76,-47.91 129.92,-104.76 15.43,-24.36 38.98,-47.91 51.16,-53.6 34.92,-13.81 304.53,-72.27 396.29,-85.27 44.67,-6.5 114.51,-13.8 154.3,-17.05 113.69,-8.12 146.17,-17.04 172.16,-50.35 54.41,-69.02 73.9,-82.01 152.67,-108 43.04,-12.99 82.02,-24.36 87.71,-24.36 5.69,0 30.05,-5.69 52.79,-12.18 49.54,-14.62 93.38,-51.16 116.12,-94.2 12.18,-23.55 22.74,-32.48 46.28,-38.98 47.91,-12.18 68.21,-15.43 102.32,-13.81l31.67 0.82 115.31 182.71 0.01 0zm-7416.65 350c89.33,50.35 135.61,88.52 185.15,151.05 70.65,90.13 87.7,99.88 206.26,122.62 55.22,10.56 91.77,35.73 132.37,91.76 30.86,43.04 38.97,46.28 148.61,64.97 33.29,5.68 65.77,13.8 71.46,17.86 6.5,4.87 9.74,34.92 9.74,97.45l0 89.33 -21.1 -19.49c-25.99,-24.36 -43.86,-57.66 -43.86,-82.02 0,-30.86 -21.92,-55.22 -50.35,-55.22 -32.48,0 -55.22,20.3 -55.22,48.72 0,12.99 -12.18,39.8 -28.42,61.72 -42.22,58.47 -62.53,99.89 -73.08,145.36l-9.75 40.61 -61.72 -3.25 -62.53 -2.43 -30.86 31.67c-16.24,17.05 -35.73,42.22 -43.04,56.03l-12.99 24.36 -167.29 1.63c-163.23,1.63 -169.72,0.81 -298.03,-26.8 -72.27,-15.43 -143.74,-28.42 -159.17,-28.42 -15.43,0 -27.61,-4.06 -27.61,-8.94 0,-15.43 46.28,-168.91 85.27,-283.41 48.72,-142.11 108,-287.47 168.1,-414.16 26.8,-56.03 53.59,-113.69 60.09,-128.31 6.5,-13.8 12.99,-25.99 14.62,-25.99 1.63,0 30.05,15.43 63.34,33.3l-0.01 0zm7647.27 53.6c40.61,82.02 108.01,237.13 146.99,339.45 37.35,98.26 90.95,257.42 87.7,259.86 -2.43,2.43 -394.67,38.16 -619.61,56.84 -80.4,6.5 -244.43,14.62 -365.43,17.05 -207.08,4.06 -222.51,4.06 -280.16,-12.18 -152.67,-43.85 -232.26,-53.6 -511.61,-65.77 -108,-4.88 -193.28,-12.19 -222.51,-20.31 -70.65,-18.67 -137.24,-56.84 -203.82,-117.74 -69.84,-63.34 -125.87,-95.01 -240.38,-134.81 -168.91,-58.47 -181.09,-67.4 -109.63,-80.39 17.87,-2.44 56.04,-17.06 85.27,-32.48 92.59,-46.29 128.31,-52.79 317.52,-60.91 95.83,-4.06 193.28,-9.74 216.01,-12.18 45.48,-5.68 121,-38.16 177.84,-77.14 46.28,-31.67 133.18,-73.09 154.3,-73.09 8.93,0 35.73,8.94 59.28,20.3 58.47,26.8 77.15,25.99 114.51,-8.12 35.73,-32.48 56.85,-34.92 107.19,-12.18 46.28,20.3 82.02,20.3 159.17,-0.82 82.02,-22.73 177.84,-22.73 265.55,0 82.83,21.93 100.69,21.12 174.59,-4.05 60.9,-21.12 159.17,-31.67 354.06,-38.17 40.61,-1.63 79.59,-3.24 86.89,-4.06 10.56,-0.81 23.55,16.24 46.29,60.9l-0.01 0.01zm-3490.28 47.91c67.4,42.23 105.57,44.67 172.97,12.19 49.54,-23.55 56.03,-25.17 90.14,-16.24 24.36,6.5 55.22,7.3 87.7,3.24 70.65,-9.75 131.56,-7.3 253.37,8.12 126.68,16.24 238.74,43.86 293.16,71.46 21.93,11.37 65.78,47.1 96.64,78.77 73.9,74.72 120.99,102.32 263.92,154.3 141.3,50.35 165.66,64.15 242,132.37 118.56,107.19 190.83,133.18 397.91,143.73 344.33,19.49 386.55,23.55 484,48.73 140.49,35.73 213.58,42.23 400.35,32.48 236.31,-12.18 373.55,-21.93 675.64,-49.54 221.7,-19.49 273.67,-21.93 280.98,-13.81 15.43,17.05 90.14,321.58 81.21,330.51 -4.88,4.07 -120.19,21.12 -257.43,38.17 -235.5,29.23 -253.37,30.05 -320.77,21.11 -135.61,-19.49 -234.68,-43.04 -367.05,-87.7 -132.37,-44.67 -133.18,-44.67 -276.11,-52.79 -78.77,-4.87 -226.57,-8.94 -328.08,-8.94l-185.96 -0.81 -77.95 -55.22c-134.81,-95.01 -146.17,-100.69 -196.53,-99.88 -26.8,0.81 -73.9,10.56 -117.75,25.98 -157.54,53.6 -151.04,52.79 -643.16,55.22 -493.75,2.43 -476.69,0.81 -535.97,55.22 -43.03,38.17 -57.66,42.22 -152.67,42.22 -90.13,-0.81 -83.64,4.88 -72.27,-64.15 4.06,-25.17 0.82,-36.54 -17.05,-62.53 -38.17,-55.22 -142.92,-149.42 -192.46,-172.97 -46.28,-21.11 -47.1,-21.92 -47.1,-56.03 0,-20.3 -6.5,-42.22 -14.62,-52.79 -17.86,-21.93 -90.13,-67.4 -108,-67.4 -7.3,0 -32.48,20.3 -56.03,45.47l-42.23 44.67 4.88 42.23 5.69 42.22 -43.04 23.55c-77.96,43.86 -180.29,160.79 -213.58,246.06 -0.81,1.63 -20.3,-4.88 -43.04,-13.81 -23.55,-8.93 -62.53,-16.24 -86.88,-16.24 -40.61,0 -44.67,-1.63 -44.67,-17.05 0,-9.75 14.62,-33.29 32.48,-52.79 17.87,-19.49 32.48,-40.61 32.48,-47.1 0,-16.23 -21.11,-31.67 -64.15,-46.28 -34.91,-12.18 -37.35,-14.62 -43.85,-48.72 -11.37,-69.03 -21.11,-166.48 -23.55,-234.69 -2.43,-64.15 -0.81,-71.47 20.3,-103.13 27.61,-39.79 24.36,-61.72 -10.56,-77.15 -30.05,-12.99 -38.16,-31.67 -18.68,-45.48 81.2,-57.66 64.96,-53.6 246.06,-59.28 189.22,-5.68 214.39,-11.37 308.59,-68.21 33.29,-19.49 65.78,-36.55 71.46,-36.55 6.5,0 32.48,12.99 59.28,29.23l-0.01 0zm-1918.11 205.46c-8.93,17.05 -18.68,45.48 -21.11,62.53 -2.43,17.87 -13.81,42.22 -24.36,54.41 -22.74,27.6 -22.74,27.6 -2.43,58.47 15.43,23.55 15.43,23.55 -1.63,43.03 -21.92,22.75 -30.04,84.46 -30.04,233.88 -0.82,114.5 -4.88,125.06 -43.04,125.06l-22.74 0 0.81 -140.5c0.82,-76.33 3.25,-211.14 6.5,-298.03l4.88 -158.36 36.54 -4.87c20.3,-2.43 53.6,-5.69 74.72,-5.69l38.98 -1.63 -17.06 31.67 0 0.01zm527.85 32.48c13.81,17.05 25.17,34.91 25.17,38.16 0,4.06 -12.18,21.93 -27.61,38.98l-26.8 32.48 -21.93 -21.93c-15.43,-15.43 -21.11,-29.23 -21.11,-53.6 0,-17.86 -2.43,-37.35 -4.87,-43.85 -4.07,-12.18 8.11,-18.68 38.97,-21.11 7.31,0 24.36,13.81 38.17,30.86l0 0zm-633.42 690.26c22.74,44.67 26.8,86.08 16.24,151.04 -11.37,71.47 -14.62,77.96 -38.98,71.47 -16.24,-4.06 -17.87,-7.31 -11.37,-34.11 8.12,-38.16 8.12,-147.79 0,-198.95 -6.5,-37.36 -5.69,-39.79 6.5,-29.23 7.31,5.68 20.3,24.36 27.61,39.79l0 0zm-2449.21 1218.92c12.18,13.81 21.92,29.24 21.92,35.74 0,21.11 -64.96,28.42 -81.2,8.93 -12.99,-15.43 -43.85,-15.43 -56.84,0 -14.62,17.05 -5.69,23.55 51.97,40.61 63.34,17.86 94.2,47.91 94.2,92.58 0,64.15 -29.23,95.82 -95.82,103.94 -56.84,6.5 -104.76,-8.93 -123.44,-40.6 -24.36,-39.8 -21.11,-51.98 16.24,-58.47 29.23,-4.87 34.92,-3.25 49.54,15.43 19.49,25.17 59.28,29.23 71.47,7.3 12.99,-23.55 -4.06,-40.61 -52.79,-55.22 -60.9,-17.86 -92.58,-48.72 -92.58,-91.76 0,-62.53 46.28,-93.39 129.93,-86.89 37.35,2.43 48.72,7.3 67.4,28.42l0 -0.01zm907.08 -21.92c25.99,8.93 64.96,57.66 54.41,68.21 -3.25,2.43 -20.3,7.3 -39.8,10.56 -29.23,5.68 -36.55,4.06 -45.48,-8.94 -11.37,-17.05 -42.22,-20.3 -66.59,-7.3 -36.55,19.49 -41.42,129.12 -7.31,163.23 28.42,28.42 96.64,11.37 96.64,-25.99 0,-12.18 -5.69,-15.43 -28.42,-15.43 -27.61,0 -28.42,-0.82 -28.42,-32.48l0 -32.48 64.96 0 65.78 0 -2.43 70.65 -2.43 71.47 -36.55 20.3c-50.35,27.61 -138.05,29.23 -175.41,2.43 -38.17,-27.61 -56.03,-69.84 -55.22,-136.43 0,-106.39 46.29,-156.73 145.37,-157.55 17.86,0 45.48,4.06 60.9,9.75l0 0.01zm2630.3 12.18c77.14,55.22 75.52,216.82 -1.63,272.85 -17.87,12.99 -34.92,17.05 -77.14,17.05 -62.53,0 -88.52,-12.99 -116.94,-60.09 -25.17,-40.61 -26.8,-135.62 -1.63,-183.53 23.55,-47.1 73.9,-71.47 132.37,-65.78 24.36,2.43 53.6,10.56 64.97,19.49l0 0.01zm-3141.91 34.91c0,43.86 1.63,48.73 14.62,43.86 68.22,-30.05 123.44,12.99 123.44,95.82 0,95.01 -65.78,149.42 -125.06,102.32 -17.05,-13.81 -21.11,-14.62 -21.11,-4.06 0,9.74 -8.12,12.99 -32.48,12.99l-32.48 0 0 -150.24 0 -150.24 36.55 0 36.54 0 0 49.54 0 0zm1875.89 -17.05l0 32.48 -36.54 0 -36.55 0 0 -32.48 0 -32.48 36.55 0 36.54 0 0 32.48zm625.3 117.76l0 150.23 -36.55 0c-20.3,0 -36.54,-3.24 -36.54,-7.3 0,-4.88 -9.75,-2.43 -21.93,4.06 -34.11,17.05 -56.04,13.8 -85.27,-12.18 -23.55,-20.3 -25.99,-28.42 -29.24,-77.15 -2.43,-32.48 0.82,-63.34 6.5,-78.77 17.86,-41.42 63.34,-56.03 116.12,-35.73 12.19,4.87 13.81,0 13.81,-43.85l0 -49.54 36.55 0 36.54 0 0 150.24 0.01 0zm1120.65 0l0 150.23 -36.54 0c-20.3,0 -36.55,-3.24 -36.55,-7.3 0,-4.88 -9.74,-2.43 -21.93,4.06 -34.1,17.05 -56.03,13.8 -85.27,-12.18 -23.55,-20.3 -25.98,-28.42 -29.23,-77.15 -2.43,-32.48 0.81,-63.34 6.5,-78.77 17.87,-41.42 63.34,-56.03 116.12,-35.73 12.18,4.87 13.81,0 13.81,-43.85l0 -49.54 36.55 0 36.54 0 0 150.24 0 0zm1250.59 -117.76l0 32.48 -36.54 0 -36.55 0 0 -32.48 0 -32.48 36.55 0 36.54 0 0 32.48zm1339.92 0l0 32.48 -40.61 0 -40.6 0 0 117.75 0 117.75 -44.67 0 -44.67 0 0 -117.75 0 -117.75 -40.6 0 -40.61 0 0 -32.48 0 -32.48 125.87 0 125.87 0 0 32.48zm682.14 0l0 32.48 -36.55 0 -36.54 0 0 -32.48 0 -32.48 36.54 0 36.55 0 0 32.48zm714.62 0l0 32.48 -36.55 0 -36.55 0 0 -32.48 0 -32.48 36.55 0 36.55 0 0 32.48zm373.55 117.76l0 150.23 -36.54 0 -36.55 0 0 -150.23 0 -150.24 36.55 0 36.54 0 0 150.24zm-2460.57 -101.52c0,38.17 1.63,40.61 20.3,40.61 17.86,0 20.3,3.24 20.3,28.42 0,25.17 -2.43,28.42 -20.3,28.42 -19.49,0 -20.3,1.63 -20.3,52.79 0,51.15 0.81,52.78 20.3,52.78 17.05,0 20.3,4.07 20.3,23.55 0,25.99 -11.37,33.29 -53.59,33.29 -47.1,0 -60.1,-21.11 -60.1,-97.45 0,-59.28 -1.63,-64.96 -16.24,-64.96 -12.99,0 -16.24,-5.69 -16.24,-28.42 0,-22.74 3.25,-28.42 16.24,-28.42 12.18,0 16.24,-5.69 16.24,-22.75 0,-15.43 7.31,-26.8 26.8,-39.79 39.8,-26.8 46.29,-24.36 46.29,21.93l0 -0.01zm1518.57 0c0,38.17 1.63,40.61 20.3,40.61 17.87,0 20.3,3.24 20.3,28.42 0,25.17 -2.43,28.42 -20.3,28.42 -19.49,0 -20.3,1.63 -20.3,52.79 0,51.15 0.82,52.78 20.3,52.78 17.05,0 20.3,4.07 20.3,23.55 0,25.99 -11.37,33.29 -53.59,33.29 -47.1,0 -60.1,-21.11 -60.1,-97.45 0,-59.28 -1.63,-64.96 -16.24,-64.96 -12.99,0 -16.24,-5.69 -16.24,-28.42 0,-22.74 3.25,-28.42 16.24,-28.42 12.19,0 16.24,-5.69 16.24,-22.75 0,-15.43 7.31,-26.8 26.81,-39.79 39.79,-26.8 46.28,-24.36 46.28,21.93l0 -0.01zm-6253.76 50.35c21.92,13 41.42,54.41 41.42,86.89l0 25.18 -73.09 0c-54.41,0 -73.08,2.43 -73.08,10.56 0,25.17 43.04,40.61 61.72,22.74 8.93,-9.75 76.33,-1.63 76.33,8.93 0,17.87 -40.61,46.29 -75.53,51.16 -50.35,8.12 -80.39,-0.81 -108,-29.23 -21.11,-21.93 -23.55,-30.05 -23.55,-80.4 0,-60.9 11.37,-82.02 56.85,-103.13 27.61,-12.18 91.77,-8.93 116.94,7.3zm219.26 -10.55c16.24,10.55 0,52.78 -21.93,56.03 -30.04,4.87 -42.22,32.48 -42.22,96.64l0 59.28 -36.55 0 -36.55 0 0 -105.56 0 -105.57 32.48 0c25.17,0 32.48,3.24 32.48,13.8 0,12.18 2.43,11.37 17.86,-4.06 19.49,-18.68 35.74,-21.93 54.41,-10.56l0 0zm211.14 10.55c21.92,13 41.42,54.41 41.42,86.89l0 25.18 -73.08 0c-54.41,0 -73.09,2.43 -73.09,10.56 0,25.17 48.73,42.22 60.91,21.92 4.06,-6.5 66.59,-3.24 75.52,4.88 9.75,7.31 -29.23,44.67 -54.41,51.97 -98.26,26.8 -161.6,-21.92 -153.48,-119.38 3.24,-33.29 8.93,-48.72 26.8,-67.4 12.18,-13 30.04,-25.17 39.79,-27.61 27.61,-5.69 91.76,1.63 109.63,12.98zm248.49 -12.99c25.99,10.56 36.55,47.92 36.55,133.18l0 81.2 -36.55 0 -35.73 0 -2.43 -69.83c-1.63,-55.22 -5.68,-72.27 -16.24,-78.77 -9.75,-6.5 -17.05,-5.69 -25.99,1.62 -9.74,8.12 -12.99,26.8 -12.99,78.78l0 68.21 -36.55 0 -36.54 0 0 -105.57 0 -105.57 32.48 0c23.55,0 32.48,3.25 32.48,12.18 0,9.75 4.87,8.93 26.8,-4.06 26.8,-16.24 51.16,-20.3 74.71,-11.37l0 -0.01zm243.62 6.5c14.62,6.5 33.29,22.74 39.8,35.73l12.17 23.55 -34.1 4.88c-23.55,3.24 -38.17,0.81 -47.1,-7.31 -30.05,-26.8 -64.15,-3.25 -64.15,45.48 0,50.35 42.22,76.33 66.59,41.42 8.94,-12.99 17.87,-15.43 45.48,-11.37 18.68,2.43 34.1,6.5 34.1,9.74 0,2.43 -7.3,16.24 -16.24,30.87 -19.49,31.67 -64.15,47.09 -115.31,39.79 -61.72,-9.75 -87.71,-43.04 -87.71,-112.06 0,-40.61 3.24,-50.35 24.36,-74.72 13.8,-15.43 33.29,-30.04 43.03,-31.67 37.36,-7.3 72.27,-4.88 99.08,5.69l-0.01 -0.01zm397.11 12.18c14.62,14.62 17.86,30.05 21.11,106.39l4.06 89.33 -34.11 0c-25.98,0 -34.92,-3.24 -34.92,-12.18 0,-15.43 -7.3,-15.43 -25.17,0.82 -8.12,7.3 -28.42,14.62 -45.48,17.05 -42.22,5.68 -75.52,-20.3 -75.52,-58.47 0,-34.11 15.43,-49.54 59.28,-60.91 62.53,-16.24 74.71,-21.93 74.71,-33.29 0,-16.24 -34.92,-19.49 -51.98,-4.06 -18.68,17.05 -73.9,8.94 -73.9,-11.37 0,-16.24 30.05,-45.48 52.8,-51.15 8.93,-2.43 38.16,-3.25 64.15,-1.63 34.91,1.63 51.96,7.3 64.96,19.49zm613.11 -5.69c21.93,13 41.42,54.41 41.42,86.89l0 25.18 -73.09 0c-54.41,0 -73.08,2.43 -73.08,10.56 0,25.17 48.73,42.22 60.91,21.92 4.05,-7.3 66.59,-3.24 76.33,4.88 9.75,8.12 -27.61,44.67 -53.6,51.16 -99.88,27.61 -163.23,-20.3 -155.1,-118.57 3.25,-33.29 8.93,-48.72 26.8,-67.4 12.18,-12.99 30.05,-25.17 39.8,-27.61 27.61,-5.69 91.76,1.63 109.62,12.99l0 0zm657.78 -10.55c16.24,10.55 0,52.78 -21.93,56.03 -30.04,4.87 -42.22,32.48 -42.22,96.64l0 59.28 -36.55 0 -36.54 0 0 -105.56 0 -105.57 32.48 0c25.17,0 32.48,3.24 32.48,13.8 0,12.18 2.43,11.37 17.87,-4.06 19.49,-18.68 35.73,-21.93 54.41,-10.56l0 0zm462.88 10.55c21.93,13 41.42,54.41 41.42,86.89l0 25.18 -73.08 0c-54.41,0 -73.09,2.43 -73.09,10.56 0,25.17 48.73,42.22 60.91,21.92 4.06,-7.3 66.59,-3.24 76.33,4.88 9.75,8.12 -27.61,44.67 -53.6,51.16 -99.88,27.61 -163.23,-20.3 -155.1,-118.57 3.24,-33.29 8.93,-48.72 26.8,-67.4 12.18,-12.99 30.05,-25.17 39.79,-27.61 27.61,-5.69 91.76,1.63 109.63,12.99l0 0zm252.56 -9.74c22.74,12.18 32.48,52.79 32.48,134.8l0 76.33 -36.55 0 -35.72 0 -2.44 -69.84c-1.63,-55.22 -5.68,-72.27 -16.24,-78.77 -9.74,-6.5 -17.05,-5.69 -25.99,1.63 -9.74,8.12 -12.98,26.8 -12.98,78.77l0 68.21 -36.55 0 -36.55 0 0 -105.57 0 -105.57 32.48 0c23.55,0 32.48,3.24 32.48,12.18 0,9.74 4.87,8.93 26.8,-4.07 28.42,-17.86 55.22,-20.3 78.77,-8.11zm263.11 15.43c14.62,14.62 17.87,30.05 21.11,106.39l4.06 89.33 -34.1 0c-25.99,0 -34.92,-3.24 -34.92,-12.18 0,-15.43 -7.31,-15.43 -25.17,0.82 -8.12,7.3 -28.42,14.62 -45.48,17.05 -42.22,5.68 -75.52,-20.3 -75.52,-58.47 0,-34.11 15.43,-49.54 59.28,-60.91 62.53,-16.24 74.71,-21.93 74.71,-33.29 0,-16.24 -34.91,-19.49 -51.16,-4.06 -20.3,17.87 -82.01,8.94 -77.14,-11.37 4.88,-18.68 34.11,-45.48 55.22,-51.15 8.93,-2.43 38.17,-3.25 64.15,-1.63 34.93,1.63 51.98,7.3 64.97,19.49zm254.18 -2.43c8.93,12.18 11.37,12.18 31.67,-4.06 29.24,-22.74 64.15,-21.92 88.52,3.25 19.49,18.68 20.3,25.17 20.3,109.63l0 89.33 -36.55 0 -35.73 0 -2.43 -75.52c-2.43,-73.9 -2.43,-74.71 -22.74,-74.71 -20.3,0 -20.3,0.81 -22.74,74.71l-2.43 75.52 -35.73 0 -36.55 0 0 -63.34c0,-72.27 -12.99,-101.51 -38.17,-86.07 -12.18,7.31 -15.43,21.92 -17.05,79.59l-2.43 69.83 -35.73 0 -36.55 0 0 -105.57 0 -105.57 32.48 0c25.18,0 32.48,3.25 32.48,13.81 0,11.37 1.63,12.17 14.62,0.81 7.31,-7.3 19.49,-14.62 25.99,-17.05 20.3,-8.12 68.21,0.82 78.77,15.43l0 0zm488.87 -3.25c21.92,13 41.42,54.41 41.42,86.89l0 25.18 -73.08 0c-54.41,0 -73.09,2.43 -73.09,10.56 0,25.17 48.73,42.22 60.91,21.92 4.06,-7.3 66.59,-3.24 76.33,4.88 9.74,8.12 -27.62,44.67 -53.6,51.16 -99.88,27.61 -163.23,-20.3 -155.1,-118.57 3.24,-33.29 8.93,-48.72 26.8,-67.4 12.18,-12.99 30.04,-25.17 39.79,-27.61 27.61,-5.69 91.76,1.63 109.63,12.99l0 0zm248.49 -12.99c25.99,10.56 36.55,47.92 36.55,133.18l0 81.2 -36.55 0 -35.73 0 -2.43 -69.83c-1.63,-55.22 -5.68,-72.27 -16.24,-78.77 -9.75,-6.5 -17.05,-5.69 -25.99,1.62 -9.74,8.12 -12.98,26.8 -12.98,78.78l0 68.21 -36.55 0 -36.54 0 0 -105.57 0 -105.57 32.48 0c23.55,0 32.48,3.25 32.48,12.18 0,9.75 4.88,8.93 26.8,-4.06 26.8,-16.24 51.16,-20.3 74.72,-11.37l-0.01 -0.01zm414.97 15.43c44.67,29.23 56.84,117.75 21.93,165.66 -35.74,47.91 -118.57,52.79 -166.48,9.75 -21.92,-19.49 -25.98,-29.23 -28.42,-70.66 -4.06,-56.84 14.62,-95.01 56.84,-113.69 31.67,-14.62 86.89,-10.56 116.12,8.94zm627.73 -2.44c21.93,13 41.42,54.41 41.42,86.89l0 25.18 -73.08 0c-54.41,0 -73.09,2.43 -73.09,10.56 0,25.17 48.73,42.22 60.91,21.92 4.06,-7.3 66.59,-3.24 76.33,4.88 1.63,1.63 -3.24,12.18 -10.56,22.74 -29.24,45.48 -130.74,47.1 -172.16,4.06 -21.11,-21.93 -23.55,-30.05 -23.55,-80.4 0,-50.35 2.43,-58.47 23.55,-80.4 12.99,-12.99 30.86,-25.98 40.61,-28.42 27.61,-5.69 91.77,1.63 109.63,12.98zm219.26 -10.55c19.49,12.17 0,51.97 -29.23,59.28 -29.23,7.31 -34.92,21.93 -34.92,97.45l0 55.22 -36.54 0 -36.55 0 0 -105.57 0 -105.57 32.48 0c25.17,0 32.48,3.25 32.48,13.81 0,12.17 2.44,11.37 17.87,-4.07 19.49,-18.68 35.73,-21.92 54.41,-10.55zm186.78 0c16.24,10.55 0,52.78 -21.93,56.03 -30.05,4.87 -42.22,32.48 -42.22,96.64l0 59.28 -36.55 0 -36.55 0 0 -105.56 0 -105.57 32.48 0c25.17,0 32.48,3.24 32.48,13.8 0,12.18 2.43,11.37 17.87,-4.06 19.49,-18.68 35.73,-21.93 54.41,-10.56l0 0zm484.81 12.99c44.66,29.23 56.84,117.75 21.92,165.66 -35.73,47.91 -118.56,52.79 -166.47,9.75 -21.93,-19.49 -25.99,-29.23 -28.42,-70.66 -4.06,-56.84 14.62,-95.01 56.84,-113.69 31.68,-14.62 86.89,-10.56 116.13,8.94zm221.69 -12.99c16.24,10.55 0,52.78 -21.92,56.03 -30.05,4.87 -42.23,32.48 -42.23,96.64l0 59.28 -36.54 0 -36.55 0 0 -105.56 0 -105.57 32.48 0c25.17,0 32.48,3.24 32.48,13.8 0,12.18 2.43,11.37 17.87,-4.06 19.49,-18.68 35.73,-21.93 54.41,-10.56l0 0zm337.01 16.23c14.62,14.62 17.87,30.05 21.12,106.39l4.05 89.33 -34.1 0c-25.98,0 -34.92,-3.24 -34.92,-12.18 0,-15.43 -7.3,-15.43 -25.17,0.82 -8.12,7.3 -28.42,14.62 -45.48,17.05 -42.22,5.68 -75.53,-20.3 -75.53,-58.47 0,-34.11 15.43,-49.54 59.28,-60.91 62.53,-16.24 74.72,-21.93 74.72,-33.29 0,-16.24 -34.92,-19.49 -51.98,-4.06 -18.68,17.05 -73.9,8.94 -73.9,-11.37 0,-16.24 30.05,-45.48 52.79,-51.15 8.94,-2.43 38.17,-3.25 64.15,-1.63 34.92,1.63 51.97,7.3 64.96,19.49zm-8089.86 59.28c2.44,67.4 4.07,75.53 17.87,77.96 26.8,5.69 37.35,-20.3 37.35,-89.33l0 -63.34 36.55 0 36.54 0 0 105.57 0 105.57 -36.54 0c-27.61,0 -36.55,-3.25 -36.55,-12.99 0,-10.56 -4.06,-9.75 -21.11,4.06 -29.23,22.74 -64.15,21.92 -88.52,-3.25 -19.49,-18.68 -20.3,-25.17 -20.3,-109.63l0 -89.33 36.54 0 35.74 0 2.43 74.71zm2126.01 30.86l0 105.57 -36.54 0 -36.55 0 0 -105.57 0 -105.57 36.55 0 36.54 0 0 105.57zm2996.54 0l0 105.57 -36.54 0 -36.55 0 0 -105.57 0 -105.57 36.55 0 36.54 0 0 105.57zm2022.06 0l0 105.57 -36.55 0 -36.54 0 0 -105.57 0 -105.57 36.54 0 36.55 0 0 105.57zm714.62 0l0 105.57 -36.55 0 -36.55 0 0 -105.57 0 -105.57 36.55 0 36.55 0 0 105.57zm366.24 393.04c-28.42,30.87 -64.97,44.67 -169.73,65.78 -113.69,23.55 -130.74,29.23 -151.85,52.79 -38.16,43.04 -83.64,47.1 -203.02,19.49 -64.15,-14.62 -73.9,-14.62 -93.39,4.88 -12.18,12.18 -16.24,26.8 -16.24,61.72 0,47.91 -10.56,76.33 -27.61,76.33 -6.5,0 -30.86,-8.94 -55.22,-20.3 -24.36,-11.37 -55.22,-22.74 -69.03,-25.17 -23.55,-4.88 -26.8,-2.43 -42.22,26.8 -23.55,47.1 -47.1,54.41 -138.86,43.85 -40.61,-5.68 -86.89,-7.3 -102.32,-4.06 -41.42,7.31 -73.08,43.85 -85.27,95.83 -8.94,41.42 -8.12,71.46 5.68,224.13 4.88,49.54 3.25,55.22 -16.24,78.77 -21.92,25.99 -66.59,46.29 -90.95,41.42 -9.74,-1.63 -20.3,-26.81 -36.54,-91.77 -29.23,-113.69 -29.23,-129.93 -2.43,-146.98 30.86,-21.12 45.48,-53.6 34.92,-82.83 -20.3,-57.66 -95.83,-56.03 -224.14,6.5 -46.28,21.92 -97.45,42.22 -113.69,44.66 -17.05,3.25 -67.4,12.18 -112.88,20.3 -45.48,8.94 -126.68,19.49 -181.9,23.55 -112.06,8.93 -121.81,12.99 -183.53,78.77 -48.73,51.97 -73.9,56.84 -99.88,20.3 -51.98,-72.27 -206.27,-77.14 -308.59,-9.74 -61.72,41.42 -99.88,56.03 -150.24,59.28 -38.16,1.62 -49.54,0 -56.03,-11.37 -16.24,-25.17 3.25,-56.84 55.22,-88.52 50.35,-30.05 59.28,-45.48 49.54,-84.46 -10.56,-43.04 -55.22,-34.11 -184.35,37.35 -47.09,25.99 -91.76,47.92 -99.07,47.92 -7.3,0 -22.74,-8.12 -34.91,-18.68 -30.05,-25.99 -22.75,-43.04 51.15,-108.82 92.58,-83.65 93.39,-94.2 18.68,-127.5 -123.44,-55.22 -237.94,-41.42 -287.47,34.11 -11.37,16.24 -30.86,67.4 -44.67,112.87 -30.04,101.52 -35.73,112.88 -65.78,128.31 -36.54,18.68 -70.65,15.43 -96.64,-10.55 -19.49,-18.68 -23.55,-30.87 -28.42,-86.89 -3.25,-34.92 -3.25,-114.51 0,-175.42l5.69 -111.25 -21.93 -13.8c-28.42,-18.68 -146.98,-25.99 -211.95,-12.18 -41.42,8.93 -54.41,16.24 -97.45,56.84 -29.23,28.42 -70.65,57.66 -103.13,72.27 -45.48,21.93 -56.03,30.86 -69.84,60.9 -14.62,30.05 -24.36,38.17 -73.08,60.1 -82.83,36.54 -159.17,56.84 -241.19,62.53 -89.33,6.5 -355.69,60.1 -420.66,85.27 -25.17,9.74 -56.84,26.8 -69.83,37.35 -23.55,19.49 -23.55,21.11 -26.8,113.69 -2.44,90.14 -3.25,95.01 -24.36,112.87 -14.62,12.99 -40.61,21.93 -81.21,28.42 -89.33,14.62 -185.15,38.98 -222.5,57.66 -69.84,33.29 -124.25,108.82 -137.24,192.46 -6.5,42.23 -22.75,53.6 -88.52,65.78 -77.15,13.8 -83.65,12.99 -101.52,-21.92 -65.78,-129.93 -212.76,-245.25 -370.3,-293.17 -159.17,-47.91 -384.11,-30.86 -524.6,40.61 -156.73,78.77 -257.43,179.47 -307.77,307.77 -9.75,24.36 -18.68,45.48 -20.3,47.1 -1.63,1.63 -50.35,-21.92 -108,-51.97 -102.32,-52.79 -106.39,-54.41 -125.87,-41.42 -54.41,35.73 -96.64,139.67 -111.25,275.29 -13.81,128.31 4.87,155.1 98.26,137.24 73.09,-14.62 88.52,-0.81 51.97,47.91 -11.37,15.43 -20.3,34.92 -20.3,44.67 0,20.3 29.23,108 60.09,181.9 17.05,38.98 21.11,59.28 17.05,80.4 -6.5,33.29 -43.85,74.71 -68.21,74.71 -29.23,0 -80.4,-55.22 -140.49,-153.48 -76.33,-123.44 -81.2,-129.93 -96.64,-130.74 -19.49,0 -23.55,23.55 -23.55,154.3 0,117.75 0,118.56 -36.55,233.06 -20.3,62.53 -43.04,122.63 -51.16,132.37 -23.55,29.23 -47.91,15.43 -107.19,-59.28 -54.41,-68.21 -103.13,-103.13 -145.36,-103.13 -30.86,0 -86.89,-30.86 -97.45,-53.6 -15.43,-34.1 4.06,-83.65 87.7,-221.69 44.67,-73.9 57.66,-115.32 41.42,-134.81 -5.68,-6.5 -31.67,-23.55 -57.65,-37.35 -74.72,-39.8 -72.27,-54.41 17.86,-101.52 65.78,-34.91 94.2,-59.28 101.51,-88.52 5.69,-21.92 -0.81,-33.29 -72.27,-136.43 -24.36,-34.11 -30.86,-51.97 -31.67,-79.58 0,-19.49 -4.06,-44.67 -8.12,-56.03 -9.75,-25.18 -46.28,-64.97 -60.9,-64.97 -13,0 -26.8,25.99 -26.8,49.54 0,10.56 -8.94,28.42 -20.3,39.79 -24.36,25.17 -26.8,41.42 -17.05,116.94 6.5,50.35 5.68,57.66 -8.12,67.4 -18.68,12.99 -63.34,13.8 -74.71,0 -15.43,-19.49 -27.62,-100.7 -33.3,-233.07 -4.06,-73.9 -9.75,-140.5 -12.99,-148.61 -8.93,-20.3 -29.23,-29.24 -50.35,-21.11 -20.3,7.3 -21.11,7.3 -21.93,76.33 -1.63,41.42 -7.3,59.28 -40.6,120.18 -46.29,84.46 -56.04,95.01 -86.08,95.01 -25.17,0 -47.1,-21.93 -64.96,-64.15 -13,-33.29 -6.5,-47.1 30.04,-63.34 48.73,-21.92 67.4,-42.22 67.4,-73.9 0,-54.41 -46.28,-115.31 -87.7,-115.31 -21.93,0 -31.68,13.8 -42.23,60.9 -12.99,57.66 -27.61,77.14 -58.47,77.14 -18.68,0 -33.3,-8.12 -56.85,-32.48 -43.85,-47.09 -41.42,-64.15 20.3,-129.12 55.22,-59.28 75.52,-93.39 83.64,-144.55 4.07,-28.42 1.63,-35.73 -18.67,-59.28 -18.68,-21.12 -30.05,-26.81 -56.85,-27.62 -38.98,-0.82 -60.9,15.43 -85.27,64.15 -43.85,86.89 -87.71,91.77 -137.24,13.81 -12.99,-20.3 -23.55,-43.85 -23.55,-51.16 0,-8.12 17.05,-29.23 38.17,-47.91l38.97 -34.11 -47.09 -43.85c-43.86,-41.42 -47.1,-47.1 -41.42,-70.65 11.37,-54.41 51.97,-103.13 84.46,-103.13 8.12,0 27.62,17.05 44.67,37.35 37.35,45.48 61.72,56.03 91.76,40.6 25.99,-12.99 58.47,-67.4 58.47,-95.82 0,-26.8 -14.62,-38.17 -107.19,-82.83 -91.77,-44.67 -133.99,-85.27 -159.98,-154.3 -35.73,-95.83 -63.34,-134.8 -96.64,-134.8 -10.56,0 -41.42,5.68 -68.21,12.18 -25.99,7.31 -66.6,13.8 -88.52,14.62 -47.92,1.63 -64.15,-12.99 -64.15,-56.85l0 -26.8 4305.6 0 4304.79 0 -17.87 19.49 0 -0.01zm-5793.32 1120.66c179.47,38.17 296.41,117.75 355.69,242.81 29.23,60.09 56.84,175.4 45.48,186.77 -3.25,3.25 -65.78,4.88 -138.86,4.06l-132.37 -2.43 -12.99 -44.67c-17.87,-64.96 -75.52,-120.99 -146.17,-142.11 -67.4,-20.3 -181.9,-21.11 -244.43,-1.63 -52.79,15.43 -103.13,55.22 -118.57,91.76 -29.23,69.84 -2.43,152.67 56.85,181.9 18.68,8.94 142.92,43.86 276.92,77.96 343.5,86.89 412.53,122.62 471.82,243.62 27.6,55.22 30.85,68.21 34.1,143.74 5.69,135.61 -28.42,238.75 -108,321.57 -52.79,55.22 -122.62,93.39 -235.5,128.31 -68.21,20.3 -82.83,21.92 -219.26,22.74 -168.91,0 -221.7,-10.56 -350.01,-73.09 -119.38,-57.66 -191.65,-149.42 -219.26,-278.54 -5.69,-30.04 -11.37,-66.59 -11.37,-81.2l0 -25.99 137.24 0 137.24 0 5.69 30.05c15.43,84.46 72.27,150.24 151.85,176.22 123.44,40.61 318.33,17.06 387.36,-46.28 44.66,-40.61 62.53,-127.5 37.35,-176.22 -27.62,-53.6 -85.27,-76.34 -376.81,-150.24 -298.03,-74.71 -361.37,-109.63 -419.84,-228.2 -28.42,-56.03 -30.86,-67.4 -34.11,-147.79 -4.06,-101.52 5.69,-160.79 38.98,-227.39 60.09,-118.56 167.29,-190.02 341.08,-224.94 72.27,-14.62 221.69,-14.62 289.91,-0.81l0 0zm1429.25 4.06c94.2,19.49 208.7,73.08 275.29,129.12 84.46,69.83 161.6,207.08 168.1,298.03l1.63 24.36 -138.05 0 -137.24 0 -26.8 -47.91c-60.09,-106.38 -117.75,-150.23 -226.57,-172.97 -169.72,-34.93 -331.32,46.28 -406.03,204.63 -46.29,96.64 -62.53,172.16 -62.53,292.35 0,211.95 69.84,366.25 195.71,432.84 91.77,48.72 218.45,64.96 307.77,38.17 115.32,-34.11 208.7,-140.5 242.81,-276.11l4.87 -20.3 -163.22 0 -163.23 0 0 -117.75 0 -117.75 287.47 0c254.19,0 288.29,1.63 292.35,12.99 2.43,7.31 4.88,172.16 4.88,367.87 0,265.55 -2.43,357.31 -9.75,364.62 -12.18,12.18 -173.78,13.8 -181.09,1.63 -2.43,-4.06 -10.56,-39.8 -17.05,-78.77 -6.5,-39.79 -13.8,-75.53 -15.43,-81.21 -1.63,-5.68 -25.99,13.81 -54.41,43.86 -63.34,66.59 -116.93,101.51 -198.95,129.92 -59.28,21.11 -72.27,22.74 -189.22,21.93 -114.5,0 -131.55,-2.43 -190.83,-21.93 -179.47,-60.09 -314.28,-185.15 -382.48,-354.88 -50.35,-122.62 -69.03,-261.48 -58.47,-423.9 23.55,-361.37 233.07,-609.05 554.65,-655.35 86.89,-12.17 206.27,-9.74 285.85,6.5l0 0zm1423.56 -6.5c77.14,12.18 191.65,51.97 253.36,88.52 201.4,119.38 301.29,331.32 301.29,637.48 0,255.8 -67.4,440.95 -208.7,570.07 -178.66,163.23 -479.94,211.14 -729.24,115.31 -283.42,-109.62 -427.97,-390.6 -397.11,-773.09 21.11,-258.24 120.18,-440.14 298.04,-548.96 127.49,-77.14 326.45,-114.5 482.37,-89.33l0 0zm1695.6 151.04l-2.43 120.18 -204.64 2.43c-112.88,0.82 -206.27,2.43 -207.08,4.06 -1.63,0.82 -4.07,259.05 -6.5,574.14l-4.07 572.51 -138.05 0 -138.05 0 -4.06 -572.51 -4.06 -572.52 -207.08 -4.06 -207.08 -4.06 -2.43 -120.18 -2.43 -119.37 565.2 0 565.2 0 -2.43 119.37 -0.01 0zm886.79 -111.25c156.72,20.3 280.16,129.93 320.77,284.23 17.05,61.72 18.68,194.89 4.87,255.8 -25.98,108.81 -110.45,216.82 -206.27,263.11 -73.9,36.55 -167.29,49.54 -388.99,55.22l-193.27 4.87 0 263.12 0 262.3 -139.68 -1.63 -140.49 -2.43 -2.43 -696.76 -1.63 -695.94 342.69 0c189.22,0 371.11,4.06 404.41,8.12l0.01 0z"/>
 </g>
</svg>
