<?xml version="1.0" encoding="UTF-8"?>
<!DOCTYPE svg PUBLIC "-//W3C//DTD SVG 1.1//EN" "http://www.w3.org/Graphics/SVG/1.1/DTD/svg11.dtd">
<!-- Creator: CorelDRAW 2020 (64-Bit) -->
<svg xmlns="http://www.w3.org/2000/svg" xml:space="preserve" width="112.862mm" height="87.3499mm" version="1.1" style="shape-rendering:geometricPrecision; text-rendering:geometricPrecision; image-rendering:optimizeQuality; fill-rule:evenodd; clip-rule:evenodd"
viewBox="0 0 235946.93 182611.87"
 xmlns:xlink="http://www.w3.org/1999/xlink"
 xmlns:xodm="http://www.corel.com/coreldraw/odm/2003">
 <defs>
  <style type="text/css">
   <![CDATA[
    .fil0 {fill:#FEFEFE}
   ]]>
  </style>
 </defs>
 <g id="Layer_x0020_1">
  <metadata id="CorelCorpID_0Corel-Layer"/>
  <path class="fil0" d="M212970.63 155312.46l66.69 5404.77 4181.58 -44.53c4871.05,-44.53 6250.2,-266.76 7562.46,-1245.57 1445.64,-1089.82 1979.57,-2335.59 1890.51,-4404.01 -44.53,-1401.32 -177.91,-1846.19 -689.47,-2602.35 -822.85,-1245.57 -2046.47,-2024.1 -3625.48,-2268.7 -711.84,-133.38 -3136.29,-222.44 -5382.61,-222.44l-4048.2 0 44.53 5382.61 0 0.21zm-63857.78 -5916.55c-3603.32,978.6 -6116.62,3736.7 -7295.49,8096.19 -289.13,1089.82 -400.35,2290.86 -400.35,5004.43 0,3914.82 266.97,5315.92 1445.84,7851.8 1245.57,2646.67 3870.08,4759.62 6694.87,5382.4 711.84,155.75 2046.26,244.81 3025.07,177.91 4381.64,-244.6 7784.69,-3380.68 9119.31,-8407.47 556.09,-2046.26 556.09,-7984.97 0,-10009.07 -1201.04,-4426.17 -3670.01,-7139.95 -7384.34,-8118.35 -1623.75,-422.72 -3625.69,-400.55 -5204.91,22.16l0 0zm80117.05 -47709.94c-778.53,222.44 -978.81,778.53 -378.19,1023.13 533.93,200.28 1423.48,-311.29 1423.48,-822.85 0,-489.4 -22.16,-489.4 -1045.29,-200.28zm-15414.05 -1601.38c-511.56,1000.97 -111.22,2691.2 645.15,2691.2 578.25,0 1134.35,-711.63 1134.35,-1467.8 0,-1334.63 -1245.78,-2202.01 -1779.29,-1223.41l-0.21 0zm-24422.14 -155.75c-467.04,467.04 -289.13,622.78 734,622.78 556.09,0 1000.97,-88.85 1000.97,-177.91 0,-333.66 -533.72,-711.84 -1000.97,-711.84 -266.97,0 -578.25,111.43 -734,266.97zm-17037.59 89.06c-400.35,400.35 -467.04,1690.44 -133.38,2335.39 511.56,934.28 1779.29,133.38 1779.29,-1134.35 0,-667.31 -555.88,-1557.06 -1000.97,-1557.06 -155.54,0 -467.04,155.75 -644.94,356.03l0 0zm-18327.69 -89.06c-467.04,467.04 -289.13,622.78 734,622.78 556.09,0 1000.97,-88.85 1000.97,-177.91 0,-333.66 -533.93,-711.84 -1000.97,-711.84 -266.76,0 -578.25,111.43 -734,266.97zm-20218.41 1757.13c-778.32,222.44 -978.6,778.53 -377.98,1023.13 533.93,200.28 1423.48,-311.29 1423.48,-822.85 0,-489.4 -22.16,-489.4 -1045.5,-200.28zm-14257.33 -1757.13c-467.04,467.04 -289.13,622.78 734.21,622.78 555.88,0 1000.76,-88.85 1000.76,-177.91 0,-333.66 -533.93,-711.84 -1000.76,-711.84 -266.97,0 -578.46,111.43 -734.21,266.97zm-30694.51 0c-467.04,467.04 -288.92,622.78 734.21,622.78 555.88,0 1000.76,-88.85 1000.76,-177.91 0,-333.66 -533.72,-711.84 -1000.76,-711.84 -266.97,0 -578.25,111.43 -734.21,266.97zm-16659.41 1757.13c-778.53,222.44 -978.6,778.53 -378.19,1023.13 533.93,200.28 1423.68,-311.29 1423.68,-822.85 0,-489.4 -22.37,-489.4 -1045.5,-200.28zm-24488.83 -1757.13c-467.04,467.04 -289.13,622.78 734,622.78 556.09,0 1000.97,-88.85 1000.97,-177.91 0,-333.66 -533.93,-711.84 -1000.97,-711.84 -266.76,0 -578.25,111.43 -734,266.97zm-11788.57 0c-467.04,467.04 -288.92,622.78 734.21,622.78 555.88,0 1000.76,-88.85 1000.76,-177.91 0,-333.66 -533.72,-711.84 -1000.76,-711.84 -266.97,0 -578.25,111.43 -734.21,266.97zm76714.01 44.53c-422.72,489.4 -222.44,2379.92 266.97,2669.04 333.66,200.28 489.2,155.75 845.01,-289.13 511.77,-622.78 556.09,-1534.69 66.9,-2202.01 -378.19,-556.09 -800.9,-622.78 -1178.88,-177.91zm-30694.51 0c-422.51,489.4 -222.44,2379.92 266.97,2669.04 333.66,200.28 489.4,155.75 845.22,-289.13 511.56,-622.78 556.09,-1534.69 66.69,-2202.01 -377.98,-556.09 -800.69,-622.78 -1178.88,-177.91zm-64747.53 111.22c-533.72,1023.13 -111.22,2691.2 667.31,2691.2 533.93,0 889.75,-622.57 889.75,-1556.85 0,-934.28 -355.82,-1556.85 -889.75,-1556.85 -244.6,0 -533.93,200.07 -667.31,422.51l0 0zm82897.31 -2379.92c-1267.73,978.6 -978.6,4404.01 422.72,4759.83 1245.57,311.29 1912.88,-711.63 1801.45,-2735.73 -88.85,-1957.41 -1089.82,-2869.32 -2224.17,-2024.1l0 0zm-46909.04 -97243.7c266.76,0 289.13,66.69 88.85,266.97 -378.19,378.19 -333.66,1023.13 177.91,2624.51 244.81,756.16 444.88,1912.88 444.88,2557.82 0,1846.19 1112.19,4626.45 1445.84,3603.32 377.98,-1201.04 355.82,-1178.88 622.78,-667.1 311.29,689.47 600.62,644.94 600.62,-111.43 0,-333.45 88.85,-734 200.07,-889.54 200.28,-333.66 467.04,1178.67 467.04,2713.57 0,822.85 133.59,1045.29 1223.41,2135.32 1601.38,1556.85 2402.08,2846.95 3358.72,5271.4 711.63,1779.29 1467.8,2958.17 1912.67,2958.17 378.19,0 1067.66,-1468 1067.66,-2291.07 0,-444.88 111.22,-822.85 222.44,-822.85 133.59,0 222.44,400.35 222.44,889.54 0,667.31 155.54,1067.66 689.47,1668.28 378.19,422.72 778.53,778.53 889.75,778.53 111.22,0 200.07,-400.35 200.07,-889.75 0,-467.04 200.28,-1379.15 444.88,-2001.73 244.81,-622.78 444.88,-1601.59 467.04,-2179.85 0,-778.53 66.9,-934.28 200.28,-600.41 111.22,244.6 200.07,778.32 200.07,1178.67 22.37,400.35 177.91,1045.5 378.19,1423.68 200.28,377.98 378.19,1401.11 422.72,2313.02 66.69,1490.37 355.82,2535.66 1445.64,5138.02 111.43,289.34 355.82,511.77 533.93,511.77 289.13,0 289.13,88.85 0,778.32 -200.07,489.4 -311.5,1534.69 -311.5,2869.32 0,2424.24 111.43,2579.98 1890.72,2579.98 956.23,0 1023.13,22.37 867.38,489.4 -422.72,1401.32 -756.16,1957.2 -1178.88,1957.2 -978.6,0 -1201.04,1423.68 -711.84,4648.82 244.81,1690.44 222.44,1890.51 -133.38,2290.86 -377.98,422.72 -400.35,1178.88 -467.04,10164.81 -89.06,8385.31 -44.53,10031.23 289.13,12211.07 378.19,2357.55 378.19,2513.29 22.37,2780.26 -311.5,222.44 -356.03,556.09 -311.5,1712.6 66.69,1356.79 111.22,1468 734,1757.13 355.82,177.91 800.69,489.4 1000.97,711.84 177.91,222.44 756.16,467.04 1289.89,556.09 845.43,133.38 934.28,111.01 934.28,-311.5 0,-244.81 -88.85,-711.84 -222.44,-1045.5 -133.38,-377.98 -133.38,-1111.98 0,-2179.64 177.91,-1156.72 155.75,-2202.01 -22.16,-3714.54 -244.81,-2046.26 -289.13,-2135.32 -1156.72,-2936.01 -600.41,-578.25 -778.32,-867.38 -578.25,-934.07 177.91,-44.53 667.31,-200.28 1112.19,-356.03l800.69 -244.6 155.75 -2024.1c66.69,-1112.19 133.38,-3202.98 133.38,-4648.61 0,-2580.19 22.16,-2646.88 556.09,-3002.91 756.16,-489.2 911.91,-1245.36 422.72,-2068.42 -356.03,-622.78 -356.03,-711.84 -44.53,-1067.66 200.07,-222.44 422.51,-911.91 511.56,-1534.69 111.22,-934.07 289.13,-1290.1 911.91,-1823.82 556.09,-489.4 756.16,-867.38 756.16,-1356.79 0,-511.56 111.22,-689.68 400.35,-689.68 222.44,0 600.41,-222.23 867.38,-511.36 244.81,-266.97 756.16,-756.37 1134.56,-1090.03 444.67,-400.35 644.94,-733.79 555.88,-1023.13 -133.38,-555.88 489.4,-800.69 911.91,-355.82 177.91,177.91 289.34,467.04 222.44,622.78 -155.54,400.35 2246.54,2446.6 2691.41,2291.07 222.44,-111.43 355.82,88.85 467.04,622.78 66.69,422.51 266.97,778.32 400.35,778.32 600.62,0 1223.41,1290.1 1334.63,2691.41 66.69,1134.35 177.91,1468 555.88,1734.76 333.87,200.28 467.24,533.93 467.24,1112.19 0,600.62 155.54,978.81 555.88,1356.79 311.5,289.13 511.56,667.31 467.04,823.06 -88.85,200.07 89.06,289.13 533.93,289.13l667.31 0 0 -1557.06c0,-1490.16 22.16,-1556.85 667.31,-1890.51 377.98,-200.07 667.1,-489.2 667.1,-667.1 0,-177.91 155.75,-333.87 356.03,-333.87 578.05,0 222.23,-1979.57 -489.4,-2557.82 -622.78,-533.72 -689.68,-778.32 -200.28,-778.32 756.16,0 1201.04,-823.06 1178.88,-2157.48 -44.53,-1534.9 422.72,-2580.19 1378.95,-3069.39 667.31,-356.03 823.06,-711.84 934.28,-2113.16 66.69,-644.94 155.54,-778.32 578.25,-778.32 311.5,0 911.91,-422.72 1579.22,-1112.19 578.25,-622.78 1334.42,-1290.1 1668.07,-1512.53 489.4,-333.66 578.46,-533.93 467.04,-1023.13 -88.85,-444.88 0,-711.84 333.87,-1023.13 644.94,-600.62 1178.67,-200.28 1356.58,978.6 133.59,956.44 378.19,1356.79 911.91,1423.48 155.75,44.53 800.9,578.25 1423.68,1223.41 1223.41,1267.73 1579.22,1401.32 1690.23,644.94 66.9,-333.66 200.28,-111.22 489.4,845.43 533.93,1712.6 556.09,1779.29 911.91,1312.26 244.81,-333.87 289.34,-289.34 422.72,422.51 89.06,489.4 355.82,956.44 667.31,1156.72 600.41,400.35 1111.98,1378.95 800.69,1556.85 -200.28,111.22 -133.59,1423.48 133.38,2691.2 44.53,266.97 378.19,600.62 756.16,756.37 356.03,155.54 667.31,311.29 667.31,355.82 0,44.53 -244.81,444.88 -555.88,889.75 -645.15,956.23 -667.31,1334.42 -200.28,5760.59 177.91,1712.81 378.19,3558.79 422.51,4114.89 44.53,556.09 89.06,1067.66 89.06,1156.72 22.16,66.48 511.56,311.29 1134.35,511.36 600.62,200.28 1156.51,444.88 1201.04,511.56 133.59,222.44 -578.25,1045.5 -1156.51,1356.99 -378.19,200.07 -489.2,444.88 -467.04,978.39 22.16,400.55 -44.53,889.75 -133.59,1090.03 -222.44,556.09 489.4,800.69 2847.16,956.44 1512.53,111.01 2001.73,244.6 2224.17,555.88 311.5,444.88 2024.1,978.81 2513.5,800.9 200.07,-89.06 311.29,-489.4 311.29,-1245.78 0,-1023.13 111.22,-1245.57 1468,-3002.7 1668.07,-2157.48 2357.76,-2758.1 4159.42,-3536.42l1245.57 -556.09 -133.59 -1468c-133.38,-1445.84 -111.22,-1490.16 600.62,-2224.17l734 -756.16 956.44 667.1c911.91,622.78 978.6,734 978.6,1668.28 0,1111.98 311.5,1868.14 756.16,1868.14 155.75,0 889.75,311.5 1645.91,689.68 978.81,489.2 1846.19,1201.04 3047.23,2491.13l1690.65 1823.82 -133.59 1579.22c-222.44,2179.64 0,2313.23 3380.88,2313.23 2846.95,0 3314.19,-133.59 4648.61,-1290.1 511.56,-467.04 1334.63,-978.6 1823.82,-1111.98 622.99,-200.28 4137.26,-266.97 12099.85,-266.97 13300.89,0 13901.51,-66.69 19195.28,-2001.94 2001.73,-734 2735.73,-533.72 5493.83,1490.16 3625.48,2646.88 3136.08,2513.5 9008.1,2513.5 2780.26,0 6783.93,111.22 8852.56,222.44 3714.33,222.44 3847.92,244.6 7451.03,1423.48 4026.04,1334.63 7073.27,2024.1 10609.69,2424.44 2179.85,244.81 2646.88,200.28 8696.81,-578.25 3514.26,-467.04 6606.02,-823.06 6872.78,-823.06 578.46,0 711.84,533.93 1490.37,6050.14 800.69,5538.36 1067.45,8696.6 1089.82,13323.05l44.53 4092.73 -117973.47 66.48 -117973.47 44.53 133.38 -4270.43c133.59,-4092.52 645.15,-9564.19 1379.15,-14635.52 467.04,-3202.77 1912.67,-10053.59 2202.01,-10431.57 266.76,-356.03 1178.67,-244.81 5716.27,667.1 3024.86,600.62 3514.26,645.15 6450.27,511.77 2446.6,-89.06 3625.48,-44.53 4959.9,222.44 1801.66,355.61 2135.32,333.66 2135.32,-200.28 0,-333.66 934.28,-2202.01 1378.95,-2735.94 222.44,-266.76 645.15,-289.13 2224.38,-177.91 2224.17,177.91 2246.54,155.75 2513.5,-1823.82 155.54,-1112.19 578.05,-1935.04 2090.58,-3959.14 289.13,-400.35 578.46,-1023.13 667.31,-1401.11 200.07,-978.81 533.93,-956.65 734,44.32 89.06,467.04 578.25,1445.84 1089.82,2179.85 1245.78,1823.82 1534.9,2646.88 1534.9,4159.21 0,1423.48 355.82,2135.32 1023.13,2001.94 422.72,-66.69 422.72,-333.66 333.66,-10520.84 -44.53,-6183.31 -155.75,-10564.95 -289.13,-10720.7 -111.22,-133.59 -422.72,-289.13 -689.47,-333.66 -311.5,-44.53 -533.93,-289.13 -622.99,-734 -88.85,-378.19 -222.44,-867.38 -311.29,-1112.19 -89.06,-355.82 44.53,-533.72 711.84,-889.54l845.22 -445.08 0 -2557.82c0,-2313.02 44.53,-2624.51 489.2,-3202.77 622.78,-778.53 911.91,-1734.97 1201.04,-4025.83 111.43,-978.81 356.03,-2424.44 533.93,-3225.35 177.91,-800.69 355.82,-1690.44 400.35,-2001.73 89.06,-467.04 111.22,-422.72 133.59,155.75 0,377.98 111.01,756.16 200.07,822.85 289.13,177.91 1112.19,-1823.82 1290.1,-3091.55l155.75 -1112.19 266.76 1267.73c133.38,711.84 444.88,1490.16 667.31,1734.97 222.44,244.6 467.04,889.75 533.72,1401.32 89.06,600.41 266.97,956.44 489.4,1000.97 511.56,88.85 2357.55,-3936.98 2846.95,-6227.83 311.5,-1423.68 422.72,-1734.97 556.09,-1356.99 222.44,689.68 578.46,645.15 1623.75,-266.76 1000.97,-845.22 1290.1,-1512.53 1512.53,-3447.57 66.69,-667.31 266.76,-1468 444.88,-1779.5l289.13 -555.88 489.4 1089.82 467.04 1112.19 467.04 -489.4c400.35,-400.35 511.56,-845.22 644.94,-2646.88 66.69,-1201.04 244.81,-2468.97 400.55,-2802.63 288.92,-756.16 333.45,-2313.02 44.53,-2468.76 -111.43,-89.06 -89.06,-378.19 44.32,-689.47 177.91,-378.19 289.13,-444.88 333.66,-222.44 44.53,177.91 244.81,333.66 444.88,333.66l0 0.21zm164749.13 24911.55c4893.21,7784.69 5182.34,8452 3603.11,8452 -400.35,0 -2579.98,111.22 -4848.89,244.81 -3247.3,177.91 -4515.02,333.66 -6138.78,800.69l-2046.26 578.25 -2291.07 -533.72c-2869.11,-667.31 -5204.71,-667.31 -7584.62,-22.37 -2157.48,600.62 -2824.79,600.62 -3981.3,22.37 -1579.22,-800.9 -2246.54,-689.68 -4003.67,711.63l-578.25 489.4 -1089.82 -533.93c-2046.47,-1023.13 -3825.76,-622.78 -7228.8,1601.59 -2446.81,1623.54 -3803.39,1979.36 -7317.86,1979.36l-2869.11 0 244.6 -600.41c355.82,-978.6 845.22,-1356.79 2068.63,-1712.6 1401.11,-422.72 2513.29,-1312.26 3558.58,-2869.32 422.72,-667.31 1067.66,-1312.26 1401.32,-1468 956.44,-378.19 8340.99,-1979.57 10854.29,-2335.59 1223.41,-177.91 3136.29,-377.98 4226.11,-467.04 3113.92,-222.44 4003.67,-466.83 4715.3,-1378.95 1490.37,-1890.51 2024.1,-2246.33 4181.58,-2958.17 1178.88,-355.82 2246.54,-667.31 2402.28,-667.31 155.75,0 823.06,-155.75 1445.84,-333.66 1356.79,-400.35 2557.61,-1401.32 3180.61,-2579.98 333.66,-645.15 622.78,-889.75 1267.73,-1067.66 1312.26,-333.66 1868.35,-422.72 2802.63,-378.19l867.38 22.37 3158.24 5004.43 0.21 0zm-203139.47 9586.35c2446.6,1378.95 3714.33,2424.44 5071.33,4137.26 1935.04,2468.76 2402.08,2735.73 5649.37,3358.52 1512.53,289.13 2513.5,978.6 3625.69,2513.29 845.22,1178.88 1067.45,1267.73 4070.36,1779.5 911.91,155.54 1801.45,377.98 1957.2,489.2 177.91,133.38 266.76,956.44 266.76,2669.04l0 2446.81 -578.05 -533.93c-711.84,-667.31 -1201.25,-1579.22 -1201.25,-2246.54 0,-845.22 -600.41,-1512.32 -1378.95,-1512.32 -889.75,0 -1512.53,555.88 -1512.53,1334.42 0,355.82 -333.66,1090.03 -778.53,1690.44 -1156.51,1601.59 -1712.6,2735.94 -2001.73,3981.3l-266.97 1112.19 -1690.44 -89.06 -1712.6 -66.48 -845.22 867.38c-444.88,467.04 -978.6,1156.51 -1178.88,1534.69l-355.82 667.31 -4581.92 44.53c-4470.7,44.53 -4648.61,22.16 -8162.87,-734 -1979.57,-422.72 -3936.98,-778.53 -4359.48,-778.53 -422.51,0 -756.16,-111.22 -756.16,-244.81 0,-422.51 1267.73,-4626.45 2335.59,-7762.53 1334.42,-3892.45 2957.96,-7873.75 4604.08,-11343.69 734,-1534.69 1467.8,-3113.92 1645.91,-3514.26 177.91,-377.98 355.82,-711.84 400.35,-711.84 44.53,0 823.06,422.72 1734.97,912.12l-0.21 0zm209456.16 1468c1112.19,2246.54 2958.38,6494.8 4026.04,9297.43 1023.13,2691.2 2491.13,7050.69 2402.08,7117.59 -66.69,66.48 -10809.76,1045.29 -16970.9,1556.85 -2202.01,177.91 -6694.87,400.35 -10009.07,467.04 -5671.74,111.22 -6094.46,111.22 -7673.47,-333.66 -4181.58,-1201.04 -6361.42,-1468 -14012.73,-1801.45 -2958.17,-133.59 -5293.76,-333.87 -6094.46,-556.3 -1935.04,-511.36 -3758.86,-1556.85 -5582.68,-3224.93 -1912.88,-1734.97 -3447.57,-2602.35 -6583.86,-3692.38 -4626.45,-1601.38 -4959.9,-1846.19 -3002.7,-2201.8 489.4,-66.9 1534.9,-467.24 2335.39,-889.75 2535.87,-1267.94 3514.47,-1445.84 8696.81,-1668.28 2624.72,-111.22 5293.76,-266.76 5916.55,-333.66 1245.57,-155.54 3314.19,-1045.29 4871.05,-2112.95 1267.73,-867.38 3647.64,-2001.94 4226.11,-2001.94 244.6,0 978.6,244.81 1623.54,556.09 1601.59,734 2113.16,711.84 3136.29,-222.44 978.6,-889.54 1557.06,-956.44 2936.01,-333.66 1267.73,556.09 2246.54,556.09 4359.48,-22.37 2246.54,-622.57 4871.05,-622.57 7273.33,0 2268.7,600.62 2757.89,578.46 4781.99,-111.01 1668.07,-578.46 4359.48,-867.38 9697.57,-1045.5 1112.19,-44.53 2179.85,-88.85 2379.92,-111.22 289.34,-22.16 645.15,444.88 1267.94,1668.07l-0.21 0.21zm-95597.58 1312.26c1846.19,1156.72 2891.48,1223.41 4737.67,333.87 1356.79,-645.15 1534.69,-689.47 2468.97,-444.88 667.1,177.91 1512.32,200.07 2402.08,88.85 1935.04,-266.97 3603.32,-200.07 6939.68,222.44 3469.73,444.88 6539.12,1201.25 8029.5,1957.2 600.62,311.5 1801.66,1290.1 2646.88,2157.48 2024.1,2046.47 3313.99,2802.63 7228.8,4226.11 3870.08,1379.15 4537.39,1757.13 6628.18,3625.69 3247.3,2936.01 5226.87,3647.64 10898.61,3936.77 9431.02,533.93 10587.53,645.15 13256.57,1334.63 3847.92,978.6 5849.86,1156.72 10965.51,889.75 6472.43,-333.66 10231.5,-600.62 18505.6,-1356.79 6072.3,-533.93 7495.77,-600.62 7695.84,-378.19 422.72,467.04 2468.97,8808.03 2224.38,9052.63 -133.59,111.43 -3292.03,578.46 -7050.9,1045.5 -6450.27,800.69 -6939.68,823.06 -8785.87,578.25 -3714.33,-533.93 -6427.9,-1178.88 -10053.39,-2402.08 -3625.69,-1223.41 -3647.85,-1223.41 -7562.46,-1445.84 -2157.48,-133.38 -6205.67,-244.81 -8985.94,-244.81l-5093.49 -22.16 -2135.11 -1512.53c-3692.38,-2602.35 -4003.67,-2757.89 -5382.82,-2735.73 -734,22.16 -2024.1,289.13 -3225.14,711.63 -4314.96,1468 -4137.05,1445.84 -17615.85,1512.53 -13523.54,66.69 -13056.29,22.16 -14680.05,1512.53 -1178.67,1045.5 -1579.22,1156.51 -4181.58,1156.51 -2468.76,-22.16 -2290.86,133.59 -1979.57,-1757.13 111.22,-689.47 22.37,-1000.76 -467.04,-1712.6 -1045.5,-1512.32 -3914.61,-4092.52 -5271.4,-4737.67 -1267.73,-578.25 -1290.1,-600.41 -1290.1,-1534.69 0,-556.09 -177.91,-1156.51 -400.35,-1445.84 -489.2,-600.62 -2468.76,-1845.98 -2958.17,-1845.98 -200.07,0 -889.75,555.88 -1534.69,1245.36l-1156.72 1223.41 133.59 1156.72 155.75 1156.51 -1178.88 644.94c-2135.32,1201.25 -4937.95,4404.01 -5849.86,6739.61 -22.16,44.53 -556.09,-133.59 -1178.88,-378.19 -644.94,-244.6 -1712.6,-444.88 -2379.71,-444.88 -1112.19,0 -1223.62,-44.53 -1223.62,-467.04 0,-266.97 400.55,-911.91 889.75,-1445.84 489.4,-533.72 889.75,-1112.19 889.75,-1290.1 0,-444.67 -578.25,-867.38 -1757.13,-1267.73 -956.23,-333.66 -1023.13,-400.35 -1201.04,-1334.42 -311.5,-1890.72 -578.25,-4559.76 -645.15,-6428.11 -66.69,-1757.13 -22.16,-1957.41 556.09,-2824.79 756.16,-1089.82 667.31,-1690.44 -289.13,-2113.16 -823.06,-355.82 -1045.29,-867.38 -511.56,-1245.57 2224.17,-1579.22 1779.29,-1468 6739.4,-1623.75 5182.55,-155.54 5872.02,-311.29 8452.21,-1868.14 911.91,-533.93 1801.66,-1000.97 1957.2,-1000.97 177.91,0 889.75,355.82 1623.75,800.69l-0.21 0zm-52536.46 5627.42c-244.6,467.04 -511.56,1245.57 -578.25,1712.6 -66.69,489.4 -378.19,1156.51 -667.31,1490.37 -622.78,755.95 -622.78,755.95 -66.69,1601.38 422.72,645.15 422.72,645.15 -44.53,1178.67 -600.41,622.99 -822.85,2313.43 -822.85,6405.95 -22.37,3136.08 -133.59,3425.41 -1178.88,3425.41l-622.78 0 22.16 -3848.13c22.37,-2090.79 89.06,-5782.96 177.91,-8162.87l133.59 -4337.32 1000.76 -133.38c556.09,-66.69 1468,-155.75 2046.47,-155.75l1067.66 -44.53 -467.24 867.38 0 0.21zm14457.61 889.75c378.19,467.04 689.47,956.23 689.47,1045.29 0,111.22 -333.66,600.62 -756.16,1067.66l-734 889.75 -600.62 -600.62c-422.51,-422.51 -578.25,-800.69 -578.25,-1468 0,-489.2 -66.69,-1023.13 -133.38,-1201.04 -111.43,-333.66 222.23,-511.56 1067.45,-578.25 200.28,0 667.31,378.19 1045.5,845.22l0 0zm-17349.09 18905.94c622.78,1223.41 734,2357.76 444.88,4137.05 -311.29,1957.41 -400.35,2135.32 -1067.66,1957.41 -444.88,-111.22 -489.4,-200.28 -311.29,-934.28 222.44,-1045.29 222.44,-4047.99 0,-5449.3 -178.12,-1023.34 -155.75,-1089.82 177.91,-800.69 200.28,155.54 556.09,667.1 756.16,1089.82l0 0zm-67082.92 33385.71c333.66,378.19 600.41,800.9 600.41,978.81 0,578.25 -1779.29,778.32 -2224.17,244.6 -355.82,-422.51 -1201.04,-422.51 -1556.85,0 -400.55,467.04 -155.75,645.15 1423.48,1112.19 1734.97,489.2 2579.98,1312.26 2579.98,2535.66 0,1756.92 -800.69,2624.51 -2624.51,2846.95 -1556.85,177.91 -2869.32,-244.6 -3380.88,-1111.98 -667.1,-1090.03 -578.25,-1423.68 444.88,-1601.59 800.69,-133.38 956.44,-89.06 1356.79,422.72 533.72,689.47 1623.75,800.69 1957.41,200.07 355.82,-644.94 -111.22,-1112.19 -1445.84,-1512.53 -1668.07,-489.2 -2535.66,-1334.42 -2535.66,-2513.29 0,-1712.6 1267.73,-2557.82 3558.79,-2379.92 1023.13,66.69 1334.42,200.07 1846.19,778.53l0 -0.21zm24844.65 -600.41c711.84,244.6 1779.29,1579.22 1490.37,1868.35 -89.06,66.69 -556.09,200.07 -1090.03,289.13 -800.69,155.54 -1000.97,111.22 -1245.57,-244.81 -311.29,-467.04 -1156.51,-555.88 -1823.82,-200.07 -1000.97,533.72 -1134.35,3536.42 -200.28,4470.7 778.53,778.32 2646.88,311.29 2646.88,-711.84 0,-333.66 -155.75,-422.51 -778.53,-422.51 -756.16,0 -778.32,-22.37 -778.32,-889.75l0 -889.75 1779.29 0 1801.66 0 -66.69 1935.04 -66.69 1957.41 -1000.97 556.09c-1378.95,756.16 -3781.23,800.69 -4804.36,66.69 -1045.5,-756.16 -1534.69,-1912.88 -1512.53,-3736.7 0,-2913.85 1267.94,-4292.79 3981.51,-4315.16 489.2,0 1245.57,111.22 1668.07,266.97l0 0.21zm72043.03 333.66c2112.95,1512.53 2068.42,5938.71 -44.53,7473.4 -489.4,355.82 -956.44,467.04 -2112.95,467.04 -1712.81,0 -2424.44,-355.82 -3202.98,-1645.91 -689.47,-1112.19 -734,-3714.54 -44.53,-5026.8 644.94,-1290.1 2024.1,-1957.41 3625.48,-1801.66 667.31,66.69 1468,289.13 1779.5,533.72l0 0.21zm-86055.76 956.23c0,1201.25 44.53,1334.63 400.35,1201.25 1868.56,-823.06 3380.88,355.82 3380.88,2624.51 0,2602.35 -1801.66,4092.52 -3425.41,2802.63 -467.04,-378.19 -578.25,-400.35 -578.25,-111.22 0,266.76 -222.44,355.82 -889.54,355.82l-889.75 0 0 -4114.89 0 -4114.89 1000.97 0 1000.76 0 0 1356.79 0 0zm51379.95 -467.04l0 889.75 -1000.76 0 -1001.18 0 0 -889.75 0 -889.54 1001.18 0 1000.76 0 0 889.54zm17126.65 3225.35l0 4114.68 -1000.97 0c-555.88,0 -1000.76,-88.85 -1000.76,-200.07 0,-133.59 -266.97,-66.69 -600.62,111.22 -934.28,467.04 -1534.9,377.98 -2335.39,-333.66 -645.15,-556.09 -711.84,-778.53 -800.9,-2113.16 -66.69,-889.54 22.37,-1734.97 178.12,-2157.48 489.2,-1134.35 1734.76,-1534.69 3180.4,-978.6 333.87,133.38 378.19,0 378.19,-1201.04l0 -1356.79 1000.97 0 1000.76 0 0 4114.89 0.21 0zm30694.3 0l0 4114.68 -1000.76 0c-556.09,0 -1000.97,-88.85 -1000.97,-200.07 0,-133.59 -266.76,-66.69 -600.62,111.22 -934.07,467.04 -1534.69,377.98 -2335.39,-333.66 -645.15,-556.09 -711.63,-778.53 -800.69,-2113.16 -66.69,-889.54 22.16,-1734.97 177.91,-2157.48 489.4,-1134.35 1734.97,-1534.69 3180.61,-978.6 333.66,133.38 378.19,0 378.19,-1201.04l0 -1356.79 1000.97 0 1000.76 0 0 4114.89 0 0zm34253.3 -3225.35l0 889.75 -1000.76 0 -1000.97 0 0 -889.75 0 -889.54 1000.97 0 1000.76 0 0 889.54zm36699.91 0l0 889.75 -1112.19 0 -1111.98 0 0 3225.14 0 3225.14 -1223.41 0 -1223.41 0 0 -3225.14 0 -3225.14 -1111.98 0 -1112.19 0 0 -889.75 0 -889.54 3447.57 0 3447.57 0 0 889.54zm18683.71 0l0 889.75 -1001.18 0 -1000.76 0 0 -889.75 0 -889.54 1000.76 0 1001.18 0 0 889.54zm19573.26 0l0 889.75 -1000.97 0 -1000.97 0 0 -889.75 0 -889.54 1000.97 0 1000.97 0 0 889.54zm10231.29 3225.35l0 4114.68 -1000.76 0 -1000.97 0 0 -4114.68 0 -4114.89 1000.97 0 1000.76 0 0 4114.89zm-67394.21 -2780.47c0,1045.5 44.53,1112.19 556.09,1112.19 489.2,0 555.88,88.85 555.88,778.32 0,689.47 -66.69,778.53 -555.88,778.53 -533.93,0 -556.09,44.53 -556.09,1445.84 0,1401.11 22.16,1445.64 556.09,1445.64 467.04,0 555.88,111.43 555.88,645.15 0,711.84 -311.29,911.91 -1467.8,911.91 -1290.1,0 -1646.12,-578.25 -1646.12,-2669.04 0,-1623.54 -44.53,-1779.29 -444.88,-1779.29 -355.82,0 -444.88,-155.75 -444.88,-778.53 0,-622.78 89.06,-778.32 444.88,-778.32 333.66,0 444.88,-155.75 444.88,-622.99 0,-422.51 200.28,-734 734,-1089.82 1090.03,-734 1267.94,-667.31 1267.94,600.62l0 -0.21zm41593.12 0c0,1045.5 44.53,1112.19 556.09,1112.19 489.4,0 555.88,88.85 555.88,778.32 0,689.47 -66.48,778.53 -555.88,778.53 -533.93,0 -556.09,44.53 -556.09,1445.84 0,1401.11 22.37,1445.64 556.09,1445.64 467.04,0 555.88,111.43 555.88,645.15 0,711.84 -311.29,911.91 -1467.8,911.91 -1290.1,0 -1646.12,-578.25 -1646.12,-2669.04 0,-1623.54 -44.53,-1779.29 -444.88,-1779.29 -355.82,0 -444.88,-155.75 -444.88,-778.53 0,-622.78 89.06,-778.32 444.88,-778.32 333.87,0 444.88,-155.75 444.88,-622.99 0,-422.51 200.28,-734 734.21,-1089.82 1089.82,-734 1267.73,-667.31 1267.73,600.62l0 -0.21zm-171288.25 1378.95c600.41,356.03 1134.35,1490.37 1134.35,2379.92l0 689.68 -2001.94 0c-1490.16,0 -2001.73,66.69 -2001.73,289.13 0,689.47 1178.88,1112.19 1690.44,622.78 244.6,-266.97 2090.79,-44.53 2090.79,244.6 0,489.4 -1112.19,1267.94 -2068.63,1401.32 -1378.95,222.44 -2201.8,-22.16 -2958.17,-800.69 -578.25,-600.62 -645.15,-823.06 -645.15,-2202.01 0,-1668.07 311.5,-2246.54 1557.06,-2824.79 756.16,-333.66 2513.5,-244.6 3202.98,200.07zm6005.4 -288.92c444.88,288.92 0,1445.64 -600.62,1534.69 -822.85,133.38 -1156.51,889.75 -1156.51,2646.88l0 1623.54 -1000.97 0 -1000.97 0 0 -2891.27 0 -2891.48 889.75 0c689.47,0 889.75,88.85 889.75,377.98 0,333.66 66.69,311.5 489.2,-111.22 533.93,-511.56 978.81,-600.62 1490.37,-289.13l0 0zm5782.96 288.92c600.41,356.03 1134.35,1490.37 1134.35,2379.92l0 689.68 -2001.73 0c-1490.16,0 -2001.94,66.69 -2001.94,289.13 0,689.47 1334.63,1156.51 1668.28,600.41 111.22,-177.91 1823.82,-88.85 2068.42,133.59 266.97,200.28 -800.69,1223.41 -1490.16,1423.48 -2691.41,734 -4426.17,-600.41 -4203.74,-3269.67 88.85,-911.91 244.6,-1334.42 734,-1845.98 333.66,-356.03 822.85,-689.47 1089.82,-756.16 756.16,-155.75 2513.29,44.53 3002.7,355.61zm6806.09 -355.82c711.84,289.13 1000.97,1312.47 1000.97,3647.85l0 2224.17 -1000.97 0 -978.6 0 -66.69 -1912.67c-44.53,-1512.53 -155.54,-1979.57 -444.88,-2157.48 -266.97,-178.12 -467.04,-155.75 -711.84,44.32 -266.76,222.44 -355.82,734 -355.82,2157.69l0 1868.14 -1000.97 0 -1000.76 0 0 -2891.48 0 -2891.48 889.75 0c644.94,0 889.54,89.06 889.54,333.66 0,266.97 133.38,244.6 734,-111.22 734,-444.88 1401.32,-556.09 2046.26,-311.29l0 -0.21zm6672.71 177.91c400.35,177.91 911.91,622.78 1090.03,978.6l333.45 645.15 -934.07 133.59c-645.15,88.85 -1045.5,22.16 -1290.1,-200.28 -823.06,-734 -1757.13,-89.06 -1757.13,1245.57 0,1378.95 1156.51,2090.79 1823.82,1134.35 244.81,-355.82 489.4,-422.51 1245.78,-311.29 511.56,66.69 934.07,177.91 934.07,266.76 0,66.69 -200.07,444.88 -444.88,845.43 -533.72,867.38 -1757.13,1289.89 -3158.24,1089.82 -1690.44,-266.97 -2402.28,-1178.88 -2402.28,-3069.39 0,-1112.19 88.85,-1379.15 667.31,-2046.47 377.98,-422.51 911.91,-822.85 1178.67,-867.38 1023.34,-200.07 1979.57,-133.59 2713.78,155.75l-0.21 -0.21zm10876.66 333.66c400.35,400.35 489.2,823.06 578.25,2913.85l111.22 2446.6 -934.28 0c-711.63,0 -956.44,-88.85 -956.44,-333.66 0,-422.51 -200.07,-422.51 -689.47,22.37 -222.44,200.07 -778.32,400.35 -1245.57,467.04 -1156.51,155.54 -2068.42,-556.09 -2068.42,-1601.38 0,-934.28 422.51,-1356.79 1623.75,-1668.28 1712.6,-444.88 2046.26,-600.62 2046.26,-911.91 0,-444.88 -956.44,-533.72 -1423.68,-111.22 -511.56,467.04 -2024.1,244.81 -2024.1,-311.5 0,-444.88 823.06,-1245.57 1446.05,-1401.11 244.6,-66.69 1045.29,-89.06 1757.13,-44.53 956.23,44.53 1423.27,200.07 1779.29,533.72zm16792.79 -155.75c600.62,356.03 1134.56,1490.37 1134.56,2379.92l0 689.68 -2001.94 0c-1490.16,0 -2001.73,66.69 -2001.73,289.13 0,689.47 1334.63,1156.51 1668.28,600.41 111.01,-200.07 1823.82,-88.85 2090.58,133.59 266.97,222.44 -756.16,1223.41 -1468,1401.32 -2735.73,756.16 -4470.7,-556.09 -4248.27,-3247.51 89.06,-911.91 244.6,-1334.42 734,-1846.19 333.66,-355.82 823.06,-689.47 1090.03,-756.16 756.16,-155.75 2513.29,44.53 3002.49,355.82l0 0zm18016.4 -288.92c444.88,288.92 0,1445.64 -600.62,1534.69 -822.85,133.38 -1156.51,889.75 -1156.51,2646.88l0 1623.54 -1000.97 0 -1000.76 0 0 -2891.27 0 -2891.48 889.75 0c689.47,0 889.54,88.85 889.54,377.98 0,333.66 66.69,311.5 489.4,-111.22 533.72,-511.56 978.6,-600.62 1490.16,-289.13l0 0zm12678.11 288.92c600.62,356.03 1134.35,1490.37 1134.35,2379.92l0 689.68 -2001.73 0c-1490.16,0 -2001.94,66.69 -2001.94,289.13 0,689.47 1334.63,1156.51 1668.28,600.41 111.22,-200.07 1823.82,-88.85 2090.79,133.59 266.97,222.44 -756.16,1223.41 -1468,1401.32 -2735.73,756.16 -4470.7,-556.09 -4248.27,-3247.51 88.85,-911.91 244.6,-1334.42 734,-1846.19 333.66,-355.82 823.06,-689.47 1089.82,-756.16 756.16,-155.75 2513.29,44.53 3002.7,355.82l0 0zm6917.52 -266.76c622.78,333.66 889.75,1445.84 889.75,3692.17l0 2090.79 -1001.18 0 -978.39 0 -66.9 -1912.88c-44.53,-1512.53 -155.54,-1979.57 -444.88,-2157.48 -266.76,-177.91 -467.04,-155.75 -711.84,44.53 -266.76,222.44 -355.61,734 -355.61,2157.48l0 1868.35 -1000.97 0 -1000.97 0 0 -2891.48 0 -2891.48 889.75 0c644.94,0 889.75,88.85 889.75,333.66 0,266.76 133.38,244.6 734,-111.43 778.32,-489.2 1512.53,-555.88 2157.48,-222.23zm7206.44 422.51c400.35,400.35 489.4,823.06 578.25,2913.85l111.22 2446.6 -934.07 0c-711.84,0 -956.44,-88.85 -956.44,-333.66 0,-422.51 -200.28,-422.51 -689.47,22.37 -222.44,200.07 -778.53,400.35 -1245.78,467.04 -1156.51,155.54 -2068.42,-556.09 -2068.42,-1601.38 0,-934.28 422.72,-1356.79 1623.75,-1668.28 1712.6,-444.88 2046.26,-600.62 2046.26,-911.91 0,-444.88 -956.23,-533.72 -1401.32,-111.22 -556.09,489.4 -2246.33,244.81 -2112.95,-311.5 133.59,-511.56 934.28,-1245.57 1512.53,-1401.11 244.6,-66.69 1045.5,-89.06 1756.92,-44.53 956.65,44.53 1423.68,200.07 1779.5,533.72zm6961.84 -66.69c244.6,333.66 311.5,333.66 867.38,-111.22 800.9,-622.78 1757.13,-600.41 2424.44,89.06 533.93,511.56 556.09,689.47 556.09,3002.7l0 2446.6 -1000.97 0 -978.6 0 -66.69 -2068.42c-66.69,-2024.1 -66.69,-2046.26 -622.78,-2046.26 -556.09,0 -556.09,22.16 -622.78,2046.26l-66.69 2068.42 -978.6 0 -1000.97 0 0 -1734.97c0,-1979.57 -355.82,-2780.26 -1045.5,-2357.55 -333.66,200.28 -422.51,600.41 -467.04,2179.85l-66.69 1912.67 -978.6 0 -1000.97 0 0 -2891.48 0 -2891.48 889.54 0c689.68,0 889.75,89.06 889.75,378.19 0,311.29 44.53,333.45 400.35,22.16 200.28,-200.07 533.93,-400.35 711.84,-467.04 556.09,-222.44 1868.35,22.37 2157.48,422.51l0 0zm13389.95 -89.06c600.41,356.03 1134.35,1490.37 1134.35,2379.92l0 689.68 -2001.73 0c-1490.16,0 -2001.94,66.69 -2001.94,289.13 0,689.47 1334.63,1156.51 1668.28,600.41 111.22,-200.07 1823.82,-88.85 2090.79,133.59 266.76,222.44 -756.37,1223.41 -1468,1401.32 -2735.73,756.16 -4470.7,-556.09 -4248.27,-3247.51 88.85,-911.91 244.6,-1334.42 734,-1846.19 333.66,-355.82 822.85,-689.47 1089.82,-756.16 756.16,-155.75 2513.29,44.53 3002.7,355.82l0 0zm6806.09 -355.82c711.84,289.13 1000.97,1312.47 1000.97,3647.85l0 2224.17 -1000.97 0 -978.6 0 -66.69 -1912.67c-44.53,-1512.53 -155.54,-1979.57 -444.88,-2157.48 -266.97,-178.12 -467.04,-155.75 -711.84,44.32 -266.76,222.44 -355.61,734 -355.61,2157.69l0 1868.14 -1001.18 0 -1000.76 0 0 -2891.48 0 -2891.48 889.75 0c644.94,0 889.54,89.06 889.54,333.66 0,266.97 133.59,244.6 734,-111.22 734,-444.88 1401.32,-556.09 2046.47,-311.29l-0.21 -0.21zm11365.85 422.72c1223.41,800.69 1556.85,3225.14 600.62,4537.39 -978.81,1312.26 -3247.51,1445.84 -4559.76,266.97 -600.41,-533.93 -711.63,-800.69 -778.32,-1935.25 -111.22,-1556.85 400.35,-2602.35 1556.85,-3113.92 867.38,-400.35 2379.92,-289.13 3180.61,244.81zm17193.34 -66.9c600.62,356.03 1134.35,1490.37 1134.35,2379.92l0 689.68 -2001.73 0c-1490.37,0 -2001.94,66.69 -2001.94,289.13 0,689.47 1334.63,1156.51 1668.28,600.41 111.22,-200.07 1823.82,-88.85 2090.79,133.59 44.53,44.53 -88.85,333.66 -289.13,622.78 -800.9,1245.57 -3580.95,1290.1 -4715.51,111.22 -578.25,-600.62 -644.94,-823.06 -644.94,-2202.01 0,-1378.95 66.69,-1601.38 644.94,-2202.01 355.82,-355.82 845.22,-711.63 1112.19,-778.32 756.16,-155.75 2513.5,44.53 3002.7,355.61zm6005.4 -288.92c533.93,333.45 0,1423.48 -800.69,1623.54 -800.69,200.28 -956.44,600.62 -956.44,2669.04l0 1512.53 -1000.76 0 -1000.97 0 0 -2891.48 0 -2891.48 889.75 0c689.47,0 889.54,89.06 889.54,378.19 0,333.45 66.9,311.29 489.4,-111.43 533.93,-511.56 978.6,-600.41 1490.16,-288.92zm5115.86 0c444.88,288.92 0,1445.64 -600.62,1534.69 -823.06,133.38 -1156.51,889.75 -1156.51,2646.88l0 1623.54 -1000.97 0 -1000.97 0 0 -2891.27 0 -2891.48 889.75 0c689.47,0 889.75,88.85 889.75,377.98 0,333.66 66.69,311.5 489.4,-111.22 533.72,-511.56 978.6,-600.62 1490.16,-289.13l0 0zm13278.73 355.82c1223.2,800.69 1556.85,3225.14 600.41,4537.39 -978.6,1312.26 -3247.3,1445.84 -4559.55,266.97 -600.62,-533.93 -711.84,-800.69 -778.53,-1935.25 -111.22,-1556.85 400.35,-2602.35 1556.85,-3113.92 867.59,-400.35 2379.92,-289.13 3180.82,244.81zm6072.09 -355.82c444.88,288.92 0,1445.64 -600.41,1534.69 -823.06,133.38 -1156.72,889.75 -1156.72,2646.88l0 1623.54 -1000.76 0 -1000.97 0 0 -2891.27 0 -2891.48 889.54 0c689.47,0 889.75,88.85 889.75,377.98 0,333.66 66.69,311.5 489.4,-111.22 533.93,-511.56 978.6,-600.62 1490.16,-289.13l0 0zm9230.53 444.67c400.55,400.35 489.4,823.06 578.46,2913.85l111.01 2446.6 -934.07 0c-711.63,0 -956.44,-88.85 -956.44,-333.66 0,-422.51 -200.07,-422.51 -689.47,22.37 -222.44,200.07 -778.32,400.35 -1245.57,467.04 -1156.51,155.54 -2068.63,-556.09 -2068.63,-1601.38 0,-934.28 422.72,-1356.79 1623.75,-1668.28 1712.6,-444.88 2046.47,-600.62 2046.47,-911.91 0,-444.88 -956.44,-533.72 -1423.68,-111.22 -511.56,467.04 -2024.1,244.81 -2024.1,-311.5 0,-444.88 823.06,-1245.57 1445.84,-1401.11 244.81,-66.69 1045.5,-89.06 1757.13,-44.53 956.44,44.53 1423.48,200.07 1779.29,533.72zm-221578.38 1623.75c66.9,1846.19 111.43,2068.63 489.4,2135.32 734,155.75 1023.13,-556.09 1023.13,-2446.81l0 -1734.76 1000.97 0 1000.76 0 0 2891.48 0 2891.48 -1000.76 0c-756.16,0 -1000.97,-89.06 -1000.97,-355.82 0,-289.13 -111.22,-266.97 -578.25,111.22 -800.69,622.78 -1757.13,600.41 -2424.44,-89.06 -533.93,-511.56 -555.88,-689.47 -555.88,-3002.7l0 -2446.6 1000.76 0 978.81 0 66.48 2046.26zm58230.57 845.22l0 2891.48 -1000.76 0 -1001.18 0 0 -2891.48 0 -2891.48 1001.18 0 1000.76 0 0 2891.48zm82074.25 0l0 2891.48 -1000.76 0 -1000.97 0 0 -2891.48 0 -2891.48 1000.97 0 1000.76 0 0 2891.48zm55383.62 0l0 2891.48 -1001.18 0 -1000.76 0 0 -2891.48 0 -2891.48 1000.76 0 1001.18 0 0 2891.48zm19573.26 0l0 2891.48 -1000.97 0 -1000.97 0 0 -2891.48 0 -2891.48 1000.97 0 1000.97 0 0 2891.48zm10031.23 10765.23c-778.53,845.43 -1779.5,1223.41 -4648.82,1801.66 -3113.92,645.15 -3580.95,800.69 -4159.21,1445.84 -1045.29,1178.88 -2290.86,1290.1 -5560.52,533.72 -1757.13,-400.35 -2024.1,-400.35 -2557.82,133.59 -333.66,333.66 -444.88,734 -444.88,1690.44 0,1312.26 -289.13,2090.79 -756.16,2090.79 -177.91,0 -845.22,-244.81 -1512.53,-556.09 -667.31,-311.29 -1512.53,-622.78 -1890.72,-689.47 -644.94,-133.59 -734,-66.69 -1156.51,734 -645.15,1290.1 -1290.1,1490.16 -3803.39,1201.04 -1112.19,-155.54 -2379.92,-200.07 -2802.63,-111.22 -1134.35,200.28 -2001.73,1201.04 -2335.39,2624.72 -244.81,1134.35 -222.44,1957.2 155.54,6138.78 133.59,1356.79 89.06,1512.53 -444.88,2157.48 -600.41,711.84 -1823.82,1267.94 -2491.13,1134.56 -266.76,-44.53 -555.88,-734.21 -1000.76,-2513.5 -800.69,-3113.92 -800.69,-3558.79 -66.69,-4025.83 845.22,-578.46 1245.57,-1468 956.44,-2268.7 -556.09,-1579.22 -2624.72,-1534.69 -6138.99,177.91 -1267.73,600.41 -2669.04,1156.51 -3113.92,1223.2 -467.04,89.06 -1846.19,333.66 -3091.76,556.09 -1245.57,244.81 -3469.73,533.93 -4982.27,645.15 -3069.39,244.6 -3336.36,355.82 -5026.8,2157.48 -1334.63,1423.48 -2024.1,1556.85 -2735.73,555.88 -1423.68,-1979.57 -5649.58,-2112.95 -8452.21,-266.76 -1690.44,1134.35 -2735.73,1534.69 -4114.89,1623.75 -1045.29,44.32 -1356.79,0 -1534.69,-311.5 -444.88,-689.47 89.06,-1556.85 1512.53,-2424.44 1378.95,-823.06 1623.54,-1245.57 1356.79,-2313.23 -289.34,-1178.88 -1512.53,-934.28 -5049.17,1023.13 -1289.89,711.84 -2513.29,1312.47 -2713.57,1312.47 -200.07,0 -622.78,-222.44 -956.23,-511.56 -823.06,-711.84 -622.99,-1178.88 1401.11,-2980.54 2535.66,-2291.07 2557.82,-2580.19 511.56,-3492.1 -3380.88,-1512.53 -6516.96,-1134.35 -7873.75,934.28 -311.5,444.88 -845.22,1845.98 -1223.41,3091.55 -822.85,2780.47 -978.6,3091.76 -1801.66,3514.26 -1000.76,511.77 -1935.04,422.72 -2646.88,-288.92 -533.72,-511.77 -644.94,-845.43 -778.32,-2379.92 -89.06,-956.44 -89.06,-3136.29 0,-4804.57l155.75 -3047.23 -600.62 -377.98c-778.53,-511.56 -4025.83,-711.84 -5805.33,-333.66 -1134.35,244.6 -1490.16,444.88 -2669.04,1556.85 -800.69,778.53 -1935.04,1579.22 -2824.79,1979.57 -1245.57,600.62 -1534.69,845.22 -1912.88,1668.07 -400.35,823.06 -667.1,1045.5 -2001.73,1646.12 -2268.7,1000.76 -4359.48,1556.85 -6606.02,1712.6 -2446.6,177.91 -9742.1,1646.12 -11521.6,2335.59 -689.47,266.76 -1556.85,734 -1912.67,1023.13 -645.15,533.72 -645.15,578.25 -734,3113.92 -66.9,2468.97 -89.06,2602.35 -667.31,3091.55 -400.35,355.82 -1112.19,600.62 -2224.38,778.53 -2446.6,400.35 -5071.12,1067.66 -6094.25,1579.22 -1912.88,911.91 -3403.25,2980.54 -3758.86,5271.4 -178.12,1156.72 -622.99,1468 -2424.44,1801.66 -2113.16,377.98 -2291.07,355.82 -2780.47,-600.41 -1801.66,-3558.79 -5827.49,-6717.45 -10142.44,-8029.71 -4359.48,-1312.26 -10520.63,-845.22 -14368.55,1112.19 -4292.79,2157.48 -7050.9,4915.58 -8429.84,8429.84 -266.97,667.31 -511.56,1245.57 -556.09,1290.1 -44.53,44.53 -1378.95,-600.41 -2958.17,-1423.48 -2802.63,-1445.84 -2913.85,-1490.37 -3447.57,-1134.35 -1490.37,978.6 -2646.88,3825.55 -3047.23,7540.09 -378.19,3514.26 133.38,4248.27 2691.2,3758.86 2001.94,-400.35 2424.44,-22.16 1423.48,1312.26 -311.29,422.72 -555.88,956.44 -555.88,1223.41 0,556.09 800.69,2958.17 1645.91,4982.27 467.04,1067.66 578.25,1623.75 467.04,2202.01 -177.91,911.91 -1201.04,2046.26 -1868.35,2046.26 -800.69,0 -2202.01,-1512.32 -3847.92,-4203.74 -2090.79,-3380.88 -2224.17,-3558.79 -2646.88,-3580.95 -533.72,0 -644.94,645.15 -644.94,4226.11 0,3225.14 0,3247.3 -1000.97,6383.37 -556.09,1712.81 -1178.88,3358.72 -1401.32,3625.69 -644.94,800.69 -1312.26,422.51 -2936.01,-1623.75 -1490.16,-1868.35 -2824.79,-2824.79 -3981.3,-2824.79 -845.22,0 -2379.92,-845.22 -2669.04,-1468 -422.72,-934.07 111.22,-2291.07 2402.08,-6072.09 1223.41,-2024.1 1579.22,-3158.45 1134.35,-3692.38 -155.54,-177.91 -867.38,-644.94 -1579.01,-1022.92 -2046.47,-1090.03 -1979.57,-1490.37 489.2,-2780.47 1801.66,-956.23 2580.19,-1623.54 2780.26,-2424.44 155.75,-600.41 -22.16,-911.91 -1979.57,-3736.7 -667.1,-934.28 -845.22,-1423.48 -867.38,-2179.64 0,-533.93 -111.22,-1223.41 -222.44,-1534.69 -266.97,-689.68 -1267.73,-1779.5 -1668.07,-1779.5 -356.03,0 -734,711.84 -734,1356.79 0,289.13 -244.81,778.32 -556.09,1089.82 -667.31,689.47 -734,1134.56 -467.04,3202.98 177.91,1378.95 155.54,1579.22 -222.44,1846.19 -511.56,355.82 -1734.97,377.98 -2046.26,0 -422.72,-533.93 -756.37,-2758.1 -912.12,-6383.58 -111.22,-2024.1 -266.97,-3848.13 -355.82,-4070.36 -244.6,-556.09 -800.69,-800.9 -1378.95,-578.25 -556.09,200.07 -578.25,200.07 -600.62,2090.79 -44.53,1134.35 -200.07,1623.54 -1111.98,3291.83 -1267.94,2313.23 -1534.9,2602.35 -2357.76,2602.35 -689.47,0 -1290.1,-600.62 -1779.29,-1757.13 -356.03,-911.91 -178.12,-1290.1 822.85,-1734.97 1334.63,-600.41 1846.19,-1156.51 1846.19,-2024.1 0,-1490.16 -1267.73,-3158.24 -2402.08,-3158.24 -600.62,0 -867.59,377.98 -1156.72,1668.07 -355.82,1579.22 -756.16,2112.95 -1601.38,2112.95 -511.56,0 -912.12,-222.44 -1557.06,-889.75 -1201.04,-1289.89 -1134.35,-1756.92 556.09,-3536.42 1512.53,-1623.75 2068.42,-2557.82 2290.86,-3959.14 111.43,-778.53 44.53,-978.6 -511.36,-1623.54 -511.77,-578.46 -823.06,-734.21 -1557.06,-756.37 -1067.66,-22.37 -1668.07,422.72 -2335.39,1757.13 -1201.04,2379.92 -2402.28,2513.5 -3759.07,378.19 -355.82,-556.09 -644.94,-1201.04 -644.94,-1401.32 0,-222.44 467.04,-800.69 1045.5,-1312.26l1067.45 -934.28 -1289.89 -1201.04c-1201.25,-1134.56 -1290.1,-1290.1 -1134.56,-1935.04 311.5,-1490.37 1423.48,-2824.79 2313.23,-2824.79 222.44,0 756.37,467.04 1223.41,1023.13 1023.13,1245.57 1690.44,1534.69 2513.29,1111.98 711.84,-355.82 1601.59,-1846.19 1601.59,-2624.51 0,-734 -400.35,-1045.5 -2936.01,-2268.7 -2513.5,-1223.41 -3670.01,-2335.39 -4381.85,-4226.11 -978.6,-2624.72 -1734.97,-3692.17 -2646.88,-3692.17 -289.13,0 -1134.35,155.54 -1868.14,333.66 -711.84,200.28 -1824.03,377.98 -2424.44,400.35 -1312.47,44.53 -1757.13,-355.82 -1757.13,-1557.06l0 -734 117928.94 0 117906.78 0 -489.4 533.93 0 -0.21zm-158677.04 30694.51c4915.58,1045.5 8118.55,3225.14 9742.31,6650.55 800.69,1645.91 1556.85,4804.15 1245.57,5115.65 -89.06,89.06 -1801.66,133.59 -3803.39,111.22l-3625.69 -66.69 -355.82 -1223.41c-489.4,-1779.29 -2068.42,-3313.99 -4003.67,-3892.24 -1846.19,-556.09 -4982.06,-578.25 -6694.87,-44.53 -1445.84,422.51 -2824.79,1512.32 -3247.51,2513.29 -800.69,1912.88 -66.69,4181.58 1557.06,4982.27 511.56,244.81 3914.61,1201.25 7584.62,2135.32 9408.44,2379.92 11299.16,3358.52 12922.91,6672.71 755.95,1512.53 845.01,1868.35 934.07,3936.98 155.75,3714.33 -778.53,6539.33 -2958.17,8807.82 -1445.84,1512.53 -3358.52,2558.03 -6450.27,3514.47 -1868.35,555.88 -2268.7,600.41 -6005.4,622.78 -4626.45,0 -6072.3,-289.13 -9586.56,-2001.94 -3269.67,-1579.22 -5249.23,-4092.52 -6005.4,-7629.15 -155.75,-822.85 -311.29,-1823.82 -311.29,-2224.17l0 -711.84 3758.86 0 3758.86 0 155.75 823.06c422.51,2313.23 1979.57,4114.89 4159.21,4826.52 3380.88,1112.19 8718.97,467.24 10609.69,-1267.73 1223.2,-1112.19 1712.6,-3492.1 1023.13,-4826.52 -756.37,-1468 -2335.59,-2091 -10320.56,-4114.89 -8162.87,-2046.26 -9897.85,-3002.7 -11499.23,-6250.2 -778.53,-1534.69 -845.22,-1845.98 -934.28,-4047.99 -111.22,-2780.47 155.75,-4404.01 1067.66,-6228.04 1645.91,-3247.3 4581.92,-5204.71 9341.96,-6161.15 1979.57,-400.35 6072.09,-400.35 7940.44,-22.16l0 0zm39146.72 111.22c2579.98,533.72 5716.27,2001.73 7540.09,3536.63 2313.23,1912.67 4426.17,5671.74 4604.08,8162.87l44.53 667.1 -3781.02 0 -3759.07 0 -734 -1312.26c-1645.91,-2913.64 -3225.14,-4114.68 -6205.67,-4737.46 -4648.61,-956.65 -9074.79,1267.73 -11121.04,5604.84 -1267.94,2646.88 -1712.81,4715.51 -1712.81,8007.34 0,5805.33 1912.88,10031.43 5360.45,11855.26 2513.5,1334.42 5983.24,1779.29 8429.84,1045.5 3158.45,-934.28 5716.27,-3848.13 6650.55,-7562.46l133.38 -556.09 -4470.49 0 -4470.91 0 0 -3225.14 0 -3225.14 7873.75 0c6962.05,0 7896.12,44.53 8007.34,355.82 66.69,200.28 133.59,4715.51 133.59,10075.75 0,7273.33 -66.69,9786.63 -266.97,9986.91 -333.66,333.66 -4759.83,377.98 -4960.11,44.53 -66.69,-111.22 -289.13,-1090.03 -467.04,-2157.48 -177.91,-1089.82 -377.98,-2068.63 -422.51,-2224.38 -44.53,-155.54 -711.84,378.19 -1490.37,1201.25 -1734.97,1823.82 -3202.77,2780.26 -5449.3,3558.58 -1623.75,578.25 -1979.57,622.78 -5182.55,600.62 -3136.08,0 -3603.11,-66.69 -5226.87,-600.62 -4915.58,-1645.91 -8607.96,-5071.12 -10476.1,-9719.94 -1379.15,-3358.52 -1890.72,-7161.91 -1601.59,-11610.45 645.15,-9897.85 6383.58,-16681.78 15191.61,-17949.71 2379.92,-333.45 5649.58,-266.76 7829.22,178.12l0 0zm38990.76 -177.91c2112.95,333.66 5249.23,1423.48 6939.47,2424.44 5516.2,3269.67 8252.14,9074.79 8252.14,17460.31 0,7006.37 -1846.19,12077.48 -5716.27,15614.12 -4893.42,4470.7 -13145.35,5782.96 -19973.6,3158.24 -7762.74,-3002.49 -11721.88,-10698.33 -10876.66,-21174.64 578.25,-7073.06 3291.83,-12055.32 8163.08,-15035.86 3491.89,-2112.95 8941.41,-3136.08 13211.83,-2446.6l0 0zm46442 4137.05l-66.69 3291.83 -5605.05 66.69c-3091.76,22.37 -5649.58,66.69 -5671.74,111.22 -44.53,22.37 -111.43,7095.43 -177.91,15725.54l-111.43 15680.81 -3781.02 0 -3781.23 0 -111.22 -15680.81 -111.22 -15681.02 -5671.74 -111.22 -5671.95 -111.22 -66.69 -3291.83 -66.48 -3269.46 15480.53 0 15480.74 0 -66.69 3269.46 -0.21 0zm24288.77 -3047.23c4292.59,556.09 7673.47,3558.79 8785.66,7784.9 467.04,1690.44 511.56,5338.08 133.38,7006.37 -711.63,2980.33 -3025.07,5938.71 -5649.58,7206.44 -2024.1,1000.97 -4581.92,1356.79 -10654.22,1512.53l-5293.56 133.38 0 7206.64 0 7184.27 -3825.76 -44.53 -3847.92 -66.69 -66.69 -19084.06 -44.53 -19061.69 9386.28 0c5182.55,0 10164.6,111.22 11076.72,222.44l0.21 0z"/>
 </g>
</svg>
