<?xml version="1.0" encoding="UTF-8"?>
<!DOCTYPE svg PUBLIC "-//W3C//DTD SVG 1.1//EN" "http://www.w3.org/Graphics/SVG/1.1/DTD/svg11.dtd">
<!-- Creator: CorelDRAW 2020 (64-Bit) -->
<svg xmlns="http://www.w3.org/2000/svg" xml:space="preserve" width="283.633mm" height="64.3756mm" version="1.1" style="shape-rendering:geometricPrecision; text-rendering:geometricPrecision; image-rendering:optimizeQuality; fill-rule:evenodd; clip-rule:evenodd"
viewBox="0 0 27851.51 6321.39"
 xmlns:xlink="http://www.w3.org/1999/xlink"
 xmlns:xodm="http://www.corel.com/coreldraw/odm/2003">
 <defs>
  <style type="text/css">
   <![CDATA[
    .fil0 {fill:#FEFEFE}
    .fil1 {fill:#391020}
    .fil3 {fill:#F8AD1D}
    .fil4 {fill:#FAB11C}
    .fil2 {fill:#FFFEFE}
   ]]>
  </style>
 </defs>
 <g id="Layer_x0020_1">
  <metadata id="CorelCorpID_0Corel-Layer"/>
  <path class="fil0" d="M10959.09 4301.46c-31.13,44.66 -75.36,38.13 -69.91,-8.48 4.9,-41.82 49.8,-44.28 69.91,8.48zm-3597.74 -788.28c-27.12,5.92 -40.87,4.43 -60.5,-7.4 -13.43,-59.16 14.27,-58.54 57.37,-49.09l3.13 56.49zm768.57 -1482.6c-18.91,-91.59 99.09,-64.87 46.98,12.59l-46.98 -12.59zm-140.36 -385.41c168.87,-57.2 238.89,213.52 73.47,252.38 -168.41,39.56 -238.05,-196.65 -73.47,-252.38zm-1901.93 -63.48l22.29 257.01c34.78,4.53 31.15,-34.9 67.02,-59.23 -13.21,103.49 -23.61,101.71 84.54,64.19 -18.82,47.75 -35.06,24.94 -47.8,80.13 25,17.47 47.08,13.52 89.18,22.54l-77.77 38.48c6.28,40.8 27.67,27.58 60,70.8 -45.05,-5.8 -52.46,-17.92 -88.7,0.9 -3.32,44.73 31.38,64.77 57,95.69 -75.12,-40.82 -75.67,-53.73 -110.61,-58.52 -16.35,24.36 -13.32,48.65 -22.01,88.58l-37.15 -78.72c-32.07,7.13 -45.59,30.71 -55.8,61.14 -27.04,-40.15 3.43,-53.01 -16.52,-89.58 -30.57,-0.47 -49.64,17.08 -84.21,27.72 22.21,-53.4 39.99,-29.83 47.78,-85.93l-77.22 -12.4c-15.96,-66.65 20.05,19.46 0.04,-20.32l-1576.5 -77.29c-20.4,53.75 -22.46,78.37 -61.87,120.39 -13.96,14.88 -27.04,28.38 -44.44,43.37l-47.16 34.52c-1.05,-1.9 -4.31,3.14 -6.5,4.89l398.4 1467.47c24.87,-11.76 22.1,-17.02 28.64,-48.36 2.75,-13.16 5.91,-45.21 5.22,-57.16 -1.65,-28.85 -15.79,-83.92 -16.59,-119.5 40.93,-27.41 94.01,-65.98 146.75,-78.26 24.15,36.07 12.74,33.86 29.35,68.48 -23.18,12.26 -39.9,22.69 -68.49,29.35l0 19.57c72.44,6.03 266.18,138.93 296.48,212.26 23.06,55.82 19.42,81.24 94.86,81.24 46.65,-69.66 3.68,-35.48 69.1,-107 34.6,-37.82 20.47,-84.76 46.75,-129.34 3.63,-6.16 33.04,-45.17 38.69,-49.83 53.25,-44.01 159.21,15.85 197.67,41.6 0,111.32 -22.16,53.43 -77.49,88.83 -31.55,20.19 -30.2,79.05 -45.57,120.75 -20.65,56 -57.09,72.09 -67.75,98.57 -14.82,36.79 -10.19,124.16 8.29,148.31 20.19,26.41 82.72,44.49 118.39,17.98 37.95,-28.19 44.92,-77.93 74.63,-111.73 43.45,-49.44 76.4,-160.84 136.25,-176.83 0,116.64 -41.94,111.8 -48.91,195.66 60.36,-28.96 156.65,65.99 222.95,81.59 72.32,17.02 90.25,-48.38 125.74,-94.88 17.65,-23.13 27.64,-27.53 35.92,-52.13 24.22,-72.1 -13.18,-64.59 66.15,-90.37 101.63,-33.03 187.26,-49.83 185.46,96.78 -0.69,55.53 -0.31,111.09 -0.31,166.63 -50.47,26.71 -132.74,28.45 -142.24,34.12 -50.12,29.97 27.21,234.72 127.73,177.2l78.93 -58.85c27.15,-17.3 31.65,-32.97 27,-66.91 -9.9,-72.21 -12.27,-67.86 43.38,-117.07 99.87,-88.31 -1.59,-167.46 -64,-234.97 -22.5,-24.34 -32.46,-48.36 -59.16,-68.03 -96.4,-71 -92.67,-3.99 -80.13,-154.67 62.31,-14.51 71.88,-5.94 127.44,9.52 55.29,15.39 68.01,25 104.77,61.56 82.58,82.13 139.56,-9.26 139.56,193.08 -27.19,18.21 -56.92,31.4 -65.19,72.91 -10.67,53.6 24.37,27.48 26.06,103.18 -71.5,47.88 -70.64,45.97 -104.98,129.82 -34.12,83.34 -24.14,122.38 -13.86,214.03 22.1,196.81 -82.29,331.2 157.97,331.2 0,-82.75 17.94,-71.92 38.33,-127.99 18.61,-51.2 6.02,-88.39 29.92,-146.18 78.25,-189.3 30.54,-245.56 57.27,-294.94 14.86,-27.46 51.23,-60.9 73.47,-102.62 26.99,-50.63 51.48,-60.79 80.43,-95.66 57.11,-68.8 18.8,-232 151.05,-162.02 -6.7,80.47 -77.5,223.58 -110.88,290.25 -57.92,115.64 -90.63,175.41 -94.9,316 -2.09,69.11 8.02,144.03 8.29,169.52 0.4,38.02 -14.02,47.68 -31.75,71.13 -40,52.92 -5.46,207 -5.56,278.18 -0.12,81.56 -7.97,128.5 19.56,185.88 61.42,14.32 95.11,14.32 156.53,0 0,-57.78 17.1,-101 39.42,-136.68 106.46,-170.24 90.87,-45.39 20.59,-305.67 -13.56,-50.23 -5.28,-28.44 -1.31,-76.16 -47.76,-25.28 -50.07,-43.22 -97.83,-68.49 0,-72.34 39.09,-235.71 95.01,-276.75 63.63,-46.71 65.58,-90.84 94.54,-179.39 21.53,-65.85 26.16,-104.8 104.3,-111.75 80.85,-7.18 93.23,34.65 159.05,56.55 47.4,15.77 45.46,12.09 40.17,53.65 -5.1,40.08 -12.48,54.51 -19.28,92.37 -17.53,97.68 88.34,29.55 124.58,24.51 122.69,-17.06 48.46,-10.23 106.02,-119 38.22,0 86.55,-2.43 110.07,7.33 43.68,18.1 69.35,207.62 95.38,256.82 57.19,-1.28 61.49,-33.02 90,-76.32 76.39,-116.04 138.36,-106.03 169.68,-241.23 6.64,-28.68 8.82,-42.54 33.82,-54.22l55.78 12c17.76,18.97 17.59,47.47 23.19,75.36 37.18,185.01 153.66,148.63 204.03,149.2 55.56,0.64 101.31,28.78 144.14,50.5 54.47,27.62 215.71,98.11 291.93,50.45 42.17,-26.36 54.74,-63.17 98.94,-86.93 33.91,-18.23 46.39,-10.11 73.92,-23.92 49.65,-24.89 6.4,-27.24 57.06,-40.77 17.19,35.83 20.28,82.76 8.04,124.98 -22.47,77.5 -91.37,58.98 -154.49,168.83 -21.37,37.19 -34.92,68.54 -53.35,112.95l-95.1 227.75c-23.23,58.14 -81.64,176.03 -86.65,236.2 33.61,38.67 62.68,58.7 136.96,58.7 30.47,-57.57 47.87,-104.98 75.52,-169.06l102.79 -210.28c12.29,-21.25 14.18,-39.71 19.42,-49.06 21.72,-38.73 41.53,-10.15 79.48,-47.7 42.29,-41.85 69.58,-104.41 84.77,-169.6 33.49,22.44 30.34,23.6 48.91,58.7 -34.07,64.41 -109.35,80 -127.18,156.53 26.28,17.6 51.26,34.69 82.03,24.57 47.04,-15.48 6.51,3.61 29.85,-20.16 19.51,-19.87 57.21,-76 64.22,-102.24 49.14,0 67.9,11.64 88.05,39.13 -14.59,62.62 -74.94,82.73 -48.92,136.97 25.46,12.22 94.6,17.68 133.24,6.06 60.13,-18.1 20.75,-55.74 89.3,-52.11 45.28,2.4 78.55,20.87 81.73,-50.8 3.5,-78.95 -13.54,-77.23 18.59,-137.95 54.9,4.58 44.17,32.31 87.71,10.55 50.76,-25.36 129.63,-119.77 290.16,-85.16 92.27,19.89 89.4,61.05 138.18,116.2 107.79,121.88 85.17,42.81 159,36.68 -6.77,29.07 -22.56,48.07 -9.02,61.6 35.1,35.1 56.68,-45.54 115.01,-41.88 96.33,6.05 208.4,123.86 330.84,127.03l-23.19 -33.38 122.49 15.14c-13.35,-76.96 -172.45,-179.44 -233.09,-236.11l-87.24 -78.72c-17.89,-16.69 -26.84,-18.9 -44.31,-34.34l-167.09 -145.63c-17.59,-17.21 -24.69,-18.82 -43.93,-34.72l-723.55 -626.09c-20.7,-19.46 -28.18,-19.2 -48.93,-39.58 -2.3,0.87 -5.58,0.36 -6.57,3.37l-25.15 14.28c-10.65,5.97 -19.38,11.5 -32.77,15.45 -90.89,26.79 -153.66,-25.84 -172.44,-127.56l-1778.34 -71.31c-43.14,97.38 -37.18,134.94 -118.04,185.04 -152.71,94.62 -354.96,3.81 -382.52,-163.12 -23.71,-143.6 43.3,-160.45 61.76,-238.61 -38.46,-33.3 -44.41,-41.78 -75.68,-81.29l-77.33 -89.04c-17.22,-18.96 -21.9,-17.56 -38.84,-39.01l-304.87 -350.65c-15.82,-17.34 -22.04,-33.24 -37.78,-50.7 -17.26,-19.17 -21.16,-16.65 -38.73,-38.7 -14.21,-17.85 -25.78,-35.73 -40.91,-60.04 45.25,19.12 50.93,52.39 129.43,127.19l354.93 398.79c16.32,17.41 24.5,19.61 40.86,36.93 37.43,39.62 10.85,25.4 78.24,88.19 17.52,16.33 26.33,29.9 39.68,46.3 66.18,-27.37 203.42,-107.56 321.51,13.54 187.25,192.01 -122.17,187.22 534.6,192.39 145.93,1.16 297.21,7.06 443.86,13.28 300,12.72 603.14,16.91 902.37,27.71 69.08,-127.85 249.09,-93.08 248.62,68.06 -0.19,65.12 70.08,83.26 131.09,147.84l409.39 363.27c18.33,15.93 32.43,20.86 51.07,37.49 23.39,20.89 22.86,27.89 49.55,47.98l364.38 320.43c21.47,22.52 31.03,24.09 54.23,43.86 78.06,66.51 239.18,229.56 323.18,260.45 24.02,-45.28 -3.44,-77.62 29.35,-110.84l46.7 101.8c44.69,-31.48 31.04,-38.23 64.48,-72.35 12.2,-12.44 2.82,-5 16,-13.98 13.98,31.77 2.85,13.7 4.22,33.52 2.94,42.16 -6.32,-44.97 0.69,15.85l5.04 24.47c12.82,-47.61 174.49,-351.54 210.84,-419.87 68.96,-129.68 175.46,-304.91 215.75,-416.4 -12.8,-13.73 -37.47,-32.94 -47.06,-57.3 -14.46,-36.75 -4.82,-54.88 3.68,-89.45l-275.75 -78.27c-16.41,-35.46 5.69,-24 -16.15,-71.12 -14.1,-30.4 -28.95,-40.36 -44.14,-74.04 -24.06,-53.33 -28.31,-113.46 -57.11,-167.9 -173.02,0 -104.2,53.21 -345.1,12.46 -117.31,-19.85 -239.72,-29.01 -358.87,-42.24 -126.79,-14.07 -286.74,-182.88 -261.05,-318.6 11.17,-59 40.9,-106.41 45.39,-160.35 -59.74,-89.22 -176.64,-43.34 -219.18,-123.24 -31.77,-59.64 -2.4,-66.56 -62.91,-113.19 -56.72,-43.69 -51.72,-27.1 -70.1,-105.99 -100.38,-2.24 -83.24,-61.55 -106.95,-127.86 -22.26,-62.27 -114.97,-58.02 -176.76,-58.02 -85.77,-128.09 -75.98,-66.69 -149.93,-94.65 -22.16,-8.38 -243.27,-257.26 -279.2,-1.85 -26.31,186.96 21.68,146.48 -50.26,184.55 1.13,50.72 15.71,34.6 1.92,70.3 -17.92,46.36 -49.93,56.39 -51.56,213.36 -0.67,63.69 25.91,107.06 -2.96,152.78 -17.96,28.43 -25.16,15.14 -33.12,55.06 -5.09,25.49 8.19,92.83 -48.78,110.23 -85.52,26.11 4.08,-60.46 -3.94,-110.18 -11.05,-68.54 -104.09,-76.51 -106.15,-168.71 83.26,-19.39 103.2,-105.18 68.86,-186.24 -14.69,-34.67 -40.97,-55.06 -60.32,-86.45 -25.16,-40.82 -21.25,-74.17 -37.89,-108.86 -93.45,0 -155.37,-9.78 -254.37,-9.78 -16.37,-70.27 68.48,-308.56 68.48,-410.91 -66.39,-15.47 -578.65,-268.14 -686.2,-311.69 -344.26,-139.39 -223.65,-263.28 -223.65,849.78 -61.94,0 -124.03,-0.42 -185.96,0.07 -121.95,0.98 -71.01,0.83 -146.67,-39.21 -45.08,30.2 -55.24,34.37 -120.19,12.72 -76.89,-25.64 -78.9,-51.42 -124.95,-52.67 -51.94,-1.42 -31.09,7.71 -62.26,26.13 -29.88,17.66 -15.36,5.89 -64.43,3.89 -105.76,-4.3 -62.77,35.64 -87.99,88.21 -19.47,-13.04 -24.48,-24.15 -43.65,-34.61 -37.81,-20.64 -125.91,21.52 -193.04,-208.08 -20.6,-70.47 -54.35,-101.34 -93.11,-151.48 -26.49,-34.29 -18.77,-52.99 -49.99,-67.41 -11.57,-5.33 -17.44,-5.19 -32.3,-6.83 -51.15,-5.67 -35.3,10.78 -70.44,-17.62l-87.94 -78.37c-32.2,-26.21 -64.88,-54.2 -100.48,-71.53z"/>
  <path class="fil0" d="M4507.92 3882.23c23.03,46.68 -2.57,80.35 -39.66,57.97 -34.8,-21 -20.51,-67.94 39.66,-57.97zm1345.59 -2099.76c-0.64,-1.11 -25.1,-11.36 -3.05,-43.19 47.02,-67.84 109.78,88.23 3.05,43.19zm-1375.32 -104c16.6,-12.01 37.71,-6.16 54.42,5.66 36.12,48.08 -78.56,104.27 -54.42,-5.66zm-752.45 -117.55c36.23,54.35 -20.78,82.73 -48.4,49.47 -15.87,-19.11 -2.11,-70.19 48.4,-49.47zm-1086.25 -586.54c14.75,93.53 -95.83,63.7 -49.12,-11.61l49.12 11.61zm-740.06 52.77c-60.27,9.94 -86.37,-9.32 -42.31,-60.15 55.71,-1.51 52.23,16.98 42.31,60.15zm772.52 -127.95c-18.92,9.66 -33.65,-2.41 -40.76,-12.8 -15.27,-22.38 -2.77,-32.56 3.68,-43.47 66.21,-26.7 73.91,37.47 37.08,56.28zm-2213.87 -550.01c63.38,-1.15 59.74,52.85 25.45,63.96 -41.84,13.56 -61.61,-24.95 -25.45,-63.96zm-68.48 -117.72c62.29,-0.07 58.5,52.44 25.08,64.02 -43.85,15.19 -60.95,-25.4 -25.08,-64.02zm3512.22 4411.09c8.45,-14.37 12.47,14.54 0.66,-28.04l-36.76 -86.64 105.1 75.17 20.45 -121.69 47.53 109.25c32.27,-23.82 49.59,-65.83 81.45,-94.18l-19.55 127.26 45.71 -18.22 9.78 -10.51c14.3,-53.52 86.79,-166.54 121.47,-211.17 26.33,-33.88 138.93,-139.63 201.39,-141.03 -1.16,51.88 -10.8,37.51 -19.57,81.97l128.91 -118.29 -31.08 -88.69c-37.88,-6.71 -51.35,-8.15 -68.48,-31.53l68.48 3.29c15.66,-24.02 11.57,-30.28 34.8,-56.45 5.16,-5.8 17.01,-16.66 25.17,-24.01 47.89,-43.1 -39.75,34.95 11.53,-10.14 1.35,-1.19 5.11,-1.69 6.11,-5.24 1,-3.6 4.14,-3.54 6.25,-5.27 -8.99,-39.01 -57.03,-218.88 -74.06,-239.02 -50.26,-11.11 -81.6,9.4 -73.76,-38.22 1.62,-9.84 13.56,-33.73 18.52,-41.79 2.26,-3.67 9.32,-13.55 12.33,-17.41 18.14,-23.21 0.23,-0.47 13.81,-15.76 -17.04,-102.08 -419.39,-1495.96 -430.71,-1511.09 -429.11,50.97 -466.26,-472.03 -145.43,-560.17 63.68,-17.49 130.2,-13.05 189.16,12.22 131.96,56.54 140.33,119.44 178.83,274.02l1627.83 93.9c-15.4,-17.59 -48.69,-39.43 -57.33,-54.59 128.53,16.99 93.36,4.64 64.06,-84.69 43.25,17.6 38.45,50.91 81.76,43.91 20.11,-34.23 14.89,-76.2 11.5,-155.45 -2.15,-50.29 -8.92,-102.82 -8.31,-151.71 -38.78,-8.28 -419.68,-269 -486.19,-311.24l-76.45 -40.96c-55,82.13 -30.67,114.07 -72.19,182.17 -164.11,269.1 -262.32,156.08 -172.49,-64.88 14.5,-35.65 29.45,-56.41 29.45,-107.51 -35.18,-23.57 -41.17,-21.34 -78.26,-39.13 -25.41,-52.97 7.27,-94.32 -68.48,-78.27 0,148.36 4.74,301.1 -80.36,408.82 -35.57,45.01 -61.27,31.43 -134.87,31.43 -19.58,-37 -34.55,-75.1 -68.48,-97.83 -50.05,11.67 -47.87,19.75 -68.49,58.7 -57.95,0 -67.64,9.45 -117.6,10.62 -70.75,1.67 -55.44,-16.08 -107.42,-20.41 -31.8,8.24 -58.5,92.12 -173.51,-2.59 -23.21,-19.11 -41.2,-42.3 -63.53,-63.64 -27.78,-26.56 -42.84,-41.38 -95.59,-41.38 -14.39,27.2 -21.39,44.12 -29.34,78.26 -55.26,0 -54.91,-5.84 -76.66,-40.74 -117.65,-188.81 -260.07,14.02 -316.06,10.27 -80.69,-5.4 35.31,-58.35 40.74,-145.54 3.66,-58.75 10.18,-63.04 -0.23,-107.71 -34.1,-7.94 -75.56,0.07 -92.14,-25.39 -29.12,-44.79 22.92,-63.43 -64.4,-43.09 -2.14,-96.2 -71.75,-22.77 6.1,-131.63 32.88,-45.98 5.08,-85.82 -35.45,-112.95 -56.48,15.08 -1.91,27.16 -70.43,46.97 -24.72,7.15 -83.31,19.66 -105.68,21.51 14.26,-61.18 11.07,-71.65 -19.56,-117.4 -81.3,1.82 -94.64,48.28 -185.88,0 24.09,-32.87 32.38,-21.81 68.48,-39.13 0,-38.62 -3.07,-39.7 -9.78,-68.48 -56.94,1.27 -48.74,22.3 -87.41,18.69 -44.93,-4.2 -18.42,-24.72 -69.12,-38.26 -62.69,41.98 -94.26,82.03 -88.05,156.53 25.97,12.46 10.47,8.93 48.92,9.79 4.89,58.84 4.89,29.2 0,88.04 -17.58,4.09 -51.72,15.74 -77.92,10.27 -48.14,-10.06 -21.33,-16.75 -34.22,-64.45 -16.25,-60.12 -125.4,-46.71 -129.53,-241.29 -1.49,-70.17 43.67,-27.3 85.13,-105.66 -16.31,-24.36 -26.71,-40.37 -58.69,-48.91 0,-52.23 17.15,-112.28 -36.2,-106.69 -44.62,4.66 -42.77,44.89 -90.98,57.77 -7.38,-88.63 -89.56,-98.59 -107.62,-176.09 -84.95,0 -34.37,17.32 -92.27,34.91 -34.55,10.5 -74.65,6.65 -117.17,19.8 -128.75,39.83 -182.87,217.09 -252.6,295.27 -33.63,37.72 -58.24,16.66 -88.95,48.02 -24.56,25.07 -19.8,67.14 -36.02,100.95 -155.56,0 -71.78,-2.65 -159.37,-46.91 -45.93,-23.19 -111.87,9.97 -124.34,56.69 29.77,40.63 82.33,39.76 97.83,97.83 -103.18,-24.04 -23.18,-29.35 -166.31,-29.35 0,-100.39 36.66,-216.61 -89.27,-224.69 -74.58,-4.79 -86.46,63.71 -286.49,3.65 -52.02,-15.61 -61.34,-38.53 -89.68,-76.63 -58.18,-78.23 -76.33,-148.58 -190.23,-152.85 -96.82,-3.63 -62.14,31.05 -135.05,-20.69 -56.65,-40.2 -96.65,-71.51 -159.59,-94.91l-60.74 -27.31c-72.82,-20.54 -61.68,-1.38 -102.56,-63.76 -82.41,-125.76 -79.27,-101.82 -214.44,-127.99 -30.9,-5.98 -94.08,-49.43 -125.81,-42.43 -39.13,8.62 -29.53,39.91 -115.77,51.85 -92.62,12.82 -33.36,-38.59 -122.9,-46.04 -19.52,10.33 -36.64,18.72 -45.09,44.21 -19.12,57.61 97.76,163.25 134.52,208.78 99.67,123.52 97.97,67.45 76.9,157.91 40.88,19.62 85.21,20.02 127.35,38.95 66.96,30.09 151.81,86.51 170.55,162.1 12.29,49.58 14.23,95.35 24.95,141.36 60.59,16.06 31.79,0 68.48,0 17.25,-74.06 -17.59,-167.97 9.78,-225.01 33.64,8.98 74.84,84.15 102.05,24.65 20.58,-45 -26.16,-100.06 110.88,-71.43 63.58,13.29 169.13,102.29 236.93,135.01 18.6,8.98 40.36,16.7 60.48,27.56 61.52,33.21 105.9,80.15 141.29,142.42 21.06,37.05 34.69,94.96 43.9,141.99 13.11,66.93 6.52,93.77 57.79,128.1 71.91,-48.16 53.06,-152.19 128.7,-164.79 26.68,-4.45 76.92,-1.53 106.09,-1.53 33.23,62.79 32.74,146.3 90.83,92.27 25.26,-23.49 3.98,-20.28 46.14,-23.78 11.84,50.84 1.79,125.72 12.1,164 10.07,37.34 57.02,66.78 105.3,70.8 32.78,-21.95 50.05,-47.71 71.61,-84.92 20.81,-35.9 33.06,-70.16 75.13,-81.39 20.44,44.19 -26.73,42.37 26.42,100.63 29.46,32.3 54.22,42.14 72.78,83.89 39.64,89.21 15.83,30.65 74.09,72.65 69.1,49.84 25.28,92.89 179.89,123.38 51.87,10.23 71.88,21.63 104.39,52.14 102.95,96.6 53.3,125.57 178.34,115.16 8.8,32.94 41.25,76.3 62.66,103.66 24.51,31.31 47.06,68.55 93.87,72.45 -3.98,-47.76 -26.22,-48.07 -40.93,-76.94 -20.76,-40.74 0.8,-64.07 1.79,-108.95 88.33,7.35 47.89,91.23 127.18,97.83 28.06,-58.48 -30.84,-105.26 -9.78,-195.66 59.81,1.34 56.64,17.65 68.48,68.48l39.14 0c5.99,-25.73 8.9,-28.75 19.56,-48.91 84.07,44.48 47.61,88.06 150.65,32.92 41.17,-22.04 52.16,-20.67 86.95,3.14 81.77,55.95 94.18,-0.14 173.31,-6.73 -1.84,82.48 -57.94,42.64 -48.59,135.38 5.34,52.98 32.29,102.42 69.48,127.44 24.57,16.52 120.03,41.5 129,63.81 10.62,26.43 -14.34,43.43 45.77,133.19 -181.55,0 -66.36,-37.44 -149,-105.36 -47.52,-39.04 -104.92,-66.83 -160.69,-94.5 -60.12,-29.84 -76.57,-3.23 -101.21,43.33 -44.51,0 -66.28,-5.35 -97.84,9.79 17.17,64.32 45.93,18.9 84.44,72.1 10.64,14.71 16.87,34.24 26.3,51.97 16.06,30.23 20.12,28.27 36.02,52.02 105.3,0 54.59,-39.13 146.75,-39.13 7.19,30.87 26.54,94.56 9.78,127.18 -14.74,36.52 7.25,6.7 -33.46,25.24 -29.44,13.4 -42.64,-7.17 -45.26,72.15 -4.33,131.31 -38.15,103.79 -38.69,137.41 11.48,49.24 58.39,96.14 107.62,107.61 0,82.97 -9.78,131.51 -9.78,205.45 -82.84,43.83 -78.98,71.06 -9.79,117.4 0,106.59 0.9,121.26 -63.31,171.66 -16.44,12.9 -57.85,47.81 -20.75,67.9 22.4,12.13 62.7,-22.81 84.06,-34.11 152.49,102.1 -39.13,194.75 -39.13,303.29 96.56,64.65 117.07,-23.45 188.23,-105.28 23.54,-27.06 27.26,-42.2 66.13,-51.26 64.43,61.11 -8.31,172.14 -43.26,230.67 -22.79,38.18 -37.55,67.78 -61.03,105.29 -32.39,51.74 -52.25,34.67 -52.25,114.06 77.83,52.11 67.9,23.73 149.2,105.17 87.85,87.99 160.66,182.18 239.89,278.63 21.4,26.04 34.3,43.8 55.35,71.84 72.75,96.89 65.76,84.6 -17.19,167.43 -51.97,51.91 -24.34,59.73 3.22,100.91 87.44,0 75.5,-21.59 136.97,19.56 -23.06,43.57 -139.57,173.52 -185.89,185.88 1,44.74 15.18,54.04 36.18,81.24 19.19,24.86 36.15,42.75 51.88,64.19z"/>
  <path class="fil1" d="M18743.2 3191.92c-56.34,0.56 -90.65,12.6 -136.67,11.14 -46.23,-1.47 -69.61,-10.81 -127.49,-10.94 -1.99,1.76 -5.55,0.96 -6.84,4.09l-160.95 27.59c-61.01,10.16 -105.46,26.55 -162.89,42.56 -23.53,6.57 -50.51,16.61 -71.7,26.14 -134.29,60.37 -207.63,101.31 -320.76,197.77 -97.93,83.51 -93.48,87.25 -173.27,178.94l-107.19 156.96c-158.85,267.93 -203.78,636.39 -116.42,969.17l25.26 82.37c10.15,30.94 1.55,6.99 13.44,35.48 41.09,98.54 44.07,111.01 103.43,209.65 51.82,86.11 111.94,156.95 183,227.9 76.87,76.77 137.24,123.3 227.34,183.56 83.66,55.94 178.78,92.14 283.79,127.09 201.53,67.11 529.42,66.83 732.83,8.79 205.9,-58.73 387.48,-158.44 538.98,-302.39 48.95,-46.52 161.11,-161.55 166.38,-224.95 -156.55,-75.12 -371.34,-215.63 -518.51,-293.5 -20.97,14.03 -57.34,66.89 -134.52,129.63 -38.85,31.58 -78.88,49.79 -126.72,68.94l-13.92 5.66c-2.2,0.87 -4.7,1.99 -6.92,2.86 -10.54,4.1 -11.47,4.75 -28.76,10.37 -224.46,72.93 -479.36,22.78 -653.34,-123.99 -11.2,-9.45 -10.3,-8.29 -21.2,-17.93 -13.27,-11.72 -23.37,-21.48 -33.77,-34.72l-132.68 -268.44c-34.14,-166.82 -24.54,-302.91 37.71,-456.04 181.07,-445.45 828.03,-450.54 1048.25,-228.79 67.09,67.56 69.56,73.63 114.8,159.13 -63.39,0 -547.51,-5.06 -565.81,1.63 -36.61,13.37 -21.19,188.07 -21.19,262.53 0,73.35 -15.08,222.09 9.79,273.94 24.46,24.46 970.8,8.62 1155.29,10.64 85.15,0.92 67.65,10.43 67.63,-167.19 -0.02,-173.93 -5.45,-291.44 -38.99,-430.6 -24.49,-101.55 -83.12,-247.35 -138.97,-330.64l-105.74 -138.85c-1.31,-1.55 -3.11,-3.8 -4.42,-5.36l-79.23 -77.3c-106.28,-89.31 -111.55,-99.51 -241.22,-169.68 -119.76,-64.81 -272.89,-106.56 -409.26,-118.75 -49.74,-4.45 -37.06,-4.15 -48.56,-14.45z"/>
  <path class="fil2" d="M18479.05 3192.12c57.88,0.13 81.26,9.47 127.49,10.94 46.01,1.46 80.32,-10.58 136.67,-11.14 107.83,9.64 345.76,-66.42 420.83,-103.45 247.68,-122.18 419.09,-290.97 536.37,-539.8 14.36,-30.44 25.14,-55.69 38.07,-89.11 77.53,-200.28 68.56,-405.71 71.29,-604.12 0.76,-54.98 14.29,-88.74 -29.39,-97.78l-939.34 0.13c-316.05,0 -264.16,-73.71 -264.16,273.94 0,71.44 -14.41,213.73 9.79,264.15 60.51,29.04 470.75,9.79 577.21,9.79 -32.51,48.55 -60.89,110.54 -105.09,149.27 -317.87,278.57 -990.63,166.95 -1095.39,-328.25 -41.88,-197.99 -18.26,-394.99 77.12,-543.27 69.75,-108.42 167.06,-191.43 288.72,-239.58 350.71,-138.77 731.49,68.88 766.15,198.72 59.38,-1.32 401.24,-215.98 468.98,-254.98 21.28,-12.24 48.31,-24.6 69.1,-38.51 -33.21,-142.57 -296.4,-330.14 -416.72,-405.08 -78.98,-49.19 -199.23,-92.99 -291.73,-119.18 -96.67,-27.36 -344.09,-68.86 -445.98,-43.19 -89.03,22.44 -179.27,4.22 -376.12,83.7 -110.06,44.43 -205.77,98.94 -299.11,170.49l-228.62 231.2 -118.45 184.83c-85.25,169.81 -131.03,328.66 -141.96,533.08 -5.56,103.87 13.61,295.66 36.56,374.44 52.84,181.39 114.97,332.88 237.35,476.83l22.55 26.39c10.82,12.54 17.5,20.71 27.13,31.57l73.12 73.63c13.41,12.22 17.7,14.74 31.22,27.48 39.72,37.45 69.09,58.25 116.06,89.4 103.92,68.89 153.87,92.97 272.17,138.73 58.1,22.48 278.71,77.96 348.12,68.74z"/>
  <path class="fil3" d="M22741.08 3156.81c-7.16,-3.54 -139.08,-0.15 -172.59,-0.13 -31.2,0.01 -67.88,4.59 -98.11,3.49 -44.56,-1.61 -34.46,-11.09 -78,-7.05l-159.04 50.1c-328.77,117.64 -534.28,407.71 -505.73,765.11 6.33,79.22 29.37,172.96 61.38,241.9 29.83,64.27 78.36,134.27 132.76,180.31l170.39 123.12c312.21,185.91 783.62,207.49 808.58,385.81 13.7,97.84 -56.41,136.14 -133.4,158.5 -181.53,52.72 -430.35,-14.17 -546.85,-193.26l-53.11 -103.42c-60.33,1.35 -219.42,114.29 -277.23,143.45 -30.68,15.47 -256.85,145.58 -260.86,159.82 3.71,44.6 40.27,105.04 58.11,137.56 187.25,341.3 550.28,468.1 949.8,469.25 508.62,1.45 971.44,-296.61 885.86,-896.1 -4.89,-34.22 -6.53,-56.71 -14.87,-82.98 -27.35,-86.21 -82.37,-188.47 -149.43,-251.67 -18.37,-17.31 -38.49,-31.04 -60.63,-47 -155.34,-112 -185.41,-107.63 -332.81,-166.14 -141.64,-56.21 -426.56,-136.41 -518.36,-195.81 -41.25,-26.69 -82.99,-62.31 -92.11,-114.47 -8.64,-49.41 25.44,-109.51 66.7,-134.45 111.41,-67.37 354,-29.86 444.67,103.58 15.16,22.31 25.09,36.18 39.02,58.81 16.98,27.55 21.13,46.37 35.02,72.61l391.32 -225.03c24.73,-13.29 43.56,-25.36 68.03,-39.58 6.26,-3.64 26.55,-14.96 30.95,-17.98 28.42,-19.49 45.88,-16.74 16.05,-75.88 -95.16,-188.63 -265.1,-347.37 -461.45,-429.97 -111.13,-46.74 -125.82,-41.02 -221.76,-62.55 -31.32,-7.03 -26.59,13.3 -22.31,-9.95z"/>
  <path class="fil1" d="M21618.89 1268.62l1.79 19.57c39.93,11.33 507.25,295.36 536.91,303.29 57.37,-85.68 63.49,-154.28 197.25,-243 35.33,-23.43 56.92,-29.42 102.06,-44.69 138.06,-46.66 429.08,-42.14 444.82,102.17 10.85,99.56 -64.1,138.04 -125.98,167.75 -62.56,30.04 -156.17,56.81 -226.75,76.52 -370.16,103.38 -757.63,242.72 -815.11,671.96 -12.77,95.31 -10.92,209.03 17.3,301.83 3.3,10.86 5.02,19.27 8.57,30.56 79.26,251.55 312.01,424.75 560.29,486.19 26.94,6.67 43.36,5.35 72.35,12.35 43.54,-4.04 33.44,5.44 78,7.05 30.22,1.1 66.91,-3.48 98.11,-3.49 33.5,-0.02 165.43,-3.42 172.59,0.13 41.47,-16.5 116.66,-16.64 246.85,-69.73 132.94,-54.2 271.53,-153.29 357.79,-268.34 31.1,-41.48 110.43,-153.56 122.83,-200.01l-257.72 -153.18c-49.12,-26.82 -81.14,-48.39 -130.25,-75.21 -37.82,-20.64 -103.3,-66.27 -140.33,-74.9 -45.7,86.36 -76.31,161.59 -182.47,218.65 -87.43,46.99 -228.67,61.44 -323.48,13.36 -109.11,-55.34 -96.33,-184.08 -2.66,-241.67 84.87,-52.17 182.34,-77.09 288.59,-112.53 53.99,-18 91.93,-32.63 145.46,-50.21l222.79 -80.5c85.82,-35.9 211.32,-107.74 276.48,-173.56 8.64,-8.73 14.65,-16.41 23.25,-25.66 148.48,-159.61 175.86,-414.8 123.05,-627.64 -14.3,-57.63 -34.94,-98 -58.9,-146.55 -84.12,-170.48 -276.65,-295.44 -453.44,-348.8 -259.13,-78.21 -612.34,-67.59 -870.86,29.15 -385.56,144.28 -466.92,469.4 -509.18,499.12z"/>
  <path class="fil3" d="M26990.58 3152.19c-40.16,-1.95 -46.58,9.26 -97.44,8.04l-206.21 0.26c-35.17,-1.16 -51.28,-11.16 -87.69,-7.89l21.2 10.03c-107.51,3.96 -250.56,49.25 -324.88,81.84 -98.79,43.32 -204.16,100.74 -283.51,166.52 -142.78,118.35 -258,246.98 -342.42,420.69 -103.83,213.66 -139.57,434.49 -127.07,685.1 2.06,41.27 16.04,125.29 25.41,170.25 46.13,221.2 123.88,371.51 265.08,546.94 88.32,109.72 110.95,115.87 206.21,194.91 74.81,62.06 165.93,110.22 255.26,145.86 50.27,20.05 92.5,34.21 153.63,51.82 105.33,30.34 235.62,44.79 366.52,44.84 312.57,0.13 648.87,-136.19 862.92,-350.27 12.62,-12.62 11.29,-12.24 22.82,-26.09l113.38 -140.99c20.14,-24.34 34.86,-35.57 37.72,-69.91l-207.38 -115.47c-64.2,-40.4 -296.4,-186.62 -350.27,-187.82 -10.4,125.05 -353.69,366.04 -716.89,237.52 -122.48,-43.34 -219.57,-105.23 -294.98,-213.76 -48.92,-70.4 -99.97,-192.03 -103.49,-278.07 -9.57,-234.72 -19.99,-295.77 110.59,-515.64 160.71,-270.6 661.53,-325.56 899.61,-112.99 65.88,58.81 108.14,127.27 124.73,139.42 77.04,-20.57 471.6,-287.97 538.08,-293.5l0 -39.13c-22.1,-8 -8.04,-1.47 -23.32,-15.81l-57.61 -79.36c-162.04,-219.25 -532.81,-442.92 -799.57,-442.92l19.57 -14.4z"/>
  <path class="fil1" d="M16307.14 5064.56l-264.15 0c-22.55,0 -29.35,-6.8 -29.35,-29.34l0 -440.26c0,-22.54 6.8,-29.35 29.35,-29.35 190.32,0 347.41,-29.42 448.03,70.48 139.99,138.99 70.14,428.47 -183.88,428.47zm-293.5 -1923.98l-626.13 0.46 0 2520.31c315.37,0 720.01,7.89 1027.63,0.38 34.35,-0.84 42.66,-3.85 68.23,-10.04 90.29,-21.86 94.97,-10.65 205.11,-59.04 15.52,-6.81 35.61,-14.79 54.07,-24.2l157.3 -106.87c30.72,-24.03 57.83,-53.31 85.01,-81.3 155.01,-159.6 225.76,-433.68 201.37,-656.73 -18.03,-164.91 -45.55,-240.02 -129.8,-378.94l-76.55 -99.55c-45.97,-49.65 -127.6,-118.92 -187.46,-154.94 -72.31,-43.51 -157.24,-79 -243.02,-99.39 -99.8,-23.73 -199.11,-21.92 -320.5,-21.92 -251.2,0 -215.77,32.93 -215.25,-127.17 0.77,-233.64 0.02,-467.42 0.02,-701.08z"/>
  <path class="fil1" d="M26599.24 3152.6c36.41,-3.27 52.51,6.73 87.69,7.89l206.21 -0.26c50.86,1.22 57.28,-10 97.44,-8.04 66.69,-13.67 51.97,-0.52 152.41,-28.85 183.97,-51.9 315.46,-124.85 462.69,-241.73 65.98,-52.38 120.92,-111.93 173.23,-178.97 20.86,-26.73 65.4,-76.47 72.61,-103.49 -17.72,-24.2 -406.07,-235 -477.85,-275.47 -43.87,-24.74 -41.28,-26.95 -79.8,-27.82 -2.68,32.21 1.82,24.71 -41.94,75.46 -17.02,19.74 -44.58,47.69 -63.98,63.2 -284,226.97 -853.88,160.23 -985.82,-289.4 -51.14,-174.28 -43.69,-367.58 36.57,-532.68 36.91,-75.94 111.07,-154.7 177.26,-204.29 348.83,-261.29 863.37,-20.88 877.92,153.96 60.97,-1.36 217.09,-106.68 278.07,-142.62 33.29,-19.63 246.27,-148.12 279.58,-150.89 -3.31,-39.79 -10.03,-32.4 -33.12,-64.71 -16.64,-23.27 -23.53,-34.02 -40.79,-57.03 -30.2,-40.23 -59.48,-69.47 -91.93,-103.74l-103.76 -91.91c-131.59,-98.24 -229.21,-155.53 -397.98,-208.59 -306.01,-96.2 -714.55,-68.81 -1007.54,93.34 -148.7,82.28 -272.24,182.77 -375.1,319.53 -95.4,126.83 -114.01,151.84 -180.49,318.46 -138.33,346.72 -90.13,784.5 75.3,1069.58 7.86,13.54 10.14,17.95 17.42,31.49 13.14,24.43 2.59,9.47 18.1,30.81 15.26,21.02 25.35,31.74 41.92,55.92l114.91 139.46c79.81,92.36 273.32,218.88 389.25,266.24 195.38,79.81 166.5,50.8 321.56,85.14z"/>
  <path class="fil2" d="M16346.27 1826.27l-332.63 0 0 -489.17 352.2 0c86.19,0 244.42,121.61 176.52,342.83 -10.63,34.64 -21.51,47.54 -44.57,72.83 -35.89,39.37 -82.62,73.51 -151.52,73.51zm-958.76 1314.77l626.13 -0.46 0 -707.73c250.64,0 463.15,19.79 683.86,-79.24 28.59,-12.83 49.79,-23.96 78.04,-39.37 33.04,-18.02 34.94,-18.83 65.58,-42.02 23.57,-17.83 39.17,-28.21 60.4,-47.23 136.95,-122.72 204.42,-219.75 261.13,-413.91 41.8,-143.08 34.27,-336.32 -7,-490.89 -28.57,-106.98 -91.72,-207.57 -160.65,-289.39 -67.96,-80.68 -148.13,-146.04 -242.6,-197.65 -64.2,-35.09 -136.43,-61.28 -207.56,-76.16 -103.25,-21.59 -115.35,-27.19 -247.42,-26.51l-888.73 1.69c-31.82,11.63 -22.35,38.87 -21.53,86.09 10.46,608.05 -0.41,1281.17 0.34,1898.31 0.09,73.85 -31.63,381.74 0,424.48z"/>
  <path class="fil1" d="M23683.8 3209.09l1584.9 0c0,-67.74 12.85,-464.85 -13.36,-508.51 -5.03,-8.37 -30.49,-39.6 -38.59,-49.46l-112.12 -142.25c-40.15,-48.87 -216.54,-260.91 -227.26,-301.05 20.44,-4.75 23.82,-5.59 44.17,-14.53l133.86 -71.59c102.99,-64.38 200.85,-172.8 252.3,-285.78 126.48,-277.68 72.99,-645.63 -104.93,-843.76 -48.63,-54.15 -70.82,-85.06 -141.24,-132.69 -252.08,-170.51 -593.74,-221.44 -881.47,-131.62 -222.41,69.43 -426.17,213.18 -524.65,424.34 -14.42,30.91 -32.08,62.53 -40.08,96.88 23.7,32.36 377.32,228.19 469.11,284.21 26.87,16.4 41.06,35.51 78.75,38.64 9.82,-20.45 8.02,-28.48 16.84,-51.64 6.85,-18 14.52,-32.33 21.96,-46.53 96.6,-184.71 369.91,-202.5 487.51,-85.7 73.35,72.85 115.69,286.45 -97.92,357.9 -47.73,15.97 -65.04,12.43 -125.1,11.86 -106.76,-1.01 -101.21,-13.99 -153.93,61.29l-198.27 310.47 275.21 350.92c17.25,21.61 31.57,39.5 47.57,60.05 17.77,22.8 33.67,35.75 48.99,58.63 -234.27,0 -470.56,3.05 -704.58,-0.18 -96.31,-1.33 -99.9,-17.81 -98.23,77.87l0.58 532.24z"/>
  <path class="fil3" d="M25268.7 3209.09l-1584.9 0 -0.58 515.73c-1.67,95.68 1.92,79.19 98.23,77.87 234.02,-3.23 470.31,-0.18 704.58,-0.18 -15.82,23.62 -26.39,28.6 -44.85,52.99l-33.25 45.01c-1.3,1.56 -3.17,3.76 -4.49,5.3 -1.85,2.17 -7.27,8.28 -9.13,10.43 -19.87,22.84 -26.24,30.89 -43.8,54.05 -7.76,10.22 -13.84,17.7 -21.75,27.16l-119.13 145.02c-22.56,23.59 -28.18,35.08 -48.09,59.53l-47.29 60.33 234.8 361.98c152.2,0 264.99,-10.24 343.33,67.58 32.32,32.09 55.22,90.34 55.22,147.66 0,58.88 -20.05,111.98 -61.81,150.85 -41.9,38.99 -80.41,53.78 -143.34,62.12 -66.52,8.82 -136.28,2.74 -185.34,-15.55 -1.36,-0.51 -29.87,-13.56 -33.56,-15.36 -19.75,-9.63 -15.69,-7.06 -31.7,-17.22 -46.62,-29.59 -72.89,-69.27 -98.03,-117.21l-30.65 -76.98c-35.54,2.96 -237.94,123.36 -279.82,150.65 -43.72,28.48 -90.69,52.15 -137.5,77.73 -35.93,19.62 -111.46,58.64 -130.54,84.68 28.44,122.1 137.4,239.26 217.59,320.49 331.62,335.96 1266.24,332.75 1487.77,-268.51l17.48 -51.01c32.39,-110.49 50.56,-253.57 31.4,-365.97 -37.47,-219.88 -131.15,-365.58 -313.9,-488.34 -46.6,-31.3 -130.19,-72.38 -188.07,-85.86l342.36 -420.75c65.02,-83.21 58.87,-29.45 58.76,-205.39 -0.07,-116.27 0,-232.56 0,-348.84z"/>
  <path class="fil1" d="M21032.5 3140.72l-627.9 -2.59c-1.62,-32.9 4.19,-44.73 -8.01,-67.2l0 1983.84 -587 0 0 606.57 1809.93 0c0,-697.65 45.53,-606.88 -136.97,-606.57l-450.04 0 0 -1914.05z"/>
  <path class="fil2" d="M20396.59 3070.93c12.21,22.47 6.39,34.3 8.01,67.2l627.9 2.59 0 -1803.62 587.01 0 1.17 -48.91 -1.79 -19.57c2.92,-119.69 0.61,-241.99 0.62,-361.98 0,-220.94 32.02,-176.1 -195.67,-176.1l-1477.29 0c-184.28,-0.3 -136.96,-93.1 -136.96,606.56l587 0 0 1733.84z"/>
  <path class="fil0" d="M14000.9 5632c-35.2,-124.91 143.22,-160.85 172.87,-56.04 14.92,52.71 -21.23,103.45 -60.61,113.52 -54.09,13.85 -99.83,-13.33 -112.27,-57.48zm-28.84 -172.66c65.27,-21.18 76.91,40.45 38.96,58.21 -24.7,11.56 -65.12,-13.59 -38.96,-58.21zm-3152.3 -443.7c-2.03,-41.97 63.38,-53.67 68.54,-9.62 5.73,48.85 -66.37,54.35 -68.54,9.62zm621.81 -1108.03c-93.46,51.32 -77.05,-105.25 4.91,-36.42l-4.91 36.42zm-691.38 936.84c-38.55,38.8 -32.64,126.95 -42.04,197.64 -12.03,90.47 -13.76,144.87 51.82,188.78 -45.17,193.88 -97.83,225.71 -97.83,313.07 45.04,-3.75 42.15,-25.92 76.38,-41.49 43.37,-19.73 64.02,1.34 109.51,2.36 45.82,-86.6 39.14,-201.8 39.14,-332.64 62.85,-5.23 49.62,-24.16 59.85,-86.89 21.54,-132.11 84.9,-100.66 126.02,-167.47 17.14,-27.85 32.96,-67.68 48.92,-97.83 173.64,0 24.72,-77.17 68.48,-166.32 21,-42.77 54.65,-29.75 131.17,-54.71 81.2,-26.49 68.63,-35.92 123.2,-72.47 62.62,5.21 58.16,25.86 117.26,-9.86 35.56,-21.49 49.27,-37.76 107.76,-39.06 20.98,39.67 22.42,72.41 70.07,60.85 53.51,-12.97 58.31,-47.09 106.02,-51.06 24.18,36.1 9.62,27.88 23.25,55.02 16.83,33.5 1.2,23.24 55.02,23.24l0 -136.96c74,39.16 193.77,55.77 271.14,149.55 43.14,52.29 99.93,119.85 159.22,153.83 42.54,24.39 35.09,10.75 83.63,23.99 86.15,23.5 148.48,136.34 236.22,184.47 49.18,26.97 82.19,46.07 133.53,71.92 51.55,25.94 95.15,42.66 146.66,68.57 132.35,66.59 150.48,38.47 199.04,114.03 16.13,25.11 146.34,104.33 183.29,129.77 106.81,73.54 122.82,114.25 191.32,121.75 45.7,5 123.35,27.78 162.49,52.73 57.54,36.7 -10.24,66.95 102.14,210.95 81.96,105.02 11.81,52.2 9.71,146.8 28.82,0 59.87,1.18 88.37,0.31 63.94,-1.91 179.83,-46.87 213.11,60.18 54.13,174.06 52.8,30.8 169.99,221.34 39.58,64.35 134.59,158.72 211.92,180.47 61.06,17.18 127.97,-77.54 161.01,-116.87l124.34 -159.38c53.7,-114.59 -47.65,-193.86 -54.92,-219.37 -20.16,-70.87 21.58,-45.07 -42.62,-153.05 -53.74,-90.4 -30.89,-134.42 -111.76,-181.75 -81.62,-47.78 -84.23,10.15 -95.61,-100.06 -9.81,-95.1 -57.22,-53.16 -86.65,-109.02 -15.1,-28.67 -5.31,-41.38 -26.8,-71.42 -36.35,-50.84 -60.54,-17.02 -61.22,-16.67 -30.68,12.38 -12.44,-12.34 -24.45,44.04 -7.27,34.11 -1.88,36.9 -14.68,63.58 -138.29,-11.51 -133.68,-39.58 -148.3,-66.93 -14.35,-26.85 -6.31,-27.48 -47.36,-30.9 -18.1,77.67 -87.24,77.12 -166.32,58.7 0,-46.16 4.35,-70.02 -16.59,-100.82 -58.29,-85.77 12.09,-169.32 -81.25,-231.82 -84.68,22.61 -65.93,123.28 -102.94,141.65 -17.49,8.68 -28.49,3.74 -50.64,8.32 -25.12,5.19 -26.94,12.85 -47.42,17.95 -16.4,4.08 -73.98,-1.6 -112.07,-1.6 -13.54,-58.12 -5.51,-116.63 -29.35,-166.31 -107.03,24.93 21.97,191.33 -176.1,58.7 0,-80.24 1.79,-101.34 -71.77,-114.1 -59.84,-10.39 -128.4,4.19 -187.17,-8.5 -134.03,-28.94 -165.61,-121.98 -259.57,-121.98 -8.29,17.26 -11.28,31.66 -19.57,48.92 -52.23,-1.17 -114.34,-39.85 -143.68,-81.35 -35.09,-49.64 27.73,33.7 -7.38,-12.19 -59.37,-77.59 -215.17,35.37 -301.71,-197.24 -33.93,-91.18 -20.42,-92.93 -104.88,-149.49 0,-76.95 39.7,-230.5 -19.57,-273.93 -73.19,49.02 13.43,116.75 -107.61,205.44 -43.19,-10.06 -63.04,-26.53 -91.36,-55.39 -47.28,-48.19 -14.82,-59.17 -33.99,-122.55 -27.97,-92.48 -98.35,-98.17 -168.15,-144.91 0,-145.96 -10.64,-68.48 -107.62,-68.48 -5.73,24.63 -9.93,58.17 -19.57,78.26 -40.03,-0.89 -42.55,-5.84 -68.48,-19.57 3.19,-143.13 73.7,-187.91 -48.98,-185.94 -65.6,1.05 -74.45,1.02 -57.92,-56.2 10.97,-37.95 35.02,-71.18 38.41,-107.41l-102.63 16.92c-65.93,130.88 -136.81,281.98 -208.17,432.58 -35.07,73.99 -68.22,148.34 -104.17,218.86 -29.87,58.57 -82.94,150.86 -100.77,210.81l88.29 -32.79c-10.35,35.32 -28.7,48.45 -65.78,99.96 29.21,15.25 21.18,9.11 58.04,13.86l54.91 15.5c-41.3,35.05 -74.23,16.96 -105.11,65.42l72.38 45.06c14.77,12.97 5.2,1.44 16.14,16.7l-54.9 2.44c-21.9,-2.81 -43.6,-7.16 -68.29,-9.31l47.6 119.16c-60.61,-24.58 -52.69,-46.29 -107.74,-64.43l-11.52 114.16c-44.39,-28.72 -31.83,-64.32 -63.77,-105.03 -11.4,10.87 0.42,-1.46 -14.96,16.13 -1.84,2.1 -7.29,8.6 -9.13,10.84 -29.51,35.8 -34.12,57.31 -63.96,57.92z"/>
  <path class="fil3" d="M6049.37 1542.55c-0.61,48.89 6.16,101.43 8.31,151.71 3.39,79.25 8.61,121.22 -11.5,155.45 -43.3,7 -38.51,-26.32 -81.76,-43.91 29.3,89.34 64.47,101.68 -64.06,84.69 8.64,15.16 41.93,37 57.33,54.59l-1627.83 -93.9c-38.5,-154.58 -46.88,-217.48 -178.83,-274.02 -58.97,-25.27 -125.48,-29.7 -189.16,-12.22 -320.83,88.14 -283.69,611.14 145.43,560.17 11.32,15.13 413.68,1409.01 430.71,1511.09 8.67,39.28 21,68.94 29.11,113.18 17.03,20.14 65.06,200 74.06,239.02 -2.1,1.74 -5.24,1.67 -6.25,5.27 -1,3.55 -4.76,4.06 -6.11,5.24 -51.28,45.09 36.36,-32.95 -11.53,10.14 -8.16,7.35 -20.01,18.21 -25.17,24.01 -23.23,26.17 -19.14,32.43 -34.8,56.45l0 28.24 31.08 88.69 -128.91 118.29 -212.61 214.14c-46.04,47.02 -35.31,29.52 -90.67,56.08l-9.78 10.51 -45.71 18.22 19.55 -127.26c-31.86,28.35 -49.19,70.36 -81.45,94.18l-47.53 -109.25 -20.45 121.69 -105.1 -75.17 36.76 86.64c11.81,42.59 7.8,13.68 -0.66,28.04 -36.93,-0.97 -80.23,-15.15 -117.39,-18.24 11.1,30.66 71.52,65.18 97.83,88.05 -42.18,9.83 -72.72,35.42 -117.4,39.13l0 19.57c59.41,0 78.39,9.78 127.18,9.78 -37.34,55.78 -68.88,72.49 -78.27,107.62 46.57,-10.85 84.29,-38.92 127.19,-48.92 -11.63,24.21 -19.57,89.14 -19.57,127.18 36.08,-26.43 43.88,-68.26 88.05,-97.83 3.07,36.95 25.12,99.96 48.92,117.4 0.96,-43.28 9.78,-69.12 9.78,-127.18 50.98,13.61 66.41,64.65 117.4,78.26 -15.1,-28.54 -45.78,-89.44 -48.92,-127.18 24.21,11.63 89.14,19.57 127.18,19.57 -26.37,-35.98 -83.52,-55.15 -107.62,-88.05 31.85,-2.65 39.96,-9.31 67.73,-20.33 3.83,-1.53 22.16,-8.45 27.28,-11.86 19.04,-12.67 14.15,-3.72 22.4,-26.51 -56.84,0 -72.28,0.73 -117.4,-9.78 55.19,-104.28 149.59,-163.6 212.82,-227.44 28.82,-29.11 49.52,-57.76 85.96,-75.85 13.29,-33.91 42.03,-48.78 69.39,-72.28 59.8,-51.37 31.82,-49.41 81.87,-79.68 14.72,5.85 5.65,-0.99 16.19,7.23 14.56,11.32 7.42,5.37 17.78,17.55 54.18,1.48 59.85,19.18 114.68,-7.75 37.48,-18.4 55.45,-46.02 68.82,-88.58 28.59,-91.03 -40.75,-150.88 -119.64,-167.32 -46.66,7.48 -46.06,-46.62 -58.63,-98.47 -11.12,-45.84 -27.81,-89.78 -34.87,-136.84 -8.41,-42.48 -32.16,-134.97 -50.96,-166.31l-398.4 -1467.47c2.19,-1.75 5.45,-6.8 6.5,-4.89l47.16 -34.52c17.4,-14.99 30.48,-28.5 44.44,-43.37 39.42,-42.02 41.48,-66.64 61.87,-120.39l1576.5 77.29c20.01,39.78 -16,-46.33 -0.04,20.32l77.22 12.4c-7.8,56.1 -25.57,32.53 -47.78,85.93 34.57,-10.64 53.64,-28.19 84.21,-27.72 19.94,36.58 -10.53,49.43 16.52,89.58 10.21,-30.43 23.73,-54.01 55.8,-61.14l37.15 78.72c8.69,-39.94 5.66,-64.22 22.01,-88.58 34.94,4.79 35.49,17.7 110.61,58.52 -25.62,-30.92 -60.32,-50.96 -57,-95.69 36.24,-18.82 43.65,-6.71 88.7,-0.9 -32.33,-43.22 -53.71,-30 -60,-70.8l77.77 -38.48c-42.1,-9.01 -64.18,-5.07 -89.18,-22.54 12.75,-55.19 28.98,-32.38 47.8,-80.13 -108.14,37.52 -97.74,39.3 -84.54,-64.19 -35.87,24.33 -32.24,63.76 -67.02,59.23l-22.29 -257.01c11.51,-51.05 -54.18,-620.47 -62.8,-723.97 34.67,-12.26 -27.91,0.24 10.09,0.87 12.9,0.21 -16.94,13.28 19.26,-0.87 0,-56.84 -0.73,-72.29 9.78,-117.4 41.17,27.57 70.86,68.45 107.62,78.27 -12.45,-23.52 -46.47,-97.67 -48.92,-127.18 24.21,11.62 89.14,19.56 127.18,19.56 -15.98,-21.81 -67.83,-60.47 -97.83,-68.48l100.07 -56.46c12.64,-7.12 9.82,-5.5 17.33,-12.02 -34.56,-2.88 -28.8,-6.23 -69.84,-9.03 -40.38,-2.77 -87.17,16.29 -16.05,-66.89 16.43,-19.22 23.93,-31.81 36.96,-51.26 -47.13,10.98 -70.47,35.7 -127.18,48.92 3.16,-38.02 16.4,-89.17 19.57,-127.18 -37.75,25.27 -50.32,72.56 -88.05,97.82 -12.68,-23.94 -36.45,-75.3 -39.13,-107.61l-19.57 0c0,56.17 -8.84,74.75 -9.78,117.4 -46.77,-12.49 -59.92,-55.75 -107.62,-68.48l48.92 117.39c-33.76,-0.75 -97.29,-12.6 -127.18,-19.56 7.74,21.38 18.21,26.66 42.92,45.12 25.41,19 27.22,25.75 54.91,33.14 -28.88,39.42 -85.35,24.74 -117.4,68.48 59.52,0 71.37,9.79 127.18,9.79 -22.63,42.76 -52.12,68.57 -78.27,107.61l127.19 -48.91c-8.12,34.82 -19.57,85.5 -19.57,127.18 37.75,-25.28 50.31,-72.57 88.05,-97.83 27.93,119.89 27.67,659.6 53.89,792.45z"/>
  <path class="fil3" d="M10639.14 4536.26c15.81,10.96 22.87,13.2 37.53,24.86 23.78,18.93 16.4,3.11 24.6,33.84 -40.19,9.37 -59.3,26.15 -97.83,29.35l0 29.35c54.31,0 58.01,9.78 107.62,9.78 -12.55,47.02 -54.29,54.58 -58.7,107.62 48.91,-11.39 74.22,-35.54 117.4,-39.13 -8.54,17.79 -17.8,86.86 -19.57,112.53 29.84,-0.61 34.46,-22.11 63.96,-57.92 1.85,-2.24 7.3,-8.74 9.13,-10.84 15.38,-17.6 3.55,-5.26 14.96,-16.13 31.94,40.71 19.37,76.31 63.77,105.03l11.52 -114.16c55.05,18.14 47.13,39.85 107.74,64.43l-47.6 -119.16c24.69,2.15 46.39,6.5 68.29,9.31l54.9 -2.44c-10.94,-15.26 -1.37,-3.73 -16.14,-16.7l-72.38 -45.06c30.88,-48.46 63.81,-30.37 105.11,-65.42l-54.91 -15.5c-36.86,-4.74 -28.83,1.39 -58.04,-13.86 37.08,-51.51 55.43,-64.64 65.78,-99.96l-88.29 32.79c17.83,-59.95 70.9,-152.23 100.77,-210.81 35.95,-70.51 69.1,-144.87 104.17,-218.86 71.37,-150.6 142.25,-301.7 208.17,-432.58l102.63 -16.92c51.85,-43.81 75.67,-100.32 19.43,-159.05 -19.04,-19.9 -44.53,-32.95 -87.53,-30.27 -45.84,2.85 -57.17,22.92 -76.83,49.71 -8.5,34.56 -18.15,52.69 -3.68,89.45 9.58,24.35 34.25,43.57 47.06,57.3 -40.29,111.49 -146.78,286.72 -215.75,416.4 -36.34,68.33 -198.01,372.27 -210.84,419.87l-5.04 -24.47c-7.01,-60.82 2.25,26.31 -0.69,-15.85 -1.37,-19.83 9.76,-1.76 -4.22,-33.52 -13.18,8.98 -3.8,1.54 -16,13.98 -33.45,34.12 -19.8,40.87 -64.48,72.35l-46.7 -101.8c-32.79,33.22 -5.33,65.57 -29.35,110.84 -84,-30.89 -245.13,-193.95 -323.18,-260.45 -23.2,-19.78 -32.77,-21.35 -54.23,-43.86l-364.38 -320.43c-26.69,-20.09 -26.16,-27.09 -49.55,-47.98 -18.64,-16.63 -32.74,-21.56 -51.07,-37.49l-409.39 -363.27c-61.01,-64.58 -131.28,-82.72 -131.09,-147.84 0.47,-161.14 -179.54,-195.91 -248.62,-68.06 -299.23,-10.8 -602.37,-14.99 -902.37,-27.71 -146.65,-6.22 -297.93,-12.12 -443.86,-13.28 -656.77,-5.17 -347.35,-0.38 -534.6,-192.39 -118.09,-121.1 -255.33,-40.91 -321.51,-13.54 -13.35,-16.4 -22.16,-29.97 -39.68,-46.3 -67.39,-62.79 -40.81,-48.57 -78.24,-88.19 -16.36,-17.32 -24.54,-19.52 -40.86,-36.93l-354.93 -398.79c-78.5,-74.81 -84.18,-108.07 -129.43,-127.19 15.13,24.3 26.7,42.18 40.91,60.04 17.57,22.04 21.47,19.53 38.73,38.7 15.73,17.46 21.96,33.36 37.78,50.7l304.87 350.65c16.94,21.46 21.61,20.05 38.84,39.01l77.33 89.04c31.27,39.5 37.22,47.99 75.68,81.29 -18.46,78.16 -85.48,95.01 -61.76,238.61 27.56,166.93 229.81,257.74 382.52,163.12 80.86,-50.1 74.9,-87.66 118.04,-185.04l1778.34 71.31c18.78,101.72 81.55,154.34 172.44,127.56 13.38,-3.95 22.11,-9.48 32.77,-15.45l25.15 -14.28c0.99,-3 4.27,-2.49 6.57,-3.37 20.75,20.39 28.23,20.12 48.93,39.58l723.55 626.09c19.25,15.9 26.35,17.51 43.93,34.72l167.09 145.63c17.47,15.44 26.41,17.65 44.31,34.34l87.24 78.72c60.64,56.67 219.73,159.16 233.09,236.11l-122.49 -15.14 23.19 33.38z"/>
  <path class="fil3" d="M7989.55 1645.17c-164.58,55.74 -94.94,291.94 73.47,252.38 165.42,-38.87 95.4,-309.58 -73.47,-252.38z"/>
  <path class="fil3" d="M14000.9 5632c12.44,44.16 58.18,71.33 112.27,57.48 39.38,-10.07 75.52,-60.81 60.61,-113.52 -29.66,-104.81 -208.08,-68.87 -172.87,56.04z"/>
  <path class="fil0" d="M4704.07 3979.11c6.22,-76.24 32.74,-16.82 80.15,-48.8 61.96,-41.8 -82.14,-100.55 -99.25,-128.27 -26.19,-42.41 2.07,-58.23 -74.4,-58.23 7.06,47.06 23.75,91 34.87,136.84 12.57,51.85 11.97,105.95 58.63,98.47z"/>
  <path class="fil0" d="M4454.98 4369.94c36.37,28.3 60.9,19.57 121.91,19.57 30.98,-46.27 50.39,-76.3 63.33,-146.75 -10.36,-12.18 -3.22,-6.23 -17.78,-17.55 -10.55,-8.22 -1.47,-1.37 -16.19,-7.23 -50.05,30.26 -22.06,28.31 -81.87,79.68 -27.37,23.5 -56.11,38.37 -69.39,72.28z"/>
  <path class="fil4" d="M10819.76 5015.65c2.17,44.73 74.28,39.23 68.54,-9.62 -5.17,-44.05 -70.57,-32.35 -68.54,9.62z"/>
  <path class="fil4" d="M5853.51 1782.46c106.73,45.04 43.96,-111.03 -3.05,-43.19 -22.04,31.83 2.42,42.08 3.05,43.19z"/>
  <path class="fil4" d="M4478.19 1678.46c-24.14,109.93 90.54,53.73 54.42,5.66 -16.71,-11.81 -37.82,-17.67 -54.42,-5.66z"/>
  <path class="fil4" d="M1899.43 1027.14c9.92,-43.18 13.39,-61.67 -42.31,-60.15 -44.06,50.84 -17.96,70.09 42.31,60.15z"/>
  <path class="fil4" d="M3725.74 1560.91c-50.51,-20.72 -64.27,30.36 -48.4,49.47 27.62,33.26 84.63,4.88 48.4,-49.47z"/>
  <path class="fil4" d="M13972.06 5459.34c-26.16,44.62 14.27,69.77 38.96,58.21 37.94,-17.76 26.31,-79.39 -38.96,-58.21z"/>
  <path class="fil4" d="M7358.22 3456.69c-43.1,-9.46 -70.8,-10.07 -57.37,49.09 19.63,11.83 33.38,13.33 60.5,7.4l-3.13 -56.49z"/>
  <path class="fil4" d="M2634.88 842.92c-6.45,10.91 -18.95,21.09 -3.68,43.47 7.11,10.4 21.84,22.47 40.76,12.8 36.83,-18.8 29.13,-82.98 -37.08,-56.28z"/>
  <path class="fil4" d="M10959.09 4301.46c-20.1,-52.76 -65.01,-50.31 -69.91,-8.48 -5.46,46.61 38.78,53.14 69.91,8.48z"/>
  <path class="fil4" d="M458.09 349.18c-36.16,39.01 -16.39,77.53 25.45,63.96 34.29,-11.12 37.92,-65.11 -25.45,-63.96z"/>
  <path class="fil4" d="M389.61 231.47c-35.87,38.62 -18.77,79.21 25.08,64.02 33.43,-11.59 37.21,-64.09 -25.08,-64.02z"/>
  <path class="fil4" d="M4507.92 3882.23c-60.17,-9.97 -74.46,36.97 -39.66,57.97 37.09,22.38 62.69,-11.29 39.66,-57.97z"/>
  <path class="fil4" d="M11441.58 3907.62l4.91 -36.42c-81.96,-68.83 -98.37,87.74 -4.91,36.42z"/>
  <path class="fil4" d="M8129.91 2030.57l46.98 12.59c52.11,-77.46 -65.89,-104.18 -46.98,-12.59z"/>
  <path class="fil4" d="M2639.49 974.37l-49.12 -11.61c-46.71,75.31 63.87,105.14 49.12,11.61z"/>
 </g>
</svg>
