<?xml version="1.0" encoding="UTF-8"?>
<!DOCTYPE svg PUBLIC "-//W3C//DTD SVG 1.1//EN" "http://www.w3.org/Graphics/SVG/1.1/DTD/svg11.dtd">
<!-- Creator: CorelDRAW 2020 (64-Bit) -->
<svg xmlns="http://www.w3.org/2000/svg" xml:space="preserve" width="150.587mm" height="64.3756mm" version="1.1" style="shape-rendering:geometricPrecision; text-rendering:geometricPrecision; image-rendering:optimizeQuality; fill-rule:evenodd; clip-rule:evenodd"
viewBox="0 0 7850.72 3356.16"
 xmlns:xlink="http://www.w3.org/1999/xlink"
 xmlns:xodm="http://www.corel.com/coreldraw/odm/2003">
 <defs>
  <style type="text/css">
   <![CDATA[
    .fil0 {fill:#FEFEFE}
    .fil1 {fill:#F8AD1D}
    .fil2 {fill:#FAB11C}
   ]]>
  </style>
 </defs>
 <g id="Layer_x0020_1">
  <metadata id="CorelCorpID_0Corel-Layer"/>
  <path class="fil0" d="M5818.42 2283.74c-16.53,23.71 -40.01,20.24 -37.11,-4.5 2.6,-22.2 26.44,-23.51 37.11,4.5zm-1910.12 -418.52c-14.4,3.14 -21.7,2.35 -32.12,-3.93 -7.13,-31.41 7.58,-31.08 30.46,-26.06l1.66 29.99zm408.05 -787.15c-10.04,-48.63 52.61,-34.44 24.94,6.68l-24.94 -6.68zm-74.52 -204.62c89.65,-30.37 126.83,113.36 39.01,134 -89.41,21 -126.38,-104.4 -39.01,-134zm-1009.77 -33.7l11.83 136.45c18.47,2.4 16.54,-18.53 35.58,-31.45 -7.01,54.94 -12.53,54 44.88,34.08 -9.99,25.35 -18.61,13.24 -25.38,42.54 13.27,9.27 25,7.18 47.35,11.96l-41.29 20.43c3.34,21.66 14.69,14.64 31.85,37.59 -23.92,-3.08 -27.85,-9.51 -47.09,0.48 -1.76,23.75 16.66,34.39 30.26,50.8 -39.88,-21.67 -40.17,-28.53 -58.72,-31.07 -8.68,12.93 -7.07,25.83 -11.68,47.03l-19.72 -41.8c-17.03,3.78 -24.21,16.3 -29.63,32.46 -14.36,-21.32 1.82,-28.14 -8.77,-47.56 -16.23,-0.25 -26.35,9.07 -44.71,14.72 11.79,-28.35 21.23,-15.84 25.37,-45.62l-41 -6.58c-8.47,-35.38 10.65,10.33 0.02,-10.79l-837 -41.03c-10.83,28.54 -11.92,41.61 -32.85,63.92 -7.41,7.9 -14.36,15.07 -23.6,23.03l-25.04 18.33c-0.56,-1.01 -2.29,1.67 -3.45,2.6l211.52 779.11c13.21,-6.25 11.74,-9.03 15.21,-25.68 1.46,-6.99 3.14,-24 2.77,-30.35 -0.88,-15.32 -8.38,-44.55 -8.81,-63.45 21.73,-14.55 49.91,-35.03 77.91,-41.55 12.82,19.15 6.76,17.98 15.58,36.36 -12.31,6.51 -21.18,12.05 -36.36,15.58l0 10.39c38.46,3.2 141.32,73.76 157.41,112.69 12.24,29.64 10.31,43.13 50.36,43.13 24.77,-36.98 1.96,-18.84 36.69,-56.81 18.37,-20.08 10.87,-45 24.82,-68.67 1.93,-3.27 17.54,-23.98 20.54,-26.46 28.27,-23.37 84.53,8.41 104.95,22.08 0,59.1 -11.77,28.37 -41.14,47.16 -16.75,10.72 -16.03,41.97 -24.2,64.11 -10.96,29.73 -30.31,38.27 -35.97,52.33 -7.87,19.53 -5.41,65.92 4.4,78.74 10.72,14.02 43.92,23.62 62.86,9.55 20.15,-14.97 23.85,-41.37 39.62,-59.32 23.07,-26.25 40.56,-85.4 72.34,-93.88 0,61.92 -22.27,59.35 -25.97,103.88 32.05,-15.37 83.17,35.03 118.37,43.32 38.4,9.03 47.92,-25.69 66.76,-50.37 9.37,-12.28 14.68,-14.62 19.07,-27.68 12.86,-38.28 -7,-34.29 35.12,-47.98 53.96,-17.54 99.42,-26.46 98.47,51.38 -0.36,29.48 -0.17,58.98 -0.17,88.47 -26.8,14.18 -70.47,15.1 -75.52,18.12 -26.61,15.91 14.45,124.62 67.82,94.08l41.91 -31.24c14.42,-9.19 16.8,-17.51 14.34,-35.52 -5.26,-38.34 -6.52,-36.03 23.03,-62.15 53.03,-46.88 -0.84,-88.91 -33.98,-124.75 -11.94,-12.92 -17.24,-25.68 -31.41,-36.12 -51.18,-37.69 -49.2,-2.12 -42.54,-82.12 33.08,-7.71 38.16,-3.15 67.66,5.05 29.36,8.17 36.11,13.27 55.63,32.68 43.84,43.6 74.09,-4.92 74.09,102.51 -14.44,9.67 -30.22,16.67 -34.61,38.71 -5.67,28.46 12.94,14.59 13.84,54.78 -37.96,25.42 -37.51,24.4 -55.74,68.93 -18.12,44.25 -12.81,64.97 -7.36,113.63 11.74,104.49 -43.69,175.84 83.87,175.84 0,-43.93 9.52,-38.18 20.35,-67.95 9.88,-27.18 3.2,-46.93 15.89,-77.61 41.55,-100.5 16.21,-130.37 30.4,-156.59 7.89,-14.58 27.2,-32.33 39.01,-54.49 14.33,-26.88 27.33,-32.28 42.7,-50.79 30.32,-36.53 9.98,-123.17 80.2,-86.02 -3.56,42.72 -41.14,118.7 -58.87,154.1 -30.75,61.4 -48.12,93.13 -50.38,167.77 -1.11,36.69 4.26,76.47 4.4,90 0.21,20.19 -7.44,25.32 -16.85,37.77 -21.24,28.1 -2.9,109.9 -2.95,147.69 -0.06,43.3 -4.23,68.22 10.39,98.69 32.61,7.6 50.5,7.6 83.11,0 0,-30.68 9.08,-53.63 20.93,-72.57 56.52,-90.38 48.24,-24.1 10.93,-162.29 -7.2,-26.67 -2.8,-15.1 -0.69,-40.44 -25.36,-13.42 -26.58,-22.94 -51.94,-36.36 0,-38.41 20.75,-125.14 50.44,-146.93 33.78,-24.8 34.82,-48.23 50.19,-95.24 11.43,-34.96 13.89,-55.64 55.38,-59.33 42.93,-3.81 49.5,18.4 84.44,30.02 25.17,8.37 24.14,6.42 21.33,28.49 -2.71,21.28 -6.63,28.94 -10.23,49.04 -9.31,51.86 46.9,15.69 66.14,13.01 65.14,-9.06 25.73,-5.43 56.29,-63.18 20.29,0 45.95,-1.29 58.44,3.89 23.19,9.61 36.82,110.23 50.64,136.35 30.36,-0.68 32.65,-17.53 47.78,-40.52 40.56,-61.61 73.46,-56.29 90.09,-128.07 3.52,-15.23 4.68,-22.58 17.95,-28.79l29.61 6.37c9.43,10.07 9.34,25.2 12.31,40.01 19.74,98.23 81.58,78.91 108.32,79.21 29.5,0.34 53.79,15.28 76.53,26.81 28.92,14.67 114.52,52.09 154.99,26.79 22.39,-13.99 29.06,-33.54 52.53,-46.15 18,-9.68 24.63,-5.37 39.25,-12.7 26.36,-13.22 3.4,-14.46 30.3,-21.65 9.13,19.02 10.77,43.94 4.27,66.36 -11.93,41.14 -48.51,31.31 -82.02,89.63 -11.34,19.74 -18.54,36.39 -28.32,59.97l-50.49 120.92c-12.33,30.87 -43.34,93.46 -46,125.4 17.85,20.53 33.28,31.17 72.72,31.17 16.18,-30.57 25.42,-55.74 40.1,-89.76l54.57 -111.64c6.53,-11.28 7.53,-21.08 10.31,-26.05 11.53,-20.56 22.05,-5.39 42.2,-25.33 22.45,-22.22 36.94,-55.43 45.01,-90.05 17.78,11.91 16.11,12.53 25.97,31.17 -18.09,34.19 -58.06,42.47 -67.52,83.11 13.95,9.34 27.21,18.42 43.55,13.04 24.97,-8.22 3.46,1.92 15.85,-10.7 10.36,-10.55 30.37,-40.35 34.1,-54.28 26.09,0 36.05,6.18 46.75,20.78 -7.75,33.25 -39.79,43.92 -25.97,72.72 13.52,6.49 50.23,9.38 70.74,3.22 31.93,-9.61 11.02,-29.59 47.41,-27.67 24.04,1.27 41.7,11.08 43.39,-26.97 1.86,-41.92 -7.19,-41 9.87,-73.24 29.15,2.43 23.45,17.15 46.57,5.6 26.95,-13.47 68.82,-63.59 154.05,-45.21 48.99,10.56 47.46,32.41 73.36,61.7 57.23,64.71 45.22,22.73 84.42,19.47 -3.59,15.43 -11.98,25.52 -4.79,32.7 18.63,18.64 30.09,-24.18 61.06,-22.24 51.14,3.21 110.64,65.76 175.65,67.44l-12.31 -17.72 65.03 8.04c-7.09,-40.86 -91.56,-95.27 -123.75,-125.36l-46.32 -41.8c-9.5,-8.86 -14.25,-10.04 -23.52,-18.23l-88.71 -77.32c-9.34,-9.14 -13.11,-9.99 -23.32,-18.43l-384.15 -332.41c-10.99,-10.33 -14.96,-10.19 -25.98,-21.02 -1.22,0.46 -2.96,0.19 -3.49,1.79l-13.35 7.58c-5.66,3.17 -10.29,6.1 -17.4,8.2 -48.26,14.22 -81.58,-13.72 -91.55,-67.72l-944.16 -37.86c-22.9,51.7 -19.74,71.64 -62.67,98.24 -81.08,50.24 -188.45,2.02 -203.09,-86.61 -12.59,-76.24 22.99,-85.19 32.79,-126.69 -20.42,-17.68 -23.58,-22.18 -40.18,-43.16l-41.06 -47.28c-9.14,-10.07 -11.63,-9.32 -20.62,-20.71l-161.86 -186.17c-8.4,-9.21 -11.7,-17.65 -20.06,-26.92 -9.17,-10.18 -11.23,-8.84 -20.56,-20.55 -7.54,-9.48 -13.69,-18.97 -21.72,-31.87 24.02,10.15 27.04,27.81 68.72,67.53l188.44 211.73c8.66,9.24 13.01,10.41 21.69,19.61 19.87,21.04 5.76,13.49 41.54,46.82 9.3,8.67 13.98,15.87 21.07,24.58 35.14,-14.53 108,-57.11 170.7,7.19 99.41,101.94 -64.87,99.4 283.83,102.15 77.48,0.62 157.79,3.75 235.66,7.05 159.27,6.75 320.22,8.98 479.09,14.71 36.68,-67.88 132.25,-49.42 132,36.13 -0.1,34.58 37.21,44.2 69.6,78.49l217.35 192.87c9.73,8.46 17.22,11.07 27.11,19.9 12.42,11.09 12.14,14.81 26.31,25.47l193.46 170.12c11.4,11.95 16.47,12.79 28.79,23.29 41.44,35.31 126.99,121.88 171.58,138.28 12.75,-24.04 -1.82,-41.21 15.58,-58.85l24.79 54.05c23.73,-16.71 16.48,-20.3 34.24,-38.41 6.48,-6.61 1.5,-2.65 8.49,-7.42 7.42,16.87 1.51,7.27 2.24,17.8 1.56,22.38 -3.36,-23.88 0.36,8.41l2.67 12.99c6.81,-25.27 92.64,-186.64 111.94,-222.92 36.61,-68.85 93.15,-161.88 114.54,-221.07 -6.8,-7.29 -19.89,-17.49 -24.98,-30.42 -7.68,-19.51 -2.56,-29.14 1.96,-47.49l-146.4 -41.56c-8.71,-18.83 3.02,-12.74 -8.58,-37.76 -7.49,-16.14 -15.37,-21.43 -23.43,-39.31 -12.77,-28.31 -15.03,-60.24 -30.32,-89.14 -91.86,0 -55.32,28.25 -183.22,6.62 -62.28,-10.54 -127.27,-15.4 -190.53,-22.43 -67.32,-7.47 -152.24,-97.09 -138.6,-169.15 5.93,-31.32 21.71,-56.5 24.1,-85.13 -31.72,-47.37 -93.78,-23.01 -116.37,-65.43 -16.87,-31.67 -1.27,-35.34 -33.4,-60.09 -30.11,-23.19 -27.46,-14.39 -37.22,-56.27 -53.29,-1.19 -44.19,-32.68 -56.78,-67.88 -11.82,-33.06 -61.04,-30.81 -93.85,-30.81 -45.54,-68 -40.34,-35.41 -79.6,-50.25 -11.77,-4.45 -129.16,-136.59 -148.23,-0.98 -13.97,99.26 11.51,77.77 -26.68,97.98 0.6,26.93 8.34,18.37 1.02,37.32 -9.51,24.61 -26.51,29.94 -27.38,113.28 -0.35,33.81 13.76,56.84 -1.57,81.12 -9.54,15.09 -13.36,8.04 -17.58,29.23 -2.7,13.53 4.35,49.29 -25.9,58.53 -45.4,13.86 2.16,-32.1 -2.09,-58.49 -5.87,-36.39 -55.26,-40.62 -56.36,-89.57 44.2,-10.3 54.79,-55.84 36.56,-98.88 -7.8,-18.41 -21.75,-29.23 -32.03,-45.9 -13.36,-21.67 -11.28,-39.38 -20.12,-57.8 -49.62,0 -82.49,-5.19 -135.05,-5.19 -8.69,-37.31 36.36,-163.82 36.36,-218.16 -35.25,-8.21 -307.22,-142.36 -364.32,-165.48 -182.78,-74 -118.74,-139.78 -118.74,451.17 -32.89,0 -65.85,-0.22 -98.73,0.04 -64.75,0.52 -37.7,0.44 -77.87,-20.82 -23.93,16.03 -29.33,18.25 -63.81,6.75 -40.82,-13.61 -41.89,-27.3 -66.34,-27.96 -27.57,-0.76 -16.51,4.09 -33.05,13.87 -15.86,9.37 -8.15,3.13 -34.21,2.06 -56.15,-2.28 -33.32,18.92 -46.72,46.83 -10.34,-6.92 -13,-12.82 -23.17,-18.38 -20.07,-10.96 -66.85,11.43 -102.49,-110.47 -10.94,-37.41 -28.86,-53.8 -49.43,-80.42 -14.07,-18.21 -9.96,-28.13 -26.54,-35.79 -6.14,-2.83 -9.26,-2.76 -17.15,-3.63 -27.16,-3.01 -18.74,5.72 -37.4,-9.35l-46.69 -41.61c-17.09,-13.91 -34.44,-28.78 -53.35,-37.97z"/>
  <path class="fil0" d="M2393.35 2061.16c12.23,24.78 -1.37,42.66 -21.06,30.78 -18.48,-11.15 -10.89,-36.07 21.06,-30.78zm714.4 -1114.81c-0.34,-0.59 -13.33,-6.03 -1.62,-22.93 24.96,-36.02 58.29,46.84 1.62,22.93zm-730.18 -55.22c8.82,-6.38 20.02,-3.27 28.89,3 19.17,25.52 -41.71,55.36 -28.89,-3zm-399.49 -62.41c19.24,28.86 -11.03,43.92 -25.7,26.27 -8.42,-10.15 -1.12,-37.27 25.7,-26.27zm-576.71 -311.41c7.83,49.66 -50.88,33.82 -26.08,-6.16l26.08 6.16zm-392.91 28.02c-32,5.28 -45.86,-4.95 -22.46,-31.94 29.58,-0.8 27.73,9.01 22.46,31.94zm410.15 -67.93c-10.05,5.13 -17.87,-1.28 -21.64,-6.8 -8.11,-11.88 -1.47,-17.29 1.96,-23.08 35.15,-14.18 39.24,19.89 19.69,29.88zm-1175.39 -292.01c33.65,-0.61 31.72,28.06 13.51,33.96 -22.21,7.2 -32.71,-13.25 -13.51,-33.96zm-36.36 -62.5c33.07,-0.04 31.06,27.84 13.32,33.99 -23.28,8.07 -32.36,-13.49 -13.32,-33.99zm1864.72 2341.94c4.49,-7.63 6.62,7.72 0.35,-14.89l-19.52 -46 55.8 39.91 10.86 -64.61 25.23 58c17.13,-12.65 26.33,-34.95 43.25,-50l-10.38 67.57 24.27 -9.67 5.19 -5.58c7.59,-28.41 46.08,-88.42 64.49,-112.11 13.98,-17.99 73.76,-74.13 106.92,-74.87 -0.62,27.54 -5.73,19.92 -10.39,43.52l68.44 -62.8 -16.5 -47.09c-20.11,-3.56 -27.26,-4.33 -36.36,-16.74l36.36 1.75c8.32,-12.75 6.14,-16.08 18.48,-29.97 2.74,-3.08 9.03,-8.85 13.36,-12.75 25.43,-22.88 -21.1,18.55 6.12,-5.39 0.71,-0.63 2.71,-0.9 3.24,-2.78 0.53,-1.91 2.2,-1.88 3.32,-2.8 -4.78,-20.71 -30.28,-116.21 -39.32,-126.9 -26.68,-5.9 -43.32,4.99 -39.16,-20.29 0.86,-5.22 7.2,-17.91 9.83,-22.19 1.2,-1.95 4.95,-7.19 6.55,-9.24 9.63,-12.32 0.12,-0.25 7.33,-8.37 -9.05,-54.2 -222.66,-794.24 -228.68,-802.27 -227.83,27.06 -247.55,-250.61 -77.21,-297.4 33.81,-9.29 69.12,-6.93 100.43,6.49 70.06,30.02 74.5,63.42 94.95,145.49l864.25 49.86c-8.17,-9.34 -25.85,-20.93 -30.44,-28.98 68.24,9.02 49.57,2.47 34.01,-44.97 22.96,9.34 20.42,27.03 43.41,23.31 10.68,-18.17 7.9,-40.46 6.1,-82.53 -1.14,-26.7 -4.73,-54.59 -4.41,-80.55 -20.59,-4.39 -222.82,-142.82 -258.13,-165.24l-40.59 -21.75c-29.2,43.6 -16.28,60.56 -38.33,96.72 -87.13,142.87 -139.27,82.87 -91.58,-34.44 7.7,-18.93 15.64,-29.95 15.64,-57.08 -18.68,-12.51 -21.86,-11.33 -41.55,-20.78 -13.49,-28.12 3.86,-50.07 -36.36,-41.56 0,78.77 2.52,159.86 -42.67,217.05 -18.88,23.9 -32.53,16.69 -71.61,16.69 -10.4,-19.64 -18.34,-39.87 -36.36,-51.94 -26.57,6.19 -25.42,10.48 -36.36,31.17 -30.76,0 -35.91,5.02 -62.44,5.64 -37.56,0.89 -29.43,-8.54 -57.03,-10.83 -16.88,4.37 -31.06,48.91 -92.12,-1.38 -12.32,-10.15 -21.88,-22.46 -33.73,-33.79 -14.75,-14.1 -22.75,-21.97 -50.75,-21.97 -7.64,14.44 -11.35,23.42 -15.58,41.55 -29.34,0 -29.15,-3.1 -40.7,-21.63 -62.46,-100.24 -138.08,7.44 -167.8,5.45 -42.84,-2.87 18.75,-30.98 21.63,-77.27 1.94,-31.19 5.41,-33.47 -0.12,-57.19 -18.11,-4.22 -40.12,0.04 -48.92,-13.48 -15.46,-23.78 12.17,-33.68 -34.19,-22.88 -1.14,-51.08 -38.09,-12.09 3.24,-69.89 17.45,-24.41 2.7,-45.57 -18.82,-59.97 -29.99,8.01 -1.02,14.42 -37.39,24.94 -13.12,3.8 -44.23,10.44 -56.11,11.42 7.57,-32.48 5.88,-38.04 -10.39,-62.33 -43.16,0.96 -50.25,25.63 -98.69,0 12.79,-17.45 17.19,-11.58 36.36,-20.78 0,-20.5 -1.63,-21.08 -5.19,-36.36 -30.23,0.67 -25.88,11.84 -46.41,9.92 -23.86,-2.23 -9.78,-13.12 -36.7,-20.31 -33.28,22.29 -50.04,43.55 -46.75,83.11 13.79,6.62 5.56,4.74 25.97,5.2 2.6,31.24 2.6,15.5 0,46.74 -9.33,2.17 -27.46,8.36 -41.37,5.45 -25.56,-5.34 -11.32,-8.89 -18.17,-34.22 -8.63,-31.92 -66.58,-24.8 -68.77,-128.1 -0.79,-37.26 23.18,-14.49 45.2,-56.1 -8.66,-12.93 -14.18,-21.43 -31.16,-25.97 0,-27.73 9.11,-59.61 -19.22,-56.64 -23.69,2.48 -22.71,23.84 -48.3,30.67 -3.92,-47.06 -47.55,-52.34 -57.14,-93.49 -45.1,0 -18.25,9.2 -48.99,18.53 -18.34,5.57 -39.63,3.53 -62.21,10.51 -68.36,21.15 -97.09,115.26 -134.11,156.77 -17.86,20.02 -30.92,8.85 -47.22,25.49 -13.04,13.31 -10.51,35.64 -19.12,53.6 -82.59,0 -38.11,-1.41 -84.61,-24.9 -24.38,-12.31 -59.4,5.29 -66.02,30.1 15.81,21.57 43.71,21.11 51.94,51.94 -54.78,-12.76 -12.31,-15.58 -88.3,-15.58 0,-53.3 19.46,-115 -47.4,-119.29 -39.6,-2.54 -45.9,33.82 -152.1,1.94 -27.62,-8.29 -32.57,-20.46 -47.61,-40.69 -30.89,-41.54 -40.52,-78.88 -101,-81.15 -51.4,-1.93 -32.99,16.48 -71.7,-10.98 -30.08,-21.34 -51.32,-37.96 -84.73,-50.39l-32.25 -14.5c-38.66,-10.91 -32.75,-0.74 -54.45,-33.85 -43.75,-66.77 -42.09,-54.06 -113.85,-67.95 -16.41,-3.17 -49.95,-26.24 -66.79,-22.53 -20.78,4.58 -15.68,21.19 -61.47,27.53 -49.17,6.81 -17.71,-20.49 -65.25,-24.45 -10.36,5.48 -19.45,9.94 -23.94,23.47 -10.15,30.59 51.9,86.67 71.42,110.85 52.92,65.58 52.01,35.81 40.83,83.84 21.7,10.42 45.24,10.63 67.61,20.68 35.55,15.97 80.6,45.93 90.55,86.06 6.53,26.32 7.55,50.62 13.25,75.05 32.17,8.53 16.88,0 36.36,0 9.16,-39.32 -9.34,-89.18 5.19,-119.47 17.86,4.77 39.74,44.68 54.18,13.09 10.93,-23.89 -13.89,-53.12 58.87,-37.92 33.76,7.05 89.8,54.31 125.79,71.68 9.87,4.77 21.43,8.87 32.11,14.63 32.66,17.63 56.23,42.55 75.02,75.62 11.18,19.67 18.42,50.42 23.31,75.39 6.96,35.53 3.46,49.78 30.68,68.01 38.18,-25.57 28.17,-80.8 68.33,-87.49 14.16,-2.36 40.84,-0.81 56.33,-0.81 17.64,33.33 17.38,77.67 48.22,48.99 13.41,-12.47 2.11,-10.77 24.5,-12.63 6.29,26.99 0.95,66.75 6.42,87.07 5.35,19.83 30.27,35.46 55.91,37.59 17.4,-11.65 26.57,-25.33 38.02,-45.09 11.05,-19.06 17.55,-37.25 39.89,-43.21 10.85,23.46 -14.19,22.5 14.03,53.43 15.64,17.15 28.79,22.37 38.64,44.54 21.05,47.36 8.4,16.27 39.34,38.57 36.69,26.46 13.42,49.32 95.51,65.51 27.54,5.43 38.16,11.49 55.42,27.68 54.66,51.29 28.3,66.67 94.69,61.14 4.67,17.49 21.9,40.51 33.27,55.03 13.01,16.63 24.98,36.39 49.84,38.46 -2.11,-25.36 -13.92,-25.52 -21.73,-40.85 -11.02,-21.63 0.42,-34.02 0.95,-57.84 46.89,3.9 25.43,48.44 67.52,51.94 14.9,-31.05 -16.38,-55.88 -5.19,-103.88 31.75,0.71 30.07,9.37 36.36,36.36l20.78 0c3.18,-13.66 4.72,-15.26 10.39,-25.97 44.64,23.62 25.28,46.75 79.98,17.48 21.86,-11.7 27.69,-10.97 46.16,1.67 43.41,29.71 50,-0.07 92.01,-3.57 -0.97,43.79 -30.76,22.64 -25.8,71.88 2.84,28.13 17.14,54.38 36.89,67.66 13.04,8.77 63.73,22.03 68.49,33.88 5.64,14.03 -7.61,23.06 24.3,70.71 -96.39,0 -35.23,-19.88 -79.11,-55.94 -25.23,-20.73 -55.71,-35.48 -85.31,-50.17 -31.92,-15.84 -40.65,-1.72 -53.73,23.01 -23.63,0 -35.19,-2.84 -51.95,5.2 9.12,34.15 24.38,10.04 44.83,38.28 5.65,7.81 8.96,18.18 13.96,27.59 8.53,16.05 10.68,15.01 19.12,27.62 55.91,0 28.98,-20.78 77.91,-20.78 3.82,16.39 14.09,50.21 5.19,67.52 -7.83,19.39 3.85,3.56 -17.76,13.4 -15.63,7.12 -22.64,-3.81 -24.03,38.31 -2.3,69.71 -20.25,55.11 -20.54,72.96 6.09,26.14 31,51.04 57.14,57.13 0,44.05 -5.19,69.82 -5.19,109.08 -43.98,23.27 -41.93,37.73 -5.2,62.33 0,56.59 0.48,64.38 -33.61,91.14 -8.73,6.85 -30.71,25.38 -11.02,36.05 11.89,6.44 33.29,-12.11 44.63,-18.11 80.96,54.21 -20.78,103.4 -20.78,161.02 51.26,34.33 62.15,-12.45 99.94,-55.89 12.5,-14.37 14.47,-22.41 35.11,-27.21 34.21,32.44 -4.41,91.39 -22.97,122.47 -12.1,20.27 -19.94,35.99 -32.4,55.9 -17.2,27.47 -27.74,18.41 -27.74,60.56 41.32,27.67 36.05,12.6 79.21,55.84 46.64,46.72 85.3,96.72 127.36,147.93 11.36,13.83 18.21,23.25 29.39,38.14 38.63,51.44 34.91,44.91 -9.13,88.89 -27.59,27.56 -12.92,31.71 1.71,53.57 46.43,0 40.09,-11.46 72.72,10.39 -12.24,23.13 -74.1,92.13 -98.7,98.69 0.53,23.75 8.06,28.69 19.21,43.13 10.19,13.2 19.19,22.7 27.54,34.08z"/>
  <path class="fil0" d="M7433.38 2990.15c-18.69,-66.32 76.04,-85.4 91.78,-29.75 7.92,27.99 -11.27,54.92 -32.18,60.27 -28.72,7.35 -53,-7.07 -59.6,-30.52zm-15.31 -91.67c34.65,-11.25 40.83,21.47 20.69,30.91 -13.11,6.14 -34.58,-7.22 -20.69,-30.91zm-1673.62 -235.57c-1.08,-22.28 33.65,-28.5 36.39,-5.11 3.04,25.94 -35.24,28.86 -36.39,5.11zm330.13 -588.28c-49.62,27.25 -40.91,-55.88 2.61,-19.34l-2.61 19.34zm-367.07 497.39c-20.47,20.6 -17.33,67.4 -22.32,104.93 -6.39,48.03 -7.3,76.91 27.51,100.23 -23.98,102.93 -51.94,119.84 -51.94,166.21 23.91,-1.99 22.38,-13.76 40.55,-22.03 23.03,-10.47 33.99,0.71 58.14,1.25 24.33,-45.98 20.78,-107.14 20.78,-176.6 33.37,-2.78 26.34,-12.82 31.78,-46.13 11.44,-70.14 45.08,-53.44 66.91,-88.91 9.1,-14.79 17.5,-35.93 25.97,-51.94 92.19,0 13.12,-40.97 36.36,-88.3 11.15,-22.71 29.01,-15.8 69.64,-29.05 43.11,-14.07 36.44,-19.07 65.41,-38.47 33.25,2.77 30.88,13.73 62.26,-5.23 18.88,-11.41 26.16,-20.05 57.21,-20.74 11.14,21.06 11.9,38.44 37.2,32.31 28.41,-6.89 30.96,-25 56.29,-27.11 12.84,19.16 5.11,14.8 12.35,29.21 8.94,17.79 0.64,12.34 29.21,12.34l0 -72.72c39.29,20.79 102.88,29.61 143.95,79.4 22.9,27.76 53.06,63.63 84.54,81.67 22.58,12.95 18.63,5.71 44.4,12.74 45.74,12.48 78.83,72.39 125.41,97.94 26.11,14.32 43.64,24.46 70.89,38.18 27.37,13.77 50.52,22.65 77.87,36.41 70.27,35.35 79.9,20.43 105.68,60.54 8.57,13.33 77.7,55.39 97.31,68.9 56.71,39.04 65.21,60.66 101.58,64.64 24.26,2.65 65.49,14.75 86.27,28 30.55,19.48 -5.44,35.55 54.23,112 43.52,55.76 6.27,27.71 5.16,77.94 15.3,0 31.79,0.63 46.92,0.17 33.95,-1.02 95.47,-24.88 113.15,31.95 28.74,92.41 28.03,16.35 90.25,117.52 21.02,34.16 71.45,84.27 112.51,95.82 32.42,9.12 67.94,-41.17 85.48,-62.05l66.01 -84.62c28.51,-60.84 -25.3,-102.92 -29.16,-116.47 -10.7,-37.63 11.46,-23.93 -22.63,-81.26 -28.53,-47.99 -16.4,-71.37 -59.33,-96.49 -43.33,-25.37 -44.72,5.39 -50.76,-53.12 -5.21,-50.49 -30.38,-28.23 -46,-57.88 -8.02,-15.22 -2.82,-21.97 -14.23,-37.92 -19.3,-26.99 -32.14,-9.03 -32.5,-8.85 -16.29,6.57 -6.61,-6.55 -12.98,23.38 -3.86,18.11 -1,19.59 -7.79,33.76 -73.42,-6.11 -70.98,-21.02 -78.74,-35.53 -7.62,-14.25 -3.35,-14.59 -25.14,-16.41 -9.61,41.24 -46.32,40.95 -88.3,31.17 0,-24.51 2.31,-37.18 -8.81,-53.53 -30.95,-45.54 6.42,-89.89 -43.14,-123.08 -44.96,12.01 -35,65.45 -54.65,75.2 -9.29,4.61 -15.12,1.99 -26.89,4.42 -13.34,2.76 -14.3,6.82 -25.18,9.53 -8.71,2.16 -39.28,-0.85 -59.5,-0.85 -7.19,-30.86 -2.92,-61.92 -15.58,-88.3 -56.83,13.24 11.66,101.58 -93.5,31.17 0,-42.6 0.95,-53.8 -38.1,-60.58 -31.77,-5.52 -68.17,2.23 -99.37,-4.51 -71.16,-15.36 -87.92,-64.76 -137.81,-64.76 -4.4,9.17 -5.99,16.81 -10.39,25.97 -27.73,-0.62 -60.7,-21.16 -76.28,-43.19 -18.63,-26.35 14.72,17.89 -3.92,-6.47 -31.52,-41.2 -114.24,18.78 -160.18,-104.72 -18.01,-48.41 -10.84,-49.34 -55.68,-79.37 0,-40.85 21.08,-122.38 -10.39,-145.43 -38.86,26.03 7.13,61.99 -57.13,109.07 -22.93,-5.34 -33.47,-14.09 -48.51,-29.41 -25.1,-25.59 -7.87,-31.42 -18.04,-65.06 -14.85,-49.1 -52.22,-52.12 -89.27,-76.93 0,-77.49 -5.65,-36.36 -57.14,-36.36 -3.04,13.08 -5.27,30.88 -10.39,41.55 -21.26,-0.47 -22.59,-3.1 -36.36,-10.39 1.69,-75.99 39.13,-99.76 -26,-98.72 -34.83,0.56 -39.53,0.54 -30.75,-29.84 5.82,-20.15 18.59,-37.79 20.39,-57.02l-54.49 8.98c-35,69.49 -72.63,149.71 -110.52,229.67 -18.62,39.28 -36.22,78.76 -55.3,116.2 -15.86,31.1 -44.03,80.09 -53.5,111.92l46.87 -17.41c-5.49,18.75 -15.24,25.72 -34.92,53.07 15.51,8.1 11.25,4.84 30.82,7.36l29.15 8.23c-21.93,18.61 -39.41,9 -55.8,34.73l38.43 23.92c7.84,6.89 2.76,0.77 8.57,8.87l-29.15 1.29c-11.63,-1.49 -23.15,-3.8 -36.25,-4.94l25.27 63.26c-32.18,-13.05 -27.98,-24.58 -57.2,-34.21l-6.12 60.61c-23.57,-15.25 -16.9,-34.15 -33.86,-55.76 -6.05,5.77 0.22,-0.78 -7.94,8.57 -0.97,1.12 -3.87,4.57 -4.85,5.76 -15.67,19.01 -18.12,30.43 -33.96,30.75z"/>
  <path class="fil1" d="M3211.74 818.97c-0.32,25.96 3.27,53.85 4.41,80.55 1.8,42.08 4.57,64.36 -6.1,82.53 -22.99,3.72 -20.45,-13.97 -43.41,-23.31 15.56,47.43 34.23,53.98 -34.01,44.97 4.59,8.05 22.26,19.64 30.44,28.98l-864.25 -49.86c-20.44,-82.07 -24.89,-115.47 -94.95,-145.49 -31.31,-13.41 -66.62,-15.77 -100.43,-6.49 -170.34,46.8 -150.62,324.47 77.21,297.4 6.01,8.03 219.63,748.07 228.68,802.27 4.6,20.85 11.15,36.6 15.45,60.09 9.04,10.69 34.54,106.19 39.32,126.9 -1.12,0.92 -2.78,0.89 -3.32,2.8 -0.53,1.89 -2.53,2.15 -3.24,2.78 -27.22,23.94 19.31,-17.5 -6.12,5.39 -4.33,3.9 -10.62,9.67 -13.36,12.75 -12.33,13.89 -10.16,17.22 -18.48,29.97l0 14.99 16.5 47.09 -68.44 62.8 -112.88 113.69c-24.45,24.96 -18.75,15.67 -48.14,29.77l-5.19 5.58 -24.27 9.67 10.38 -67.57c-16.92,15.05 -26.11,37.35 -43.25,50l-25.23 -58 -10.86 64.61 -55.8 -39.91 19.52 46c6.27,22.61 4.14,7.26 -0.35,14.89 -19.61,-0.52 -42.59,-8.04 -62.33,-9.69 5.89,16.28 37.97,34.61 51.94,46.75 -22.4,5.22 -38.61,18.8 -62.33,20.78l0 10.39c31.54,0 41.62,5.19 67.52,5.19 -19.83,29.61 -36.57,38.49 -41.56,57.14 24.73,-5.76 44.75,-20.67 67.53,-25.97 -6.17,12.86 -10.39,47.33 -10.39,67.52 19.15,-14.03 23.3,-36.24 46.75,-51.94 1.63,19.62 13.34,53.07 25.97,62.33 0.51,-22.98 5.19,-36.7 5.19,-67.52 27.07,7.23 35.26,34.33 62.33,41.55 -8.02,-15.15 -24.3,-47.48 -25.97,-67.52 12.86,6.17 47.33,10.39 67.52,10.39 -14,-19.1 -44.34,-29.28 -57.14,-46.75 16.91,-1.41 21.21,-4.94 35.96,-10.79 2.03,-0.81 11.77,-4.49 14.48,-6.3 10.11,-6.73 7.51,-1.98 11.89,-14.08 -30.18,0 -38.38,0.39 -62.33,-5.19 29.3,-55.37 79.42,-86.86 112.99,-120.75 15.3,-15.45 26.29,-30.67 45.64,-40.27 7.05,-18 22.31,-25.9 36.84,-38.38 31.75,-27.27 16.89,-26.23 43.46,-42.3 7.81,3.11 3,-0.53 8.6,3.84 7.73,6.01 3.94,2.85 9.44,9.32 28.77,0.79 31.78,10.18 60.89,-4.11 19.9,-9.77 29.44,-24.44 36.54,-47.03 15.18,-48.33 -21.64,-80.1 -63.52,-88.83 -24.77,3.97 -24.46,-24.75 -31.13,-52.28 -5.9,-24.34 -14.76,-47.67 -18.51,-72.65 -4.46,-22.55 -17.07,-71.66 -27.06,-88.3l-211.52 -779.11c1.16,-0.93 2.89,-3.61 3.45,-2.6l25.04 -18.33c9.24,-7.96 16.18,-15.13 23.6,-23.03 20.93,-22.31 22.02,-35.38 32.85,-63.92l837 41.03c10.62,21.12 -8.49,-24.6 -0.02,10.79l41 6.58c-4.14,29.78 -13.58,17.27 -25.37,45.62 18.36,-5.65 28.48,-14.97 44.71,-14.72 10.59,19.42 -5.59,26.24 8.77,47.56 5.42,-16.16 12.6,-28.67 29.63,-32.46l19.72 41.8c4.61,-21.2 3,-34.1 11.68,-47.03 18.55,2.54 18.84,9.4 58.72,31.07 -13.6,-16.42 -32.03,-27.06 -30.26,-50.8 19.24,-9.99 23.17,-3.56 47.09,-0.48 -17.16,-22.94 -28.52,-15.93 -31.85,-37.59l41.29 -20.43c-22.35,-4.79 -34.07,-2.69 -47.35,-11.96 6.77,-29.3 15.38,-17.19 25.38,-42.54 -57.42,19.92 -51.89,20.86 -44.88,-34.08 -19.04,12.92 -17.12,33.85 -35.58,31.45l-11.83 -136.45c6.11,-27.1 -28.77,-329.42 -33.34,-384.37 18.41,-6.51 -14.82,0.13 5.36,0.46 6.85,0.11 -8.99,7.05 10.22,-0.46 0,-30.18 -0.39,-38.38 5.19,-62.33 21.86,14.64 37.62,36.34 57.14,41.56 -6.61,-12.49 -24.67,-51.85 -25.97,-67.52 12.86,6.17 47.33,10.39 67.52,10.39 -8.48,-11.58 -36.01,-32.1 -51.94,-36.36l53.13 -29.98c6.71,-3.78 5.21,-2.92 9.2,-6.38 -18.35,-1.53 -15.29,-3.31 -37.08,-4.8 -21.44,-1.47 -46.28,8.65 -8.52,-35.51 8.72,-10.2 12.71,-16.89 19.62,-27.21 -25.02,5.83 -37.41,18.96 -67.52,25.97 1.68,-20.19 8.71,-47.34 10.39,-67.52 -20.04,13.41 -26.71,38.52 -46.75,51.94 -6.73,-12.71 -19.35,-39.98 -20.78,-57.13l-10.39 0c0,29.82 -4.69,39.68 -5.19,62.33 -24.83,-6.63 -31.81,-29.6 -57.14,-36.36l25.97 62.33c-17.92,-0.4 -51.65,-6.69 -67.52,-10.39 4.11,11.35 9.67,14.15 22.79,23.96 13.49,10.09 14.45,13.67 29.15,17.6 -15.33,20.93 -45.31,13.13 -62.33,36.36 31.6,0 37.89,5.2 67.52,5.2 -12.02,22.7 -27.67,36.41 -41.56,57.13l67.53 -25.97c-4.31,18.49 -10.39,45.39 -10.39,67.52 20.04,-13.42 26.71,-38.53 46.75,-51.94 14.83,63.65 14.69,350.2 28.61,420.73z"/>
  <path class="fil1" d="M5648.55 2408.4c8.39,5.82 12.14,7.01 19.93,13.2 12.63,10.05 8.71,1.65 13.06,17.97 -21.34,4.97 -31.48,13.88 -51.94,15.58l0 15.58c28.84,0 30.8,5.19 57.14,5.19 -6.66,24.96 -28.82,28.98 -31.17,57.14 25.97,-6.05 39.4,-18.87 62.33,-20.78 -4.54,9.45 -9.45,46.12 -10.39,59.75 15.84,-0.32 18.29,-11.74 33.96,-30.75 0.98,-1.19 3.87,-4.64 4.85,-5.76 8.16,-9.34 1.89,-2.79 7.94,-8.57 16.96,21.61 10.29,40.51 33.86,55.76l6.12 -60.61c29.23,9.63 25.02,21.16 57.2,34.21l-25.27 -63.26c13.11,1.14 24.63,3.45 36.25,4.94l29.15 -1.29c-5.81,-8.1 -0.73,-1.98 -8.57,-8.87l-38.43 -23.92c16.4,-25.73 33.88,-16.13 55.8,-34.73l-29.15 -8.23c-19.57,-2.52 -15.31,0.74 -30.82,-7.36 19.69,-27.35 29.43,-34.32 34.92,-53.07l-46.87 17.41c9.47,-31.83 37.64,-80.82 53.5,-111.92 19.09,-37.44 36.69,-76.91 55.3,-116.2 37.89,-79.96 75.52,-160.18 110.52,-229.67l54.49 -8.98c27.53,-23.26 40.17,-53.26 10.32,-84.44 -10.11,-10.57 -23.64,-17.5 -46.47,-16.07 -24.34,1.51 -30.35,12.17 -40.79,26.39 -4.51,18.35 -9.63,27.98 -1.96,47.49 5.09,12.93 18.18,23.13 24.98,30.42 -21.39,59.19 -77.93,152.23 -114.54,221.07 -19.29,36.28 -105.13,197.65 -111.94,222.92l-2.67 -12.99c-3.72,-32.29 1.19,13.97 -0.36,-8.41 -0.73,-10.53 5.18,-0.93 -2.24,-17.8 -7,4.77 -2.02,0.82 -8.49,7.42 -17.76,18.12 -10.51,21.7 -34.24,38.41l-24.79 -54.05c-17.41,17.64 -2.83,34.81 -15.58,58.85 -44.6,-16.4 -130.14,-102.97 -171.58,-138.28 -12.32,-10.5 -17.4,-11.33 -28.79,-23.29l-193.46 -170.12c-14.17,-10.67 -13.89,-14.38 -26.31,-25.47 -9.9,-8.83 -17.38,-11.45 -27.11,-19.9l-217.35 -192.87c-32.39,-34.29 -69.7,-43.92 -69.6,-78.49 0.25,-85.55 -95.32,-104.01 -132,-36.13 -158.87,-5.73 -319.81,-7.96 -479.09,-14.71 -77.86,-3.3 -158.18,-6.43 -235.66,-7.05 -348.69,-2.75 -184.41,-0.2 -283.83,-102.15 -62.7,-64.3 -135.56,-21.72 -170.7,-7.19 -7.09,-8.71 -11.77,-15.91 -21.07,-24.58 -35.78,-33.33 -21.67,-25.79 -41.54,-46.82 -8.69,-9.2 -13.03,-10.36 -21.69,-19.61l-188.44 -211.73c-41.68,-39.72 -44.69,-57.38 -68.72,-67.53 8.03,12.9 14.18,22.4 21.72,31.87 9.33,11.7 11.4,10.37 20.56,20.55 8.35,9.27 11.66,17.71 20.06,26.92l161.86 186.17c8.99,11.39 11.47,10.65 20.62,20.71l41.06 47.28c16.6,20.97 19.76,25.48 40.18,43.16 -9.8,41.5 -45.38,50.44 -32.79,126.69 14.63,88.63 122.01,136.84 203.09,86.61 42.93,-26.6 39.77,-46.54 62.67,-98.24l944.16 37.86c9.97,54.01 43.3,81.94 91.55,67.72 7.11,-2.1 11.74,-5.03 17.4,-8.2l13.35 -7.58c0.53,-1.6 2.27,-1.32 3.49,-1.79 11.02,10.82 14.99,10.68 25.98,21.02l384.15 332.41c10.22,8.44 13.99,9.3 23.32,18.43l88.71 77.32c9.27,8.2 14.02,9.37 23.52,18.23l46.32 41.8c32.19,30.09 116.66,84.5 123.75,125.36l-65.03 -8.04 12.31 17.72z"/>
  <path class="fil1" d="M4241.83 873.45c-87.38,29.59 -50.4,155 39.01,134 87.83,-20.63 50.65,-164.36 -39.01,-134z"/>
  <path class="fil1" d="M7433.38 2990.15c6.61,23.44 30.89,37.87 59.6,30.52 20.91,-5.35 40.1,-32.29 32.18,-60.27 -15.74,-55.65 -110.47,-36.57 -91.78,29.75z"/>
  <path class="fil0" d="M2497.49 2112.6c3.3,-40.48 17.38,-8.93 42.55,-25.91 32.9,-22.19 -43.61,-53.39 -52.69,-68.1 -13.9,-22.52 1.1,-30.92 -39.5,-30.92 3.75,24.98 12.61,48.31 18.51,72.65 6.67,27.53 6.36,56.25 31.13,52.28z"/>
  <path class="fil0" d="M2365.25 2320.1c19.31,15.03 32.33,10.39 64.72,10.39 16.45,-24.57 26.76,-40.51 33.62,-77.91 -5.5,-6.46 -1.71,-3.31 -9.44,-9.32 -5.6,-4.36 -0.78,-0.73 -8.6,-3.84 -26.57,16.07 -11.71,15.03 -43.46,42.3 -14.53,12.48 -29.79,20.37 -36.84,38.38z"/>
  <path class="fil2" d="M5744.45 2662.91c1.15,23.75 39.43,20.83 36.39,-5.11 -2.74,-23.39 -37.47,-17.17 -36.39,5.11z"/>
  <path class="fil2" d="M3107.75 946.35c56.66,23.91 23.34,-58.95 -1.62,-22.93 -11.7,16.9 1.28,22.34 1.62,22.93z"/>
  <path class="fil2" d="M2377.57 891.13c-12.81,58.36 48.07,28.53 28.89,3 -8.87,-6.27 -20.08,-9.38 -28.89,-3z"/>
  <path class="fil2" d="M1008.45 545.33c5.27,-22.92 7.11,-32.74 -22.46,-31.94 -23.39,26.99 -9.54,37.21 22.46,31.94z"/>
  <path class="fil2" d="M1978.08 828.72c-26.82,-11 -34.12,16.12 -25.7,26.27 14.67,17.66 44.93,2.59 25.7,-26.27z"/>
  <path class="fil2" d="M7418.07 2898.48c-13.89,23.69 7.58,37.04 20.69,30.91 20.14,-9.43 13.97,-42.15 -20.69,-30.91z"/>
  <path class="fil2" d="M3906.64 1835.23c-22.88,-5.02 -37.59,-5.35 -30.46,26.06 10.42,6.28 17.72,7.07 32.12,3.93l-1.66 -29.99z"/>
  <path class="fil2" d="M1398.91 447.52c-3.43,5.79 -10.06,11.2 -1.96,23.08 3.77,5.52 11.59,11.93 21.64,6.8 19.56,-9.98 15.47,-44.05 -19.69,-29.88z"/>
  <path class="fil2" d="M5818.42 2283.74c-10.67,-28.01 -34.51,-26.71 -37.11,-4.5 -2.9,24.75 20.59,28.21 37.11,4.5z"/>
  <path class="fil2" d="M243.21 185.39c-19.2,20.71 -8.7,41.16 13.51,33.96 18.21,-5.9 20.13,-34.57 -13.51,-33.96z"/>
  <path class="fil2" d="M206.85 122.89c-19.04,20.5 -9.97,42.06 13.32,33.99 17.75,-6.15 19.75,-34.03 -13.32,-33.99z"/>
  <path class="fil2" d="M2393.35 2061.16c-31.95,-5.29 -39.53,19.63 -21.06,30.78 19.69,11.88 33.28,-6 21.06,-30.78z"/>
  <path class="fil2" d="M6074.58 2074.64l2.61 -19.34c-43.52,-36.54 -52.23,46.58 -2.61,19.34z"/>
  <path class="fil2" d="M4316.35 1078.08l24.94 6.68c27.67,-41.12 -34.98,-55.31 -24.94,-6.68z"/>
  <path class="fil2" d="M1401.36 517.32l-26.08 -6.16c-24.8,39.98 33.91,55.82 26.08,6.16z"/>
 </g>
</svg>
